<svg xmlns="http://www.w3.org/2000/svg" width="824" height="822" fill="none" viewBox="0 0 824 822">
  <path fill="#fff" d="M405.029 217.985a155.445 155.445 0 0 0-4.197 5.061c-.319.404-.638.813-.957 1.222-.352.451-.704.912-1.047 1.367-.657.874-1.305 1.748-1.944 2.632-.314.441-.633.888-.948 1.334a143.547 143.547 0 0 0-5.356 8.177 141.429 141.429 0 0 0-2.465 4.21c-.267.47-.53.944-.788 1.419-.263.475-.517.949-.775 1.428-.253.475-.507.954-.756 1.434-.248.484-.497.963-.741 1.447-.244.479-.484.963-.723 1.452-.221.442-.437.888-.648 1.334a71.671 71.671 0 0 0-.751 1.589c-.23.493-.451.982-.676 1.475a142.148 142.148 0 0 0-1.3 2.97c-.212.498-.418.996-.625 1.494-.188.456-.371.912-.558 1.372-.019.043-.033.09-.052.132a371.01 371.01 0 0 0-.592 1.508c-.056.146-.112.296-.169.442a134.793 134.793 0 0 0-.943 2.542c-.193.527-.376 1.053-.559 1.579-.159.451-.31.902-.464 1.353l-.353 1.067a32.47 32.47 0 0 0-.281.869c-.146.442-.287.889-.423 1.33a98.144 98.144 0 0 0-.464 1.523c-.16.526-.315 1.052-.465 1.583l-.24.846c-.009.038-.023.08-.032.118-.043.155-.09.31-.127.46l-.127.465-.005.01c-.112.408-.22.822-.328 1.231-.141.526-.272 1.048-.404 1.574-.117.456-.23.912-.338 1.372-.047.183-.089.371-.131.559-.099.409-.193.818-.287 1.227-.122.531-.239 1.057-.352 1.588-.117.531-.225 1.062-.333 1.593-.113.531-.216 1.062-.319 1.593-.094.479-.183.958-.268 1.438-.033.169-.066.343-.094.517a89.002 89.002 0 0 0-.328 1.903c-.01.047-.014.098-.024.15-.084.517-.169 1.034-.244 1.551-.033.188-.061.376-.084.559-.09.578-.169 1.161-.249 1.739-.028.173-.047.347-.071.521-.023.174-.042.343-.065.517-.038.254-.071.508-.099.766-.07.54-.131 1.081-.192 1.621-.052.437-.099.874-.141 1.316-.014.127-.024.254-.038.381-.004.061-.014.117-.019.178-.046.442-.089.884-.126 1.33-.005.033-.01.066-.01.103-.042.428-.075.856-.112 1.283-.033.447-.071.898-.099 1.344l-.042.587c-.042.621-.08 1.241-.113 1.861 0 .043-.009.085-.009.127-.024.428-.042.86-.061 1.288a145.709 145.709 0 0 0-.136 8.561c.009.658.023 1.316.042 1.974.009.456.023.907.042 1.363.019.587.047 1.174.075 1.762.024.549.057 1.095.089 1.64.005.131.014.263.024.399.028.446.056.893.089 1.339.005.104.014.212.024.315.037.531.079 1.057.126 1.588.052.583.104 1.17.16 1.753a147.496 147.496 0 0 0 2.023 13.886l-.009-.01a146.298 146.298 0 0 0-22.857-16.338c-22.162-12.805-47.323-19.576-72.766-19.576-9.318 0-18.684.911-27.852 2.692 32.969-52.521 90.488-88.031 156.448-90.409h.009Zm170.553 90.409a148.682 148.682 0 0 0-10.304-1.626c-.028-.004-.051-.009-.079-.009-.46-.056-.916-.108-1.376-.16h-.019c-.352-.042-.694-.08-1.046-.113a22.908 22.908 0 0 0-.798-.084 82.241 82.241 0 0 0-1.554-.141 83.256 83.256 0 0 0-1.793-.146 142.958 142.958 0 0 0-10.882-.413 144.597 144.597 0 0 0-38.629 5.267 79.712 79.712 0 0 0-2.117.602c-.005 0-.01.005-.014.005a3.667 3.667 0 0 0-.099.028l-.376.112c-.394.113-.788.235-1.187.358-.545.164-1.089.333-1.629.507-.024.005-.042.014-.066.019-.319.103-.643.211-.962.315-.338.108-.676.221-1.014.333-.061.019-.118.043-.179.061-.244.08-.488.165-.732.249a.543.543 0 0 0-.075.024l-1.455.507c-.038.015-.071.024-.108.038-.23.085-.465.169-.7.254a159.776 159.776 0 0 0-1.746.644l-.483.183-.038.014a136.596 136.596 0 0 0-4.018 1.598c-.705.291-1.409.587-2.108.892-.028.01-.056.024-.085.038a143.899 143.899 0 0 0-6.445 2.984l-.056.028c-.7.343-1.399.696-2.094 1.053-.014.004-.028.014-.042.023-.521.268-1.042.54-1.563.818-.061.028-.118.061-.179.094-.117.056-.234.122-.347.183-.202.108-.408.216-.615.334-.061.028-.117.061-.178.094-.503.267-1 .545-1.493.817-.648.362-1.291.729-1.934 1.1-1.629.94-3.235 1.912-4.821 2.913-.409.259-.812.517-1.216.775-.493.32-.986.64-1.479.964l-1.357.907c-.079.056-.159.108-.239.164-.441.301-.878.606-1.319.912a147.18 147.18 0 0 0-12.435 9.713v-.014h.004a146.65 146.65 0 0 0 2.704-27.983c0-35.196-12.665-69.118-35.681-95.644 65.96 2.373 123.484 37.879 156.452 90.4 0 .005.004.005.004.009Zm29.462 102.622c0 32.672-8.112 63.455-22.42 90.437 0 .005-.005.005-.005.009a145.92 145.92 0 0 0-5.502-13.692c-.23-.494-.46-.987-.694-1.481-.235-.488-.47-.982-.709-1.47-.239-.489-.479-.973-.723-1.462-.493-.968-.99-1.936-1.497-2.894-.259-.48-.517-.959-.775-1.434a164.268 164.268 0 0 0-2.408-4.243c-.277-.465-.554-.93-.836-1.395a128.225 128.225 0 0 0-1.713-2.759 146.974 146.974 0 0 0-1.77-2.72c-.3-.452-.606-.898-.911-1.344-.61-.893-1.23-1.781-1.859-2.66a175.049 175.049 0 0 0-1.629-2.223c-.169-.23-.347-.46-.521-.69-.248-.329-.497-.663-.751-.987-.324-.423-.648-.837-.971-1.255-.01-.009-.015-.019-.024-.028-.648-.822-1.3-1.635-1.967-2.444-.051-.061-.103-.126-.155-.187-.314-.381-.629-.762-.948-1.138-.347-.413-.699-.822-1.051-1.236-.353-.408-.709-.812-1.066-1.221-.357-.404-.718-.808-1.08-1.208a89.58 89.58 0 0 0-1.089-1.198c-.371-.4-.737-.794-1.108-1.189-.455-.484-.92-.973-1.389-1.452-.287-.296-.573-.592-.864-.883-.38-.386-.76-.766-1.145-1.152-.385-.38-.77-.756-1.16-1.137a83.155 83.155 0 0 0-1.169-1.123 80.701 80.701 0 0 0-1.136-1.062c-.051-.052-.103-.098-.155-.145 0 0-.014-.01-.018-.019a139.07 139.07 0 0 0-4.742-4.201c-.413-.353-.831-.7-1.248-1.048-.503-.418-1.01-.836-1.521-1.245-.033-.028-.066-.052-.099-.08l-.549-.437a141.69 141.69 0 0 0-3.239-2.514c-.212-.155-.423-.315-.639-.475a157.822 157.822 0 0 0-4.286-3.073 96.252 96.252 0 0 0-1.572-1.067 49.602 49.602 0 0 0-.794-.526 40.157 40.157 0 0 0-.793-.521 143.36 143.36 0 0 0-9.515-5.696 64.617 64.617 0 0 0-1.352-.733l-.737-.394a145.28 145.28 0 0 0-1.235-.64 121.497 121.497 0 0 0-4.652-2.288 32.268 32.268 0 0 1-.267-.127c-.357-.169-.719-.333-1.08-.498l-.061-.028c-.019-.009-.033-.019-.052-.028l-.22-.099a4.42 4.42 0 0 0-.216-.094c-.033-.019-.071-.033-.104-.047-.065-.033-.131-.061-.197-.089a42.635 42.635 0 0 0-1.089-.489l-.127-.056c-.009-.005-.018-.005-.028-.01a134.077 134.077 0 0 0-6.332-2.612c-.545-.207-1.089-.414-1.639-.621a163.584 163.584 0 0 0-3.3-1.179l.01-.005a146.447 146.447 0 0 0 25.546-11.644 145.766 145.766 0 0 0 64.922-78.802c14.313 26.986 22.425 57.769 22.425 90.451Zm-29.462 102.617c-32.968 52.521-90.487 88.036-156.447 90.409h-.009a150.097 150.097 0 0 0 4.192-5.056c.343-.428.676-.86 1.009-1.293.338-.432.667-.864.995-1.301.329-.432.653-.869.977-1.306.009-.005.014-.01.009-.015.324-.432.643-.869.958-1.311.3-.413.596-.827.887-1.245.038-.056.08-.108.117-.164.193-.273.381-.545.568-.818.038-.052.076-.103.108-.155.122-.169.24-.343.357-.512.254-.371.507-.747.761-1.123.305-.451.605-.907.901-1.358l.887-1.368c.291-.46.582-.916.869-1.376a154.605 154.605 0 0 0 3.319-5.597c.262-.475.525-.945.788-1.419a199.542 199.542 0 0 0 1.531-2.866l.718-1.396c.028-.052.051-.103.08-.155.206-.418.417-.841.629-1.264.032-.071.07-.141.098-.212.197-.394.385-.789.578-1.184.258-.536.511-1.071.76-1.612.225-.488.451-.982.676-1.475a142.148 142.148 0 0 0 1.925-4.464c.159-.385.314-.771.469-1.156a.54.54 0 0 0 .033-.08l.451-1.142c.145-.357.281-.719.417-1.076a134.793 134.793 0 0 0 .944-2.542c.014-.042.033-.089.047-.132a184.826 184.826 0 0 0 1.037-2.979c.174-.512.343-1.029.507-1.541.127-.395.254-.79.376-1.184.066-.188.122-.381.183-.574l.38-1.254a.852.852 0 0 0 .042-.151c.005-.023.015-.047.019-.07.118-.381.23-.766.338-1.147l.028-.098c.043-.137.085-.273.118-.409.098-.338.192-.672.286-1.01.132-.465.258-.935.38-1.401a122.852 122.852 0 0 0 .751-2.951c.165-.657.32-1.311.47-1.969.089-.385.178-.765.258-1.151.009-.023.014-.051.019-.075.005-.019.009-.033.009-.052.085-.38.169-.761.249-1.146.108-.498.211-.996.31-1.494.075-.386.155-.766.225-1.152.094-.479.183-.958.268-1.438.033-.169.065-.343.094-.516.117-.635.225-1.269.328-1.904.01-.047.014-.098.024-.15.084-.517.169-1.034.244-1.551.117-.766.23-1.532.333-2.297.075-.546.15-1.091.216-1.636.024-.202.052-.404.075-.606.01-.094.019-.183.033-.277.038-.301.07-.602.103-.907a132.905 132.905 0 0 0 .46-4.779c.014-.179.028-.352.038-.531.033-.404.066-.808.089-1.212.033-.494.066-.992.094-1.485l.07-1.349c.019-.404.038-.803.052-1.207.038-.86.061-1.72.08-2.575.009-.334.014-.668.019-1.006.004-.263.009-.522.009-.78a141.532 141.532 0 0 0-.005-3.435 129.98 129.98 0 0 0-.042-1.974 61.925 61.925 0 0 0-.042-1.362c-.019-.588-.047-1.175-.075-1.762a97.106 97.106 0 0 0-.09-1.64c-.004-.132-.014-.264-.023-.4-.028-.446-.056-.893-.089-1.339a6.573 6.573 0 0 0-.024-.315 84.855 84.855 0 0 0-.126-1.588c-.047-.583-.104-1.17-.16-1.753a147.496 147.496 0 0 0-2.023-13.886l.009.01a146.298 146.298 0 0 0 22.857 16.338c22.162 12.81 47.323 19.576 72.766 19.576 9.318 0 18.683-.911 27.851-2.692Zm-170.553 90.409c-65.96-2.368-123.484-37.879-156.452-90.4 0-.004-.005-.004-.005-.009 2.296.446 4.596.836 6.91 1.175 1.132.164 2.263.315 3.394.451.489.066.972.117 1.456.169.342.038.685.075 1.028.108.291.033.582.066.873.089 1.103.113 2.206.207 3.309.287.601.047 1.197.089 1.798.122 3.028.193 6.061.291 9.084.291 15.064 0 30.029-2.373 44.333-6.968.042-.014.08-.028.122-.038a144.664 144.664 0 0 0 13.28-5.004c.366-.155.732-.315 1.099-.48a126.967 126.967 0 0 0 4.412-2.044 146.951 146.951 0 0 0 14.341-7.955c.409-.254.812-.512 1.216-.775.493-.32.986-.639 1.479-.964.488-.324.976-.653 1.464-.982.484-.333.967-.662 1.451-1.001a147.18 147.18 0 0 0 12.435-9.713c0 .005-.005.015-.005.019a146.678 146.678 0 0 0-2.703 27.978c0 35.196 12.665 69.118 35.681 95.644Zm-73.015-193.026a145.783 145.783 0 0 0-90.478 90.446c-14.313-26.981-22.425-57.769-22.425-90.446s8.112-63.455 22.42-90.442c0-.005.005-.005.005-.009a145.466 145.466 0 0 0 10.684 23.857c.267.474.535.944.807 1.414.263.46.531.921.803 1.377a.165.165 0 0 0 .033.061c.272.456.54.911.817 1.363.277.465.563.925.849 1.386.282.46.573.916.864 1.377.291.455.582.911.878 1.362a143.814 143.814 0 0 0 4.619 6.668c.319.437.643.87.967 1.302.324.432.653.86.981 1.287.329.433.662.856.996 1.283.333.423.671.846 1.009 1.269a145.686 145.686 0 0 0 5.253 6.165c.366.404.727.804 1.093 1.198a134.507 134.507 0 0 0 3.357 3.524c.493.499.99.997 1.493 1.495a122.988 122.988 0 0 0 1.985 1.917c.324.31.648.616.972.916l.211.198c.531.488 1.061.977 1.601 1.461.61.55 1.225 1.095 1.845 1.631.202.183.408.357.61.531.207.178.413.352.62.531.399.343.798.676 1.202 1.01a155.726 155.726 0 0 0 5.346 4.248c.315.239.634.479.958.714.319.24.639.479.962.71.324.239.648.474.972.704.324.235.653.466.977.696.446.319.896.634 1.352.944.455.311.91.621 1.37.931a93.819 93.819 0 0 0 1.437.958 147.126 147.126 0 0 0 6.999 4.314c.347.202.699.399 1.051.597.353.202.7.399 1.057.592.352.197.704.395 1.056.583.352.188.704.38 1.061.568.319.179.638.343.957.508.071.042.141.08.212.112l.056.029c.469.249.939.493 1.408.728.043.023.085.042.127.066.042.023.085.042.127.066.465.234.929.465 1.394.695.075.038.155.075.23.108a113.482 113.482 0 0 0 3.018 1.443c.362.169.723.333 1.09.498.676.31 1.356.611 2.037.902.042.019.08.038.122.056.784.339 1.568.672 2.352.997a184.312 184.312 0 0 0 2.727 1.09c.099.037.193.075.291.113.46.183.925.357 1.39.531.338.131.68.253 1.018.38.925.338 1.85.667 2.775.987Z"/>
  <path fill="#fff" d="M708.535 416.509h-1.681a2.374 2.374 0 0 1-2.357-2.382l.015-6.212a2.366 2.366 0 0 1 2.366-2.369h1.628a3.212 3.212 0 0 0 3.221-3.219v-.531a3.12 3.12 0 0 0-2.103-2.936c-75.119-46.215-108.889-108.543-123.986-152.718-16.398-47.958-14.966-85.499-14.942-85.94h-.024a3.117 3.117 0 0 0-1.549-2.768l-.591-.343a3.21 3.21 0 0 0-4.385 1.184l-.84 1.452a2.361 2.361 0 0 1-3.23.855l-5.375-3.115a2.369 2.369 0 0 1-.864-3.233l.822-1.41a3.227 3.227 0 0 0-1.178-4.403l-.47-.268c-.868-.498-1.868-.521-2.737-.174 0 0-.014 0-.018.005a3.079 3.079 0 0 0-.812.494c-5.324 3.171-35.987 20.6-81.625 29.509-45.948 8.971-116.733 10.799-193.659-31.06a3.126 3.126 0 0 0-3.999-.771l-.461.268a3.222 3.222 0 0 0-1.182 4.403l.821 1.41a2.374 2.374 0 0 1-.864 3.233l-5.375 3.11a2.363 2.363 0 0 1-3.234-.855l-.84-1.456a3.21 3.21 0 0 0-4.385-1.18l-.591.338a3.136 3.136 0 0 0-1.512 2.162h-.042l.014.202a3.01 3.01 0 0 0 .023.893c.029 1.085.052 2.951.015 5.498-.202 11.592-1.742 35.468-9.779 65.119a291.85 291.85 0 0 1-6.872 21.939c-14.168 39.693-36.273 74.776-65.72 104.257a291.927 291.927 0 0 1-15.97 14.821c-.31.268-.615.526-.925.794l-.841.705a197.348 197.348 0 0 1-3.76 3.139c-9.247 7.575-19.167 14.75-29.489 21.333a221.37 221.37 0 0 1-4.033 2.542 3.122 3.122 0 0 0-2.737 3.092v.682a3.211 3.211 0 0 0 3.216 3.209h1.681a2.374 2.374 0 0 1 2.356 2.383l-.014 6.212a2.366 2.366 0 0 1-2.366 2.368h-1.629a3.21 3.21 0 0 0-3.22 3.219v.535a3.148 3.148 0 0 0 1.934 2.89c75.231 46.22 109.03 108.609 124.146 152.812 16.284 47.639 14.974 85.001 14.942 85.926a3.125 3.125 0 0 0 1.521 3.2l.596.343a3.205 3.205 0 0 0 4.38-1.184l.844-1.452a2.361 2.361 0 0 1 3.235-.86l5.37 3.111a2.381 2.381 0 0 1 .869 3.242l-.822 1.41a3.225 3.225 0 0 0 1.183 4.403l.46.268a3.118 3.118 0 0 0 4.239-1.109c6.807-3.98 37.08-20.601 81.235-29.181 46.178-8.975 117.466-10.723 194.842 31.878l.066-.113a3.131 3.131 0 0 0 2.558-.244l.46-.268a3.223 3.223 0 0 0 1.183-4.403l-.822-1.41a2.375 2.375 0 0 1 .864-3.233l5.375-3.11a2.357 2.357 0 0 1 3.23.855l.84 1.457a3.21 3.21 0 0 0 4.385 1.179l.591-.338a3.133 3.133 0 0 0 1.427-1.8h.085c-.005-.023-.005-.122-.014-.296a3.081 3.081 0 0 0-.038-1.386c-.122-7.88.235-42.766 14.501-85.767 14.848-44.744 48.234-107.682 122.972-153.859a3.121 3.121 0 0 0 2.652-3.087v-.682a3.21 3.21 0 0 0-3.215-3.209h.014v-.005Zm-33.936-34.951-51.712 5.465h-.019a213.456 213.456 0 0 0-2.427-15.977c-.173-.888-.357-1.771-.54-2.655l31.954-6.818a304.894 304.894 0 0 0 22.744 19.985Zm-25.616-22.819-29.781 6.358c-1.361-6.16-3-12.241-4.896-18.227l18.256-5.944a292.922 292.922 0 0 0 16.421 17.813Zm-27.19-31.347a285.027 285.027 0 0 0 8.441 10.747l-16.97 5.531a210.59 210.59 0 0 0-6.76-17.622l10.82-4.83a281.609 281.609 0 0 0 4.469 6.174Zm-6.436-8.984-10.229 4.567a209.26 209.26 0 0 0-8.567-16.808l8.032-4.647a285.032 285.032 0 0 0 10.76 16.888h.004Zm-12.463-19.797-8.013 4.638a208.811 208.811 0 0 0-10.267-15.826l8.938-6.513a286.867 286.867 0 0 0 9.342 17.701Zm-10.816-20.784-9.44 6.875a210 210 0 0 0-11.877-14.666l12.994-11.719a290.534 290.534 0 0 0 8.323 19.51Zm-12.125-30.012c.817 2.387 1.671 4.75 2.539 7.109l-13.974 12.608a207.535 207.535 0 0 0-13.351-13.331l19.894-22.142a296.64 296.64 0 0 0 4.892 15.756Zm-5.948-19.619L552.66 251.95a207.401 207.401 0 0 0-7.581-6.419 205.913 205.913 0 0 0-7.079-5.423l29.809-41.116a292.894 292.894 0 0 0 6.196 29.2v.004Zm-16.679-43.968 7.441-12.965.131-.23c.258 5.817.864 13.712 2.202 23.204l-31.828 43.893a192.374 192.374 0 0 0-6.492-4.455l28.542-49.504s0 .038.004.052v.005Zm-31.024 22.799a2.373 2.373 0 0 1-.859-3.242l7.731-13.355a2.29 2.29 0 0 1 1.089-.972c.46-.212.991-.273 1.493-.151.225.047.446.132.652.254l5.38 3.115a2.367 2.367 0 0 1 .855 3.233l-7.732 13.355a2.352 2.352 0 0 1-3.23.865l-5.375-3.111v.009h-.004Zm1.615 14.064-5.089 8.806a189.09 189.09 0 0 0-4.671-2.786 238.644 238.644 0 0 0-4.807-2.697l5.103-8.816a2.362 2.362 0 0 1 3.229-.864l5.375 3.124a2.36 2.36 0 0 1 .86 3.233Zm22.72-56.571 5.37 3.115a2.37 2.37 0 0 1 .864 3.233l-7.732 13.364a2.374 2.374 0 0 1-3.239.865l-5.375-3.125a2.363 2.363 0 0 1-.859-3.228l7.732-13.369a2.367 2.367 0 0 1 3.239-.86v.005Zm-7.229-5.954-36.132 62.666a194.083 194.083 0 0 0-7.544-3.604l21.861-49.222c9.135-3.628 16.482-7.105 21.815-9.844v.004Zm-26.256 11.565-20.481 46.116a210.091 210.091 0 0 0-17.599-6.781l9.807-30.266a294.58 294.58 0 0 0 28.273-9.074v.005Zm-48.191 13.664a299.297 299.297 0 0 0 16.059-3.59l-9.145 28.227a209.147 209.147 0 0 0-18.214-4.873l3.901-18.42c2.47-.413 4.939-.86 7.399-1.344Zm-31.997 4.446a292.63 292.63 0 0 0 21.031-2.519l-3.629 17.147a211.032 211.032 0 0 0-16.059-2.637c-.859-.108-1.709-.197-2.563-.291l1.22-11.7Zm-3.408.258-1.159 11.085a213.787 213.787 0 0 0-18.824-.968v-9.393a286.63 286.63 0 0 0 19.983-.729v.005Zm-23.354.714v9.408c-6.281.061-12.557.394-18.81 1.019l-1.197-11.334a289.61 289.61 0 0 0 20.007.907Zm-31.503-2.072c2.685.334 5.379.616 8.078.865l1.268 11.987a213.174 213.174 0 0 0-18.613 2.998l-3.779-17.753c4.333.733 8.685 1.377 13.041 1.903h.005Zm-16.614-2.528 4.061 19.087a217.014 217.014 0 0 0-8.961 2.199 208.613 208.613 0 0 0-9.225 2.702l-9.553-29.354a287.916 287.916 0 0 0 23.678 5.366Zm-27.569-6.452 10.233 31.493a211.094 211.094 0 0 0-17.594 6.748l-21.411-48.085a301.337 301.337 0 0 0 28.767 9.844h.005Zm-33.273-11.682 22.842 51.285a212.848 212.848 0 0 0-7.126 3.388l-37.202-64.597a319.726 319.726 0 0 0 21.486 9.92v.004Zm-5.155 49.387 5.375-3.115a2.365 2.365 0 0 1 3.23.864l6.196 10.714a204.831 204.831 0 0 0-9.487 5.47l-6.173-10.695a2.362 2.362 0 0 1 .859-3.233v-.005Zm-4.614-7.711a2.364 2.364 0 0 1-3.239-.865l-7.718-13.364a2.364 2.364 0 0 1 .855-3.233l5.379-3.115a2.361 2.361 0 0 1 3.23.865l7.727 13.364a2.36 2.36 0 0 1-.864 3.233l-5.37 3.115Zm-24.312-42.521 5.37-3.111a2.37 2.37 0 0 1 3.239.86l7.727 13.373a2.363 2.363 0 0 1-.859 3.228l-5.38 3.116a2.36 2.36 0 0 1-3.229-.865l-7.727-13.364a2.375 2.375 0 0 1 .864-3.242h-.005v.005Zm-8.839 3.468 2.154 3.707.197.338 1.226 2.143v.024l1.474 2.561.037.047 2.159 3.773.273.479 29.607 51.403a189.145 189.145 0 0 0-6.854 4.722l-32.503-44.739c1.361-9.906 1.976-18.228 2.23-24.468v.01Zm-2.934 29.237 30.466 41.934.014.014c-.592.437-1.188.869-1.775 1.316a211.746 211.746 0 0 0-12.867 10.563l-21.932-24.364a297.103 297.103 0 0 0 6.098-29.463h-.004Zm-13.924 54.898a295.186 295.186 0 0 0 6.784-21.563l20.481 22.747a207.677 207.677 0 0 0-13.309 13.35l-14.496-13.054c.179-.493.362-.982.54-1.48Zm-1.793 4.883 13.51 12.161a211.338 211.338 0 0 0-11.834 14.684l-9.896-7.189a291.626 291.626 0 0 0 8.225-19.656h-.005Zm-9.675 22.752 9.384 6.818a215.223 215.223 0 0 0-10.229 15.827l-8.398-4.854a285.459 285.459 0 0 0 9.248-17.796h-.005v.005Zm-10.919 20.713 8.384 4.84a215.33 215.33 0 0 0-8.558 16.799l-10.501-4.675a278.89 278.89 0 0 0 10.68-16.964h-.005Zm-12.618 19.793 11.074 4.924a209.766 209.766 0 0 0-6.774 17.603l-17.12-5.559a285.781 285.781 0 0 0 12.815-16.973l.005.005Zm-15.125 19.764 18.387 5.967a209.79 209.79 0 0 0-4.868 18.223l-29.808-6.329a283.697 283.697 0 0 0 16.289-17.861Zm-38.902 38.405a195.447 195.447 0 0 0 3.422-2.853l.423-.347c.605-.508 1.197-1.02 1.788-1.528a298.476 298.476 0 0 0 14.125-12.983l31.983 6.785a213.054 213.054 0 0 0-2.653 16.142c-.098.831-.187 1.658-.286 2.49l-51.647-5.404c.953-.766 1.906-1.527 2.85-2.298h-.005v-.004Zm-6.647 5.286 55.106 5.766a209.946 209.946 0 0 0-.643 8.171l-74.005.014a315.361 315.361 0 0 0 19.547-13.951h-.005Zm54.191 31.944-11.891-.014a2.377 2.377 0 0 1-2.361-2.378l.014-6.217a2.356 2.356 0 0 1 2.366-2.359l11.858.015c-.089 3.655-.085 7.306.019 10.948l-.005.005Zm-23.223-8.75-.014 6.217a2.363 2.363 0 0 1-2.366 2.368l-15.425-.023a2.37 2.37 0 0 1-2.361-2.368l.014-6.222a2.362 2.362 0 0 1 2.366-2.359l15.42.019a2.363 2.363 0 0 1 2.366 2.368Zm-28.781.193-.014 6.221a2.364 2.364 0 0 1-2.366 2.359l-15.425-.018a2.37 2.37 0 0 1-2.361-2.378v-6.217a2.378 2.378 0 0 1 2.375-2.363l15.426.023a2.369 2.369 0 0 1 2.365 2.368v.005Zm-22.185 15.432 74.494-.024c.155 2.674.385 5.338.643 8.007l-55.594 5.879a323.085 323.085 0 0 0-19.543-13.858v-.004Zm23.359 16.841 52.126-5.512a209.635 209.635 0 0 0 2.976 18.622l-32.259 6.884a306.475 306.475 0 0 0-22.843-19.999v.005Zm25.72 22.828 30.091-6.424a220.79 220.79 0 0 0 2.22 9.074 215.404 215.404 0 0 0 2.671 9.13l-18.51 6.038a289.594 289.594 0 0 0-16.467-17.818h-.005Zm27.509 31.666a289.138 289.138 0 0 0-8.708-11.071l17.214-5.61a211.477 211.477 0 0 0 6.736 17.612l-11.003 4.91a275.567 275.567 0 0 0-4.239-5.841Zm6.21 8.651L218.989 499a208.243 208.243 0 0 0 8.548 16.804l-8.158 4.722a286.05 286.05 0 0 0-10.793-16.888Zm12.497 19.792 8.14-4.717a211.68 211.68 0 0 0 10.266 15.816l-9.046 6.588a284.173 284.173 0 0 0-9.36-17.687Zm10.843 20.77 9.53-6.94c.46.62.915 1.249 1.385 1.865a214.91 214.91 0 0 0 10.473 12.795l-13.046 11.767a289.616 289.616 0 0 0-8.342-19.487Zm12.29 30.365a300.345 300.345 0 0 0-2.68-7.49l14.036-12.659a209.99 209.99 0 0 0 13.331 13.326l-19.913 22.156a297.752 297.752 0 0 0-4.769-15.333h-.005Zm5.83 19.195 21.36-23.767a206.987 206.987 0 0 0 14.655 11.851l-29.781 41.069a290.057 290.057 0 0 0-6.234-29.153Zm15.773 46.53-.605 1.043-.916 1.598-.666 1.16-4.352 7.552c-.253-5.944-.868-14.121-2.277-23.993l31.79-43.842a203.887 203.887 0 0 0 6.854 4.704l-25.701 44.626-4.122 7.147h-.005v.005Zm31.973-24.543a2.361 2.361 0 0 1 .864 3.233l-7.727 13.369a2.37 2.37 0 0 1-3.23.864l-5.379-3.115a2.359 2.359 0 0 1-.855-3.233l7.718-13.364a2.357 2.357 0 0 1 3.23-.865l5.375 3.111h.004Zm-1.615-14.059 5.422-9.394c1.46.888 2.93 1.762 4.418 2.618 1.68.972 3.365 1.922 5.074 2.838l-5.445 9.421a2.368 2.368 0 0 1-3.235.865l-5.379-3.115a2.364 2.364 0 0 1-.855-3.233Zm-22.697 56.576-5.375-3.111a2.372 2.372 0 0 1-.863-3.233l7.731-13.369a2.373 2.373 0 0 1 3.235-.864l5.375 3.125a2.36 2.36 0 0 1 .863 3.228l-7.727 13.369a2.366 2.366 0 0 1-3.239.859v-.004Zm7.539 5.413 5.31-9.229 1.586-2.749 1.136-1.978 28.11-48.795a199.786 199.786 0 0 0 7.135 3.402l-22.119 49.796c-8.797 3.515-15.919 6.875-21.153 9.553h-.005Zm25.603-11.287 20.735-46.675a211.593 211.593 0 0 0 17.585 6.78l-9.976 30.765a295.659 295.659 0 0 0-28.348 9.13h.004Zm48.591-13.81a303.906 303.906 0 0 0-16.374 3.674l9.304-28.715a207.005 207.005 0 0 0 18.205 4.886l-3.995 18.862c-2.38.404-4.765.832-7.14 1.293Zm31.78-4.418a292.042 292.042 0 0 0-21.077 2.538l3.723-17.579a210.158 210.158 0 0 0 16.232 2.664c.799.094 1.592.184 2.385.273l-1.263 12.104Zm3.408-.263 1.202-11.484c6.267.611 12.548.935 18.82.982v9.76c-6.666.009-13.342.258-20.022.742Zm21.345-22.428a197.39 197.39 0 0 1-20.579-1.067 196.782 196.782 0 0 1-20.712-3.251 198.317 198.317 0 0 1-20.227-5.418l-.052-.014a196.896 196.896 0 0 1-19.5-7.51l-.052-.023a193.704 193.704 0 0 1-7.534-3.557 196.727 196.727 0 0 1-11.154-5.987 202.534 202.534 0 0 1-10.37-6.418 200.755 200.755 0 0 1-23.518-18.148 198.311 198.311 0 0 1-28.053-31.098l-.019-.024a199.21 199.21 0 0 1-20.876-36.314 199.81 199.81 0 0 1-7.482-19.599 196.715 196.715 0 0 1-3-10.141 203.491 203.491 0 0 1-2.432-10.121 201.606 201.606 0 0 1-3.333-20.704v-.024c-.3-2.814-.544-5.624-.722-8.425a197.705 197.705 0 0 1-.066-24.858 197.506 197.506 0 0 1 3.976-29.35 199 199 0 0 1 12.994-39.843 200.238 200.238 0 0 1 9.51-18.678l.221-.381a203.587 203.587 0 0 1 11.163-17.245l.014-.014a201.42 201.42 0 0 1 13.14-16.343 197.834 197.834 0 0 1 14.787-14.873 196.333 196.333 0 0 1 23.481-18.232 197.828 197.828 0 0 1 29.081-15.939 199.034 199.034 0 0 1 19.566-7.495l.023-.014a207.141 207.141 0 0 1 10.224-3.036 202.834 202.834 0 0 1 30.715-5.751 199.254 199.254 0 0 1 20.937-1.161h.516c6.835 0 13.656.357 20.434 1.062a197.646 197.646 0 0 1 40.954 8.712l.046.019a198.168 198.168 0 0 1 19.552 7.542 194.347 194.347 0 0 1 7.957 3.754 205.292 205.292 0 0 1 10.886 5.86 200.363 200.363 0 0 1 10.614 6.579c2.314 1.536 4.6 3.115 6.844 4.741a204.607 204.607 0 0 1 7.976 6.085 190.815 190.815 0 0 1 8.342 7.1 193.125 193.125 0 0 1 14.824 14.845l.014.014a195.6 195.6 0 0 1 13.149 16.329l.014.018a200.71 200.71 0 0 1 11.356 17.626l.112.203c.029.051.066.108.09.159a198 198 0 0 1 9.224 18.364v.014a199.549 199.549 0 0 1 7.454 19.59 204.315 204.315 0 0 1 5.39 20.258 202.373 202.373 0 0 1 3.286 20.68v.024c.314 2.899.563 5.803.746 8.712.526 8.265.549 16.568.066 24.857a206.023 206.023 0 0 1-.662 8.28v.038a201.266 201.266 0 0 1-3.178 20.703v.024a197.66 197.66 0 0 1-5.333 20.253l-.023.065a195.192 195.192 0 0 1-7.441 19.572 196.083 196.083 0 0 1-9.497 18.716c-.014.019-.018.028-.028.047a202.348 202.348 0 0 1-11.379 17.565l-.014.014a196.551 196.551 0 0 1-13.177 16.315l-.014.014a195.383 195.383 0 0 1-14.815 14.83l-.014.014a197.717 197.717 0 0 1-16.303 13.19 181.62 181.62 0 0 1-7.051 4.883 199.016 199.016 0 0 1-21.524 12.4 203.45 203.45 0 0 1-7.726 3.633 200.98 200.98 0 0 1-19.557 7.49l-.023.014a201.66 201.66 0 0 1-20.228 5.427h-.028a200.213 200.213 0 0 1-20.669 3.299 200.688 200.688 0 0 1-20.937 1.132h-.347l-.029-.009Zm116.377-5.31-5.375 3.116a2.37 2.37 0 0 1-3.23-.865l-6.21-10.737a204.831 204.831 0 0 0 9.487-5.47l6.187 10.718a2.362 2.362 0 0 1-.859 3.233v.005Zm4.614 7.706a2.367 2.367 0 0 1 3.24.865l7.717 13.364a2.364 2.364 0 0 1-.854 3.233l-5.38 3.115a2.361 2.361 0 0 1-3.23-.864l-7.727-13.364a2.36 2.36 0 0 1 .864-3.233l5.37-3.116Zm-118.948 9.53a208.046 208.046 0 0 0 18.824-1.001l1.23 11.668a279.372 279.372 0 0 0-20.054-.893v-9.774Zm31.677 11.832a280.11 280.11 0 0 0-8.206-.864l-1.3-12.326a211.051 211.051 0 0 0 18.603-2.974l3.84 18.053a280.649 280.649 0 0 0-12.942-1.889h.005Zm16.514 2.519-4.126-19.388a223.729 223.729 0 0 0 9.135-2.232 214.22 214.22 0 0 0 9.069-2.665l9.643 29.656a285.989 285.989 0 0 0-23.721-5.366v-.005Zm27.617 6.452-10.328-31.766a212.078 212.078 0 0 0 17.599-6.738l21.538 48.353a299.915 299.915 0 0 0-28.804-9.849h-.005Zm33.306 11.686-22.969-51.562a207.632 207.632 0 0 0 7.304-3.478l37.522 65.157a320.731 320.731 0 0 0-21.862-10.117h.005Zm34.146.503-5.37 3.111a2.372 2.372 0 0 1-3.239-.86l-7.727-13.374a2.365 2.365 0 0 1 .859-3.228l5.38-3.115a2.361 2.361 0 0 1 3.23.864l7.726 13.364a2.375 2.375 0 0 1-.863 3.243h.004v-.005Zm8.797-3.548-2.107-3.628-.197-.338-1.226-2.143v-.023l-1.474-2.561-.037-.047-2.16-3.773-.272-.48-29.621-51.416a197.283 197.283 0 0 0 6.718-4.629l32.597 44.866c-1.362 9.812-1.972 18.035-2.225 24.177l.004-.005Zm2.92-28.941-30.574-42.075c.629-.47 1.263-.926 1.883-1.4a213.51 213.51 0 0 0 12.768-10.474l22.054 24.495a297.128 297.128 0 0 0-6.131 29.454Zm11.666-48.179a306.623 306.623 0 0 0-4.493 14.844l-20.594-22.87a207.635 207.635 0 0 0 13.318-13.355l14.632 13.172c-.99 2.72-1.953 5.455-2.863 8.214v-.005Zm4.117-11.611-13.637-12.279a209.031 209.031 0 0 0 11.843-14.684l10.041 7.293a291.304 291.304 0 0 0-8.247 19.665v.005Zm9.717-22.767-9.534-6.926a212.99 212.99 0 0 0 10.247-15.841l8.558 4.944a286.847 286.847 0 0 0-9.271 17.823Zm10.956-20.732-8.557-4.943a211.182 211.182 0 0 0 8.557-16.818l10.699 4.765a282.096 282.096 0 0 0-10.699 16.996Zm16.707-25.497a322.427 322.427 0 0 0-4.065 5.681l-11.276-5.018a212.829 212.829 0 0 0 6.755-17.622l17.374 5.639a279.878 279.878 0 0 0-8.783 11.32h-.005Zm11.102-14.106-18.65-6.062a211.847 211.847 0 0 0 4.873-18.232l30.137 6.405a284.94 284.94 0 0 0-16.355 17.889h-.005Zm19.214-20.728-32.297-6.86a210.144 210.144 0 0 0 2.948-18.641l52.079 5.451a298.167 298.167 0 0 0-22.73 20.05Zm26.537-23.034-55.548-5.813c.254-2.617.474-5.244.629-7.871l74.133-.014a316.9 316.9 0 0 0-19.209 13.693h-.005v.005Zm-54.618-31.695 11.928.019c1.3 0 2.361 1.066 2.361 2.378l-.014 6.216a2.355 2.355 0 0 1-2.366 2.359l-11.909-.014c.094-3.646.094-7.302 0-10.958Zm23.255 8.754.014-6.217a2.363 2.363 0 0 1 2.366-2.368l15.426.024a2.37 2.37 0 0 1 2.361 2.368l-.014 6.221a2.36 2.36 0 0 1-2.366 2.359l-15.421-.018a2.364 2.364 0 0 1-2.366-2.369Zm28.781-.192.014-6.222a2.364 2.364 0 0 1 2.366-2.359l15.426.019a2.37 2.37 0 0 1 2.361 2.378v6.216a2.386 2.386 0 0 1-2.38 2.364l-15.421-.023a2.37 2.37 0 0 1-2.366-2.369v-.004Zm17.519-15.427-69.842.019a206.598 206.598 0 0 0-.661-8.332l55.2-5.836a321.052 321.052 0 0 0 19.894 14.144h-4.595.004v.005Z"/>
  <path fill="#fff" d="M331.488 146.551c10.496 3.924 26.19 11.588 41.568 25.863a271.89 271.89 0 0 1-53.815-13.505 130.492 130.492 0 0 1 12.247-12.358Zm64.946 28.203a272.822 272.822 0 0 1-10.642-.813c-3.023-5.85-13.102-21.803-39.555-38.625a123.316 123.316 0 0 1 16.374-8.994c9.713 6.719 25.054 21.065 33.823 48.428v.004Zm96.233-28.203c-10.497 3.924-26.19 11.588-41.568 25.863a271.907 271.907 0 0 0 53.815-13.505 130.611 130.611 0 0 0-12.247-12.358Zm-64.946 28.203c3.568-.202 7.107-.474 10.642-.813 3.023-5.85 13.102-21.803 39.554-38.625a123.242 123.242 0 0 0-16.373-8.994c-9.713 6.719-25.054 21.065-33.823 48.428v.004Zm15.219-55.095c-20.58 20.929-22.946 49.4-23.218 55.438-2.54.076-5.088.113-7.647.113-2.558 0-5.107-.037-7.647-.113-.272-6.038-2.633-34.509-23.218-55.438a119.074 119.074 0 0 1 61.73 0Zm49.727 555.822c-10.497-3.924-26.19-11.588-41.568-25.864a271.976 271.976 0 0 1 53.815 13.505 130.504 130.504 0 0 1-12.247 12.359Zm-64.946-28.208c3.568.202 7.107.474 10.642.813 3.023 5.85 13.102 21.803 39.554 38.626a123.236 123.236 0 0 1-16.373 8.993c-9.713-6.719-25.054-21.065-33.823-48.428v-.004Zm-96.233 28.208c10.496-3.924 26.19-11.588 41.568-25.864a271.959 271.959 0 0 0-53.815 13.505 130.384 130.384 0 0 0 12.247 12.359Zm64.946-28.208c-3.568.202-7.108.474-10.642.813-3.023 5.85-13.102 21.803-39.555 38.626a123.31 123.31 0 0 0 16.374 8.993c9.713-6.719 25.054-21.065 33.823-48.428v-.004Zm-15.219 55.096c20.58-20.93 22.946-49.401 23.218-55.439a258.974 258.974 0 0 1 15.294 0c.272 6.038 2.633 34.509 23.218 55.439a119.116 119.116 0 0 1-61.73 0ZM142.979 348.646c8.642-7.133 23.119-16.907 43.159-23.1a272.375 272.375 0 0 1-38.592 39.899 130.837 130.837 0 0 1-4.567-16.794v-.005Zm56.876-42.197a270.99 270.99 0 0 1-6.023 8.82c-6.572-.301-25.415.456-53.191 14.976a123.022 123.022 0 0 1 .408-18.688c10.671-5.061 30.753-11.184 58.811-5.108h-.005Zm23.711-97.528c-1.85 11.061-3.066 28.495 1.591 48.964a272.688 272.688 0 0 0 15.224-53.405 130.629 130.629 0 0 0-16.815 4.436v.005Zm-8.065 70.401a275.31 275.31 0 0 0 4.619-9.633c-3.549-5.545-12.313-22.26-13.637-53.602a123.185 123.185 0 0 0-15.965 9.699c.953 11.78 5.699 32.249 24.988 53.536h-.005Zm-40.061-40.741c7.816 28.307 31.269 44.589 36.353 47.845a253.116 253.116 0 0 1-3.728 6.687 247.24 247.24 0 0 1-3.924 6.574c-5.361-2.782-31.17-14.971-59.571-7.594a119.354 119.354 0 0 1 11.91-28.79 119.095 119.095 0 0 1 18.955-24.722h.005Zm505.736 234.805c-8.642 7.133-23.119 16.907-43.159 23.1a272.375 272.375 0 0 1 38.592-39.899 130.956 130.956 0 0 1 4.567 16.794v.005ZM624.3 515.583a270.99 270.99 0 0 1 6.023-8.82c6.572.301 25.415-.456 53.191-14.976.333 6.226.206 12.476-.408 18.688-10.671 5.061-30.753 11.184-58.811 5.108h.005Zm-23.711 97.528c1.85-11.062 3.065-28.495-1.591-48.964a272.698 272.698 0 0 0-15.224 53.404 130.625 130.625 0 0 0 16.815-4.435v-.005Zm8.07-70.405a271.862 271.862 0 0 0-4.62 9.633c3.549 5.544 12.314 22.259 13.637 53.601a123.13 123.13 0 0 0 15.966-9.699c-.953-11.78-5.699-32.249-24.988-53.535h.005Zm40.056 40.745c-7.816-28.307-31.269-44.589-36.353-47.846a254.667 254.667 0 0 1 3.728-6.686 247.24 247.24 0 0 1 3.924-6.574c5.361 2.782 31.17 14.971 59.571 7.593a119.344 119.344 0 0 1-11.91 28.791 119.095 119.095 0 0 1-18.955 24.722h-.005Zm-425.149 29.66c-1.85-11.062-3.066-28.495 1.591-48.964a272.698 272.698 0 0 1 15.224 53.404 130.625 130.625 0 0 1-16.815-4.435v-.005Zm-8.065-70.405c1.61 3.195 3.145 6.4 4.619 9.633-3.549 5.544-12.313 22.259-13.637 53.601a123.185 123.185 0 0 1-15.965-9.699c.953-11.78 5.699-32.249 24.988-53.535h-.005Zm-72.522-69.32c8.642 7.133 23.119 16.907 43.159 23.1a272.375 272.375 0 0 0-38.592-39.899 130.792 130.792 0 0 0-4.567 16.794v.005Zm56.876 42.197a270.99 270.99 0 0 0-6.023-8.82c-6.572.301-25.415-.456-53.191-14.976a123.025 123.025 0 0 0 .408 18.688c10.671 5.061 30.753 11.184 58.811 5.108h-.005Zm-55.28 14.355c28.396 7.378 54.21-4.811 59.571-7.593a267.638 267.638 0 0 1 3.924 6.574 266.779 266.779 0 0 1 3.727 6.686c-5.088 3.257-28.536 19.539-36.352 47.846a119.27 119.27 0 0 1-30.866-53.513h-.004Zm456.014-321.017c1.85 11.061 3.065 28.495-1.591 48.964a272.688 272.688 0 0 1-15.224-53.405 130.629 130.629 0 0 1 16.815 4.436v.005Zm8.07 70.401a273.552 273.552 0 0 1-4.62-9.633c3.549-5.545 12.314-22.26 13.637-53.602a123.13 123.13 0 0 1 15.966 9.699c-.953 11.78-5.699 32.249-24.988 53.536h.005Zm72.517 69.324c-8.642-7.133-23.119-16.907-43.159-23.1a272.375 272.375 0 0 0 38.592 39.899 131 131 0 0 0 4.567-16.794v-.005ZM624.3 306.449a270.99 270.99 0 0 0 6.023 8.82c6.572-.301 25.415.456 53.191 14.976.333-6.227.206-12.476-.408-18.688-10.671-5.061-30.753-11.184-58.811-5.108h.005Zm55.28-14.356c-28.396-7.377-54.21 4.812-59.571 7.594a269.53 269.53 0 0 1-3.924-6.574 265.074 265.074 0 0 1-3.727-6.687c5.088-3.256 28.536-19.538 36.352-47.845a119.27 119.27 0 0 1 30.865 53.512h.005ZM77 466.577l-1.638.338-.953.198c.958 5.516-1.32 8.848-6.835 9.99l-46.85 9.699c-3.271.681-5.618.582-7.022-.297-1.399-.869-2.469-2.927-3.215-6.155l-2.592.54 5.465 26.446 2.59-.54c-.548-3.04-.426-5.287.386-6.734s2.957-2.528 6.45-3.252l46.849-9.698c3.258-.677 5.6-.583 7.032.291 1.427.869 2.497 2.923 3.201 6.16l2.592-.54-5.464-26.446H77Z"/>
  <path fill="#fff" d="m75.362 466.911-1.31-23.909-2.647.141c-.245 3.632-3.394 6.409-9.46 8.35-6.06 1.936-15.58 3.261-28.545 3.976l-20.496 1.127 61.622-51.158-.136-2.551-37.244 2.044c-21.449 1.179-32.668-1.574-33.659-8.271l-2.647.151 1.319 24.096 2.648-.15c.173-3.534 3.304-6.269 9.388-8.219 6.093-1.945 14.388-3.209 24.899-3.787l16.373-.902-51.66 43.099.995 18.096 2.647-.15c-.089-2.98.362-5.136 1.357-6.466 1-1.325 3.131-2.082 6.398-2.256l19.008-1.043c24.274-1.339 37.113 1.335 38.507 8.007l2.117-.117.526-.028v-.08Zm-7.131-132.978c-7.022-9.036-16.383-14.454-28.086-16.258-9.2-1.415-16.458-.089-21.772 3.994-5.314 4.079-8.713 10.92-10.191 20.525l-6.605 42.907 2.624.404c.54-3.045 1.446-5.103 2.704-6.174 1.267-1.072 3.657-1.34 7.187-.795l47.28 7.289c3.287.507 5.446 1.423 6.489 2.73 1.037 1.315 1.319 3.613.854 6.898l2.614.404 4.4-28.603c2.032-13.171-.47-24.284-7.488-33.321h-.01Zm4.943 25.939c-.854 5.535-3.417 10.949-7.689 16.254l-54.43-8.397c-2.155-4.61-2.742-10.103-1.76-16.475 1.502-9.788 5.595-16.301 12.266-19.543 6.67-3.233 14.693-4.131 24.063-2.683 9.337 1.437 16.561 4.99 21.678 10.662 5.112 5.671 7.07 12.396 5.872 20.182Zm18.379-64.189-1.296-.408a13.29 13.29 0 0 1-.32.831c-1.924 4.638-5.426 6.151-10.514 4.549l-45.624-14.393c-3.197-1.006-5.192-2.232-5.986-3.684-.798-1.447-.732-3.764.188-6.945l-2.525-.794-8.112 25.76 2.525.794c1-2.928 2.202-4.821 3.61-5.695 1.413-.865 3.817-.766 7.22.314l45.629 14.393c3.168 1.001 5.168 2.228 5.99 3.684.83 1.457.765 3.769-.202 6.946l2.525.794 8.112-25.76-1.23-.386h.01Z"/>
  <path fill="#fff" d="M117.705 234.394a6.594 6.594 0 0 1-1.855 2.181c-1.173.888-2.704 1.452-4.595 1.696-3.146.404-6.91.357-11.314-.15l-59.312-6.588-1.4 2.951 42.386 45.199c6.285 6.739 8.647 12.016 7.079 15.841l1.24.587 1.154.55.46-.973 10.144-21.371-2.398-1.137-1.25 2.641c-.84 1.762-2.041 2.932-3.623 3.51-1.573.573-3.192.47-4.854-.32-3.155-1.503-7.422-4.92-12.797-10.239l10.384-21.878 20.171 2.279c.461.061.86.164 1.188.319 1.094.522 1.512 1.072 1.23 1.654l-.563 1.189 2.389 1.137 8.511-17.941-2.389-1.137h.014Zm-43.427 31.662-21.576-23.067 30.866 3.491-9.29 19.576Z"/>
  <path fill="#fff" d="m157.648 189.476-29.959-22.24c-17.251-12.809-24.124-22.109-20.617-27.893l-2.127-1.574-14.364 19.383 2.131 1.584c2.385-2.608 6.54-2.717 12.473-.32 5.919 2.392 13.111 6.734 21.57 13.007l13.172 9.778-67.25.132-10.788 14.553 2.131 1.583c1.836-2.354 3.559-3.721 5.169-4.106 1.615-.386 3.737.394 6.365 2.354l15.29 11.348c18.214 13.524 26.551 23.359 25.011 29.514a5.687 5.687 0 0 1-.493 1.274l2.131 1.574 14.295-19.294-2.132-1.584c-2.497 2.636-6.698 2.763-12.604.371-5.901-2.387-14.064-7.452-24.495-15.191l-16.486-12.241 80.056.047 1.521-2.059Zm67.171-64.893-.366-.46c-3.812 2.72-10.539 2.457-20.171-.771l-21.486-7.213c2.478-6.268 3.643-11.851 3.478-16.738-.155-4.887-1.647-9.107-4.469-12.645-2.52-3.162-5.426-4.727-8.717-4.694-3.286.037-6.971 1.687-11.06 4.948l-27.424 21.911 1.652 2.073c2.465-1.871 4.521-2.773 6.174-2.707 1.657.07 3.6 1.499 5.82 4.29L178.097 150c2.07 2.603 3.046 4.737 2.924 6.405-.131 1.673-1.474 3.557-4.041 5.653l1.657 2.067 21.166-16.916-1.652-2.072c-4.535 3.402-8.567 2.899-12.074-1.513l-17.073-21.409 38.277 12.941c3.582 1.189 6.413.958 8.483-.696l6.896-5.516 3.45-2.754-1.286-1.612-.005.005Zm-46.403-8.345c-2.408 1.931-6.276 3.021-11.586 3.265l-14.331-17.964c.929-3.092 2.568-5.578 4.924-7.462 2.676-2.138 5.924-2.725 9.75-1.762 3.831.959 7.394 3.515 10.689 7.65 2.704 3.388 4.103 6.442 4.202 9.158.093 2.721-1.118 5.089-3.653 7.11l.005.005Z"/>
  <path fill="#fff" d="m255.806 86.986-3.398 1.95c4.286 11.123 1.065 19.755-9.661 25.906l-5.075 2.909-15.768-27.56 17.346-10.577-1.92-3.36-4.695 2.688c-4.722 2.716-8.886 3.378-12.491 2.006-3.606-1.367-6.967-4.788-10.093-10.248-1.573-2.75-3.178-5.963-4.826-9.648l3.643-2.086c5.492-3.153 10.187-4.422 14.092-3.816 3.906.607 7.262 3.285 10.07 8.036l3.492-2.002-10.473-18.303-2.248 1.288c.845 1.635.234 3.045-1.841 4.239l-34.184 19.599 1.32 2.298c2.685-1.457 4.849-2.025 6.487-1.71 1.638.31 3.357 2.034 5.15 5.168l23.748 41.497c1.671 2.923 2.31 5.193 1.92 6.804-.202.837-.727 1.678-1.586 2.524-.798.794-1.897 1.607-3.282 2.415l1.113 1.95.202.348 34.906-20.008c1.179-.677 2.183-.32 3.024 1.066l2.389-1.377-7.37-21.996h.009Zm43.221-17.471c-1.31-3.284-3.338-5.69-6.084-7.203-2.765-1.476-7.553-2.937-14.36-4.389-8.989-1.931-14.876-3.67-17.65-5.207-2.812-1.522-4.742-3.594-5.789-6.221-1.084-2.725-1.037-5.362.155-7.918 1.188-2.547 3.244-4.407 6.164-5.578 3.568-1.423 7.149-1.221 10.75.62 3.601 1.843 6.426 4.944 8.483 9.29l3.741-1.494-6.403-16.052c-5.769.287-10.177 1.03-13.224 2.251-6.07 2.425-10.618 6.386-13.67 11.889-3.046 5.502-3.591 10.714-1.629 15.638a13.408 13.408 0 0 0 3.357 4.906c1.488 1.386 3.319 2.519 5.497 3.388 3.938 1.203 8.135 2.255 12.59 3.176 8.149 1.697 13.581 3.294 16.28 4.789 2.718 1.527 4.671 3.782 5.858 6.757 1.362 3.425 1.385 6.682.066 9.788s-3.882 5.418-7.68 6.94c-4.145 1.654-8.417 1.34-12.815-.94-4.404-2.288-7.643-6.024-9.722-11.22l-3.634 1.451 7.389 18.519c6.422-.108 11.867-1.062 16.35-2.852 6.263-2.5 11.027-6.837 14.295-13.007 3.267-6.17 3.83-11.94 1.685-17.316v-.005Zm36.752.175-13.046-55.082 2.901-.687c10.774-2.56 17.435 1.293 19.974 11.55l3.812-.902-4.835-20.426-2.577.61c.38 1.612-.038 2.566-1.254 2.858L293.83 18.738c-.929.226-1.816-.414-2.661-1.922l-2.362.564 4.835 20.417 3.761-.888c-2.113-10.361 1.788-16.714 11.702-19.069l3.7-.883 13.045 55.091c.765 3.242.732 5.587-.089 7.04-.831 1.456-2.85 2.588-6.06 3.383l.61 2.584 26.255-6.226-.61-2.585c-5.474 1.156-8.863-1.024-10.168-6.555h-.009Zm83.957-.955c-2.464.066-4.647-1.165-6.548-3.702-1.902-2.529-3.718-5.837-5.45-9.915L384.172.228l-3.248.235-18.346 59.208c-2.746 8.806-6.168 13.467-10.266 13.989l.197 2.64 24.65-1.799-.197-2.65-2.911.211c-1.948.141-3.558-.324-4.835-1.414-1.277-1.086-1.981-2.547-2.117-4.384-.253-3.492.606-8.886 2.582-16.193l24.129-1.767 7.98 18.688c.178.432.277.832.31 1.198.089 1.208-.188 1.842-.831 1.89l-1.31.093.188 2.641 19.791-1.447-.197-2.641v.01h-.005Zm-48.943-22.174 9.384-30.168 12.206 28.584-21.59 1.584Zm99.224-39.965-.338 2.631c3.629.799 5.788 4.431 6.492 10.911.704 6.475.136 16.921-1.704 31.352-.84 6.579-2.173 11.404-3.99 14.492-1.821 3.092-4.399 5.258-7.732 6.499-3.328 1.25-7.252 1.583-11.778 1-4.52-.582-8.186-2.02-10.984-4.332-2.807-2.307-4.619-4.727-5.441-7.27-.831-2.542-1.005-5.634-.54-9.29l4.915-38.498c.427-3.337 1.291-5.522 2.587-6.56 1.3-1.03 3.581-1.377 6.835-1.03l.333-2.63L421.91.444l-.334 2.631c3.019.46 5.084 1.302 6.211 2.538 1.127 1.235 1.455 3.627 1 7.18L423.82 51.73c-.587 4.605-.019 8.627 1.718 12.057 1.728 3.435 4.507 6.25 8.323 8.45 3.812 2.198 8.591 3.66 14.313 4.397 5.474.7 10.276.423 14.402-.831 4.127-1.255 7.324-3.177 9.577-5.766 2.262-2.59 3.751-5.479 4.474-8.67.722-3.195 1.563-8.575 2.525-16.127 2.784-21.803 7.652-32.785 14.609-32.935l.333-2.631-24.082-3.083.005.005Zm78.005 22.024c-1.896-2.688-5.337-4.798-10.337-6.32l-33.573-10.211-.77 2.537c2.934.973 4.844 2.157 5.722 3.557.883 1.405.803 3.816-.235 7.237L494.92 71.235c-.967 3.181-2.173 5.197-3.614 6.038-1.451.842-3.765.8-6.939-.131l-.774 2.537 25.922 7.885.77-2.537c-5.371-1.819-7.234-5.427-5.596-10.827l7.962-26.206 11.017 38.912c1.052 3.628 2.85 5.827 5.38 6.598l12.665 3.858.77-2.538c-1.272-.47-2.474-1.273-3.605-2.424-2.808-2.82-5.197-7.702-7.183-14.652l-6.238-21.813c6.572-1.503 11.82-3.707 15.758-6.607 3.944-2.904 6.563-6.517 7.887-10.854 1.174-3.867.817-7.157-1.075-9.85l-.005-.004Zm-12.031 14.083c-1.263 4.15-2.986 7.034-5.164 8.655-2.183 1.617-4.826 1.96-7.919 1.02-2.958-.902-6.042-3.472-9.253-7.716l6.676-21.996c3.065-.982 6.041-1.043 8.933-.16 3.272.997 5.595 3.341 6.966 7.044 1.38 3.703 1.296 8.083-.244 13.148h.005v.005Z"/>
  <path fill="#fff" d="M593.524 120.627c-.864-1.199-1.385-2.745-1.582-4.648-.319-3.153-.174-6.921.446-11.31l8.135-59.184-2.905-1.476-46.249 41.23c-4.98 4.421-9.14 6.803-12.491 7.156-1.296.15-2.465-.019-3.516-.48l-1.197 2.36 22.035 11.197 1.201-2.363-2.61-1.325c-1.732-.884-2.872-2.12-3.403-3.717-.54-1.589-.385-3.205.446-4.845 1.582-3.125 5.103-7.302 10.562-12.537l21.575 10.958-2.807 20.131c-.07.46-.188.86-.357 1.184-.549 1.085-1.112 1.48-1.68 1.189l-1.174-.597-1.197 2.363 16.679 8.477 1.005.508 1.201-2.364a6.481 6.481 0 0 1-2.126-1.907h.009Zm-9.055-32.574-19.303-9.802 23.593-20.986-4.29 30.788Z"/>
  <path fill="#fff" d="m673.51 97.413-1.633 2.087c2.539 2.457 2.539 6.621-.005 12.485-2.544 5.874-7.06 12.955-13.548 21.249l-10.107 12.932 1.625-67.295-14.262-11.17-1.628 2.087c2.295 1.898 3.624 3.656 3.962 5.282.342 1.626-.493 3.726-2.512 6.306l-11.731 15.008c-13.994 17.889-24.04 25.976-30.142 24.247a5.36 5.36 0 0 1-1.244-.517l-1.629 2.091 18.899 14.807 1.629-2.091c-2.568-2.57-2.582-6.781-.042-12.622 2.535-5.84 7.806-13.885 15.81-24.115l12.651-16.183-2.131 80.113 2.019 1.574 22.983-29.397c13.243-16.935 22.702-23.57 28.391-19.914l1.634-2.087-18.989-14.872v-.005Zm62.646 60.5c-1.239 1.104-2.267 1.184-3.103.249l-32.02-36.098c-.634-.709-.493-1.799.432-3.261l-1.615-1.818-15.674 13.937 2.563 2.89c8.116-6.767 15.557-6.339 22.317 1.287l2.535 2.853-42.291 37.592c-2.493 2.208-4.568 3.294-6.244 3.252-1.671-.038-3.614-1.288-5.844-3.741l-1.981 1.762 17.913 20.192 1.981-1.762c-3.61-4.276-3.291-8.303.948-12.072l42.291-37.592 1.981 2.232c7.347 8.284 7.117 15.981-.704 23.082l2.601 2.932 15.679-13.938-1.765-1.983v.005Zm59.711 111.884-2.412 1.094c1.291 3.017 1.751 5.343 1.384 6.988-.366 1.64-1.854 3.059-4.469 4.243-3.379 1.541-9.773 2.547-19.171 3.022l-30.555 1.546 39.728-37.569c.338-.315.661-.54.967-.681 1.037-.47 1.901.004 2.586 1.433l2.408-1.095-8.074-17.8-2.413 1.095c2.254 5.766-.164 10.267-7.271 13.5-5.558 2.524-11.975 3.971-19.247 4.319l-24.908 1.203 39.888-37.372c.31-.3.61-.521.91-.658 1.071-.484 1.906-.117 2.502 1.109l2.409-1.094-7.967-17.551-2.408 1.095c.451 1.254.451 2.678 0 4.276-.446 1.597-2.014 3.9-4.713 6.903-2.694 3.012-4.351 4.811-4.966 5.418l-42.24 39.654 1.324 2.914 30.673-1.574c6.083-.301 12.763-.141 20.03.474l-35.831 33.89 1.375 3.016 59.359-2.73c5.507-.235 9.807-.014 12.91.682 3.103.695 5.121 2.015 6.051 3.98l2.413-1.095-10.272-22.631v-.004Zm22.181 76.415c-1.817.31-2.967-.71-3.455-3.05l-8.074-38.597-2.587.545c.55 3.002.428 5.239-.38 6.705-.798 1.462-2.971 2.566-6.502 3.308l-46.759 9.802c-3.291.696-5.648.597-7.061-.272-1.413-.865-2.474-2.923-3.192-6.156l-2.591.545 8.238 39.406c.287 1.335-.366 2.185-1.943 2.552l.563 2.702 23.176-.231-.798-3.834c-11.891.644-19.101-5.084-21.636-17.189l-1.197-5.728 31.048-6.513 4.708 19.778 3.779-.789-1.107-5.296c-1.118-5.338-.47-9.506 1.948-12.513 2.413-3.013 6.698-5.155 12.857-6.448 3.099-.643 6.648-1.184 10.656-1.611l.859 4.107c1.296 6.198 1.061 11.07-.722 14.599-1.784 3.534-5.361 5.902-10.746 7.105l.822 3.948 20.631-4.328-.53-2.542-.005-.005Zm5.103 59.522c-1.84.043-2.831-1.137-2.976-3.524l-2.38-39.364-2.648.165c.113 3.049-.333 5.244-1.343 6.578-1.004 1.34-3.309 2.115-6.914 2.331l-47.68 2.899c-3.357.202-5.671-.23-6.943-1.296-1.272-1.067-2.033-3.252-2.268-6.556l-2.638.16 2.427 40.186c.085 1.358-.68 2.11-2.295 2.242l.173 2.763 22.96 3.138-.235-3.909c-11.857-1.09-18.162-7.81-18.908-20.159l-.357-5.841 31.668-1.922 1.774 20.253 3.854-.235-.324-5.399c-.324-5.441.916-9.473 3.746-12.1 2.822-2.627 7.375-4.126 13.656-4.502 3.155-.197 6.751-.206 10.774-.047l.253 4.192c.385 6.32-.563 11.099-2.835 14.332-2.272 3.242-6.164 5.061-11.661 5.47l.244 4.022 21.04-1.274-.16-2.593v-.01h-.004Zm-8.394 51.708c-.469 3.764-1.877 5.536-4.22 5.315-1.723-.165-3.854-1.34-6.398-3.52-2.545-2.185-4.779-4.464-6.694-6.827l-11.863-14.666-39.46 23.993-1.681 17.739 2.634.253c.436-4.736 5.403-9.971 14.885-15.732l27.594-16.85 15.533 19.449c4.732 5.925 7.159 11.292 7.276 16.113l2.634.253 2.399-25.271-2.634-.249h-.005Zm3.361-35.463c-.366 3.073-1.15 5.178-2.337 6.325-1.188 1.141-3.568 1.545-7.131 1.207l-47.624-4.52c-3.314-.315-5.525-1.105-6.637-2.354-1.113-1.25-1.526-3.525-1.254-6.833l-2.633-.249-2.549 26.883 2.638.254c.704-5.559 3.859-8.068 9.473-7.537l25.377 2.41.141.179.235-.141 21.866 2.082c3.342.319 5.558 1.104 6.628 2.354 1.08 1.245 1.493 3.524 1.254 6.827l2.633.254 2.549-26.888-2.633-.249.004-.004ZM80.047 562.954c-1.422-3.073-3.76-5.249-7.023-6.518-3.262-1.273-6.53-1.151-9.797.362-3.145 1.452-5.314 3.83-6.53 7.124-1.215 3.298-1.093 6.522.357 9.666 1.47 3.176 3.84 5.361 7.126 6.559 3.29 1.199 6.502 1.067 9.642-.38 3.305-1.527 5.53-3.943 6.666-7.223 1.136-3.284.99-6.484-.446-9.586l.005-.004Zm56.848 48.813c-3.788-5.319-8.713-8.815-14.773-10.474-6.06-1.664-11.248-.959-15.562 2.114a13.447 13.447 0 0 0-3.962 4.427c-1 1.776-1.661 3.82-1.995 6.151-.234 4.112-.267 8.444-.098 12.993.286 8.331.018 13.984-.794 16.973-.845 3.002-2.567 5.432-5.173 7.292-3 2.134-6.163 2.928-9.487 2.378-3.328-.545-6.173-2.49-8.548-5.827-2.587-3.632-3.291-7.861-2.118-12.687 1.179-4.821 4.042-8.858 8.596-12.105l-2.272-3.195-16.224 11.564c1.63 6.222 3.84 11.292 6.638 15.23 3.915 5.498 9.248 9.106 16.012 10.826 6.76 1.72 12.492.902 17.2-2.453 2.878-2.058 4.732-4.591 5.554-7.626.779-3.04 1.065-8.04.863-15.009-.248-9.196.043-15.328.878-18.392.817-3.096 2.375-5.465 4.671-7.105 2.389-1.701 4.962-2.279 7.717-1.724 2.761.55 5.051 2.11 6.873 4.671 2.225 3.134 2.877 6.668 1.943 10.605-.934 3.933-3.272 7.42-7.013 10.446l2.338 3.285 14.064-10.028c-1.638-5.54-3.408-9.652-5.314-12.33h-.014Zm7.75 91.18 26.532-53.513-2.286-2.321-56.951 24.341c-8.487 3.604-14.247 4.013-17.299 1.226l-1.887 1.861 17.332 17.635 1.887-1.86-2.047-2.087c-1.366-1.391-2.056-2.927-2.047-4.605 0-1.677.653-3.162 1.967-4.454 2.493-2.453 7.159-5.292 13.994-8.52l16.97 17.269-9.065 18.185c-.211.414-.45.752-.709 1.015-.863.846-1.525 1.043-1.976.588l-.915-.935-1.887 1.86 13.909 14.158 1.887-1.86c-1.648-1.838-2.127-4.295-1.427-7.387.704-3.092 2.042-6.621 4.018-10.582v-.014Zm-17.402-33.721 29.039-12.372-13.862 27.818-15.177-15.446Zm100.792 29.538-1.498 2.185c2.685 2.289 2.948 6.448.78 12.462-2.169 6.015-6.23 13.369-12.177 22.062l-9.272 13.547-2.638-67.266-14.932-10.244-1.493 2.185c2.413 1.748 3.84 3.421 4.286 5.019.446 1.597-.259 3.75-2.108 6.452l-10.759 15.713c-13.745 20.084-23.683 28.636-29.819 25.68l-1.497 2.185 19.796 13.58 1.497-2.185c-2.722-2.406-2.999-6.607-.84-12.598 2.159-5.991 6.915-14.351 14.252-25.069l11.604-16.945 2.944 80.081 2.107 1.447 21.087-30.792c12.14-17.739 21.167-24.957 27.077-21.668l1.497-2.185-19.889-13.641h-.005v-.005Zm83.422 35.746a3.602 3.602 0 0 1-1.183 1.358c-.502.343-.868.47-1.112.38L270.04 721.62l-.93 2.482c2.864 1.151 4.699 2.452 5.488 3.909.793 1.457.563 3.858-.686 7.213l-16.74 44.843c-1.159 3.125-2.497 5.056-4.013 5.794-1.516.742-3.812.559-6.891-.56l-.93 2.481 25.274 9.45.93-2.481c-5.178-2.119-6.779-5.827-4.807-11.108l7.623-20.436 19.181 6.696 1.333-3.567-4.29-1.607c-5.652-2.11-9.079-5.023-10.29-8.74-1.202-3.708-.573-8.862 1.882-15.446 1.118-3.002 2.568-6.31 4.352-9.929l3.985 1.49c5.873 2.199 9.873 4.99 11.994 8.378 2.127 3.388 2.178 7.772.174 13.153l3.723 1.391 7.332-19.661-2.272-.855h-.005Z"/>
  <path fill="#fff" d="M357.161 759.48c.845-3.956.207-7.199-1.906-9.722-2.112-2.519-5.722-4.328-10.834-5.418l-34.32-7.316-.55 2.589c.864.202 1.648.432 2.338.686 1.732.639 2.953 1.433 3.666 2.378 1 1.32 1.127 3.731.381 7.222l-9.962 46.835c-.694 3.252-1.727 5.362-3.093 6.325-1.376.959-3.68 1.114-6.924.46l-.549 2.594 26.494 5.649.549-2.59c-5.506-1.358-7.665-4.793-6.492-10.309l5.699-26.789 14.29 37.827c1.356 3.524 3.333 5.563 5.919 6.123l12.952 2.763.549-2.594c-4.516-1.227-8.581-6.588-12.201-16.099l-8.069-21.202c6.422-2.058 11.468-4.699 15.144-7.923 3.675-3.228 5.985-7.053 6.924-11.484h-.005v-.005Zm-12.698 5.334c-.901 4.243-2.375 7.264-4.408 9.064-2.042 1.8-4.643 2.364-7.807 1.687-3.018-.644-6.309-2.937-9.872-6.898l4.789-22.48c2.971-1.245 5.933-1.551 8.886-.926 3.342.71 5.858 2.857 7.544 6.428 1.685 3.572 1.976 7.946.877 13.12h-.009v.005Zm75.977 49.931c-1.615-2.725-3.06-6.212-4.337-10.45l-17.416-57.145-3.258-.117-24.706 56.848c-3.699 8.449-7.614 12.706-11.731 12.777l-.099 2.65 24.702.907.094-2.65-2.925-.108c-1.948-.071-3.497-.719-4.647-1.936-1.155-1.222-1.695-2.749-1.629-4.591.131-3.496 1.572-8.764 4.333-15.817l24.175.893 5.892 19.449c.131.446.187.855.173 1.222-.042 1.217-.385 1.814-1.023 1.79l-1.314-.052-.099 2.655 19.829.729.094-2.651c-2.455-.202-4.493-1.663-6.103-4.398h-.005v-.005Zm-40.122-23.006 12.628-28.955 9.003 29.759-21.631-.799v-.005Zm118.71 22.405-5.76-36.887c-3.314-21.245-1.695-32.696 4.858-34.355l-.408-2.617-23.819 3.726.409 2.618c3.53-.179 6.562 2.664 9.102 8.533 2.544 5.864 4.628 14.008 6.257 24.421l2.526 16.216-47.999-47.15-17.89 2.796.408 2.617c2.953-.385 5.145-.15 6.558.71 1.422.86 2.38 2.909 2.887 6.146l2.934 18.824c3.751 24.045 2.385 37.099-4.108 39.157l.409 2.618 23.715-3.703-.408-2.618c-3.629.118-6.713-2.744-9.238-8.589-2.535-5.841-4.803-15.187-6.807-28.035l-3.169-20.295 57.013 56.262 2.525-.395h.005Zm73.663-45.021c-5.676 9.496-12.332 15.643-19.956 18.443-7.623 2.796-14.909 2.242-21.866-1.677-6.957-3.919-12.012-10.197-15.176-18.843-2.93-7.984-3.263-15.507-1-22.574 2.267-7.068 7.14-11.973 14.627-14.727 5.347-1.959 10.454-2.274 15.327-.949 4.868 1.325 8.431 4.365 10.675 9.111l3.675-1.348-5.736-15.662c-6.858.089-13.703 1.381-20.533 3.891-7.83 2.875-13.857 7.189-18.073 12.931-4.215 5.742-6.849 11.889-7.896 18.43-1.047 6.541-.31 13.256 2.216 20.135 3.605 9.849 9.365 16.512 17.275 19.98 7.91 3.473 15.533 3.858 22.885 1.156 9.003-3.308 17.242-11.686 24.725-25.135l-1.16-3.162h-.009Zm38.756-5.362c-5.013 2.481-8.849 1.241-11.506-3.74l-22.561-42.226c-1.572-2.955-2.15-5.225-1.704-6.818.446-1.593 2.108-3.205 4.991-4.835l-1.249-2.335-23.791 12.734 1.249 2.34c2.76-1.391 4.943-1.908 6.558-1.541 1.614.366 3.262 2.128 4.947 5.272l22.552 42.225c1.568 2.937 2.141 5.216 1.709 6.837-.428 1.617-2.089 3.224-4.99 4.817l1.244 2.34 23.795-12.739-1.249-2.336h.005v.005Zm35.188-44.927c-2.004-2.909-4.52-4.798-7.534-5.672-3.023-.817-8.022-1.174-14.984-1.071-9.192.117-15.313-.268-18.364-1.142-3.08-.86-5.422-2.453-7.028-4.774-1.671-2.416-2.206-5-1.614-7.749.596-2.754 2.182-5.023 4.769-6.813 3.155-2.181 6.694-2.778 10.614-1.791 3.92.996 7.365 3.384 10.337 7.171l3.314-2.293-9.816-14.219c-5.558 1.564-9.689 3.275-12.388 5.145-5.375 3.717-8.933 8.599-10.68 14.642-1.751 6.038-1.117 11.24 1.887 15.601a13.454 13.454 0 0 0 4.371 4.036c1.76 1.02 3.793 1.711 6.107 2.082 4.108.296 8.436.39 12.989.287 8.323-.16 13.966.188 16.937 1.043 2.991.888 5.394 2.65 7.211 5.282 2.093 3.035 2.84 6.212 2.244 9.529-.597 3.322-2.578 6.146-5.943 8.472-3.671 2.538-7.901 3.182-12.703 1.936-4.802-1.245-8.793-4.163-11.971-8.768l-3.22 2.227 11.318 16.4c6.239-1.537 11.341-3.679 15.308-6.424 5.549-3.834 9.229-9.125 11.046-15.868 1.812-6.739 1.079-12.49-2.207-17.255v-.014Zm55.431-46.017c-1.39 10.981-5.018 19.28-10.881 24.909-5.859 5.625-12.764 8.04-20.702 7.246-7.943-.794-15.097-4.516-21.458-11.156-5.882-6.137-9.206-12.894-9.961-20.276-.766-7.382 1.732-13.834 7.487-19.36 4.108-3.947 8.661-6.292 13.656-7.029 4.99-.743 9.473.61 13.43 4.055l2.821-2.716-11.529-12.039c-6.243 2.838-11.998 6.771-17.251 11.813-6.018 5.785-9.807 12.152-11.365 19.102-1.559 6.954-1.512 13.646.155 20.055 1.661 6.41 5.032 12.26 10.097 17.551 7.258 7.575 15.2 11.357 23.833 11.357s15.778-2.706 21.43-8.134c6.919-6.644 11.111-17.626 12.566-32.958l-2.333-2.43v.01h.005Zm45.647-63.836c-2.821-7.34-7.459-13.242-13.909-17.692-5.934-4.103-12.027-6.147-18.298-6.132-6.263.014-11.745 1.278-16.44 3.81-4.689 2.529-8.792 6.339-12.299 11.428-5.891 8.543-7.839 18.435-5.83 29.656 2 11.23 7.501 19.947 16.491 26.155 7.778 5.38 16.13 7.213 25.063 5.502 8.928-1.701 16.026-6.376 21.293-14.008 3.676-5.333 5.957-11.287 6.844-17.851.888-6.569-.084-13.529-2.91-20.868h-.005Zm-3.37 29.246c-4.535 6.579-11.506 10.695-20.918 12.354-9.412 1.659-18.862-.78-28.33-7.326-6.455-4.455-10.365-9.877-11.75-16.273-1.38-6.386-.141-12.381 3.723-17.997 2.591-3.754 6.628-6.94 12.116-9.544 5.487-2.607 11.632-3.42 18.434-2.429 6.807.982 13.102 3.477 18.885 7.472 6.173 4.266 9.933 9.647 11.267 16.136 1.338 6.494.197 12.358-3.423 17.602h-.004v.005Zm22.837-94.84c-1.408-3.205-3.717-5.441-6.938-6.705-3.384-1.34-6.661-1.279-9.82.164-3.155 1.447-5.361 3.755-6.619 6.945-1.239 3.153-1.188 6.348.15 9.581 1.333 3.243 3.676 5.517 7.032 6.842 3.22 1.269 6.436 1.198 9.656-.202 3.221-1.405 5.465-3.717 6.732-6.931 1.277-3.252 1.22-6.489-.188-9.694h-.005ZM397.128 399.334 248.802 313.61c32.321-6.466 67.026-1.644 97.806 16.146a140.97 140.97 0 0 1 27.443 20.666 145.68 145.68 0 0 0 23.077 48.912Zm12.332 7.237c0-.024 0-.038.005-.061-.014-.019-.033-.033-.047-.052-.014-.014-.023-.028-.037-.042-.287-.325-.568-.654-.85-.983a49.571 49.571 0 0 1-.718-.845 92.403 92.403 0 0 1-1.498-1.795c-.244-.296-.488-.592-.727-.893l-.029-.038c-.323-.399-.647-.808-.967-1.212l-.69-.888c-.178-.226-.352-.456-.525-.682a142.264 142.264 0 0 1-1.554-2.072c-.343-.46-.681-.926-1.014-1.395a202.5 202.5 0 0 1-.995-1.41 144.099 144.099 0 0 1-3.822-5.766c-.305-.489-.61-.977-.91-1.471a111.087 111.087 0 0 1-1.77-2.979 147.64 147.64 0 0 1-2.521-4.558c-.136-.254-.272-.507-.404-.766-.136-.258-.267-.517-.399-.775-.23-.446-.46-.898-.685-1.349-.291-.582-.582-1.17-.868-1.767a37.781 37.781 0 0 1-.376-.784c-.127-.263-.249-.527-.371-.79-.493-1.052-.972-2.11-1.436-3.176a80.03 80.03 0 0 1-.69-1.607c-.118-.268-.23-.536-.338-.809-.113-.267-.221-.535-.334-.808a123.888 123.888 0 0 1-1.281-3.261c-.155-.409-.31-.822-.46-1.231a68.707 68.707 0 0 1-.451-1.241c-.296-.827-.587-1.654-.864-2.49 12.426 14.106 21.735 30.426 27.636 47.855l.014.042c.009.033.023.066.033.099l.014.042-.071-.038v-.004Zm32.809-47.935s.033-.042.052-.061c-5.99 17.823-15.454 34.054-27.584 47.883-.01.014-.019.023-.028.033-.024.028-.047.051-.071.08-.009.009-.019.023-.028.033v-.076s.033-.023.052-.028c.014-.042.028-.089.047-.131.178-.527.356-1.048.544-1.575.141-.394.282-.794.427-1.188l.057-.155.028-.085c.136-.381.277-.757.418-1.133a114.199 114.199 0 0 1 .586-1.546 86.481 86.481 0 0 1 .536-1.353c.009-.028.023-.056.032-.084.165-.414.329-.823.503-1.236.004-.014.009-.024.014-.038.004-.009.004-.014.009-.023.15-.367.305-.733.46-1.1l.338-.803.099-.226c.206-.484.418-.963.634-1.443.117-.272.239-.54.361-.813.244-.54.488-1.076.742-1.611.169-.367.342-.729.516-1.095.113-.24.23-.479.343-.719.051-.103.098-.207.15-.306.099-.197.197-.394.291-.592.188-.39.38-.775.577-1.16.174-.348.352-.696.531-1.039.141-.277.282-.55.427-.822.15-.296.305-.587.46-.879.202-.376.404-.752.606-1.123.267-.498.544-.991.821-1.485.282-.507.568-1.005.855-1.508.009-.014.014-.028.023-.042.286-.494.573-.987.864-1.476.291-.489.587-.977.882-1.466a153.508 153.508 0 0 1 1.845-2.946c.348-.541.7-1.076 1.052-1.612.014-.019.023-.038.037-.056.005-.005.005-.01.01-.015.206-.314.427-.629.633-.944l.057-.085c.018-.023.033-.051.051-.075.352-.521.709-1.034 1.066-1.546.113-.155.221-.315.329-.47.112-.159.22-.315.333-.47.061-.089.122-.178.188-.267.094-.127.183-.259.277-.386.253-.352.511-.709.769-1.062.672-.911 1.352-1.818 2.042-2.716.202-.263.409-.526.615-.789.221-.287.446-.569.672-.851.183-.23.361-.455.544-.681.183-.226.362-.451.549-.677.343-.423.691-.846 1.043-1.259.009-.014.018-.024.028-.038.028-.037.056-.07.084-.103.047-.052.089-.108.136-.16.32-.38.644-.756.963-1.132a91.19 91.19 0 0 1 1.103-1.269Zm7.375-45.007c0 11.766-1.442 23.194-4.16 34.119a145.667 145.667 0 0 0-30.775 44.462 2.243 2.243 0 0 0-.099.221V220.654l.099.113c21.748 24.787 34.935 57.281 34.935 92.862Z"/>
  <path fill="#fff" d="M409.545 220.654v185.95s-.019-.024-.028-.033a.678.678 0 0 1-.052-.061c-.014-.019-.033-.033-.047-.052-.014-.014-.023-.028-.033-.042h-.004c-.287-.325-.568-.654-.85-.983a49.571 49.571 0 0 1-.718-.845 92.403 92.403 0 0 1-1.498-1.795c-.244-.296-.488-.592-.727-.893l-.029-.038c-.323-.399-.647-.808-.967-1.212l-.69-.888c-.178-.226-.352-.456-.525-.682a142.264 142.264 0 0 1-1.554-2.072c-.343-.46-.681-.926-1.014-1.395a202.5 202.5 0 0 1-.995-1.41 144.099 144.099 0 0 1-3.822-5.766c-.305-.489-.61-.977-.91-1.471a111.087 111.087 0 0 1-1.77-2.979 147.64 147.64 0 0 1-2.521-4.558c-.136-.254-.272-.507-.404-.766-.136-.258-.267-.517-.399-.775-.23-.446-.46-.898-.685-1.349-.291-.582-.582-1.17-.868-1.767a37.781 37.781 0 0 1-.376-.784c-.127-.263-.249-.527-.371-.79-.493-1.052-.972-2.11-1.436-3.176a80.03 80.03 0 0 1-.69-1.607c-.118-.268-.23-.536-.338-.809-.113-.267-.221-.535-.334-.808a123.888 123.888 0 0 1-1.281-3.261c-.155-.409-.31-.822-.46-1.231a68.707 68.707 0 0 1-.451-1.241c-.296-.827-.587-1.654-.864-2.49a140.675 140.675 0 0 1-1.103-3.416c-.098-.32-.197-.639-.291-.964-.094-.319-.188-.639-.286-.958-.132-.451-.258-.898-.385-1.349a112.31 112.31 0 0 1-1.047-3.937 67.158 67.158 0 0 1-.347-1.424c-.019-.061-.033-.127-.047-.188l-.014-.061-.282-1.217-.268-1.185c-.023-.108-.047-.22-.07-.338-.089-.413-.178-.827-.263-1.245a72.498 72.498 0 0 1-.357-1.8 132.25 132.25 0 0 1-1.093-6.47c-.052-.353-.104-.705-.151-1.062-.004-.019-.004-.043-.009-.061a53.74 53.74 0 0 1-.117-.874l-.141-1.124a57.195 57.195 0 0 1-.155-1.296l-.155-1.434-.141-1.433c-.047-.512-.089-1.024-.131-1.536-.038-.451-.071-.903-.104-1.349l-.07-1.043c-.023-.395-.052-.78-.07-1.175-.005-.047-.005-.099-.01-.146a42.731 42.731 0 0 1-.037-.803 129.27 129.27 0 0 1-.104-2.444c-.014-.451-.028-.902-.037-1.353-.01-.329-.014-.658-.019-.987a42.996 42.996 0 0 1-.009-.803c-.005-.489-.01-.978-.01-1.471 0-35.633 13.224-68.173 35.034-92.975Zm61.312 190.024c.573.108 1.141.22 1.714.338a140.372 140.372 0 0 1-55.219.028c-.019-.005-.038-.005-.057-.009l-.089-.019h-.009l-.038-.009.066-.038s.028.014.047.028h.004c.043-.009.085-.019.127-.023.441-.09.887-.174 1.329-.259l1.159-.211.146-.028.873-.156c.3-.051.596-.098.896-.15.31-.052.62-.103.93-.15.282-.047.563-.09.84-.137.225-.032.446-.065.667-.098.098-.014.202-.028.3-.047.404-.057.808-.118 1.211-.169a125.862 125.862 0 0 1 5.324-.63c1.117-.113 2.234-.207 3.356-.291a66.2 66.2 0 0 1 1.404-.099c.164-.009.333-.024.502-.033h.038a129.506 129.506 0 0 1 5.877-.235c.361-.009.723-.014 1.079-.019.503 0 1.005-.009 1.507-.009h.085c.436 0 .873.005 1.31.009.291 0 .586.005.877.01.39.004.78.014 1.169.023a13.511 13.511 0 0 1 .667.019c.389.009.774.024 1.164.038a129.5 129.5 0 0 1 1.53.061c.747.037 1.493.08 2.24.127l1.422.098c1.155.085 2.31.184 3.464.301.573.056 1.15.117 1.728.183.577.066 1.155.136 1.732.207.573.07 1.15.146 1.728.226h.009c.577.079 1.15.164 1.723.249a96.62 96.62 0 0 1 3.079.498c.052.004.104.014.155.023.643.113 1.291.23 1.934.353Zm107.181-92.646c-.015.042-.029.089-.047.131-10.567 31.254-32.091 58.935-62.876 76.726a140.737 140.737 0 0 1-31.597 13.453h-.005a145.25 145.25 0 0 0-53.862-4.445c-.076.005-.155.009-.23.023l148.617-85.888Zm-2.535-4.394-160.095 92.524s-.005 0-.009.005h-.005s-.009.009-.014.009l-.671.39-.085.047.014-.042c.01-.024.014-.047.024-.071.014-.042.028-.089.047-.131.178-.527.356-1.048.544-1.575.141-.394.282-.794.427-1.188l.057-.155.028-.085c.136-.381.277-.757.418-1.133a114.199 114.199 0 0 1 .586-1.546 86.481 86.481 0 0 1 .536-1.353c.009-.028.023-.056.032-.084.165-.414.329-.823.503-1.236.004-.014.009-.024.014-.038.004-.009.004-.014.009-.023.15-.367.305-.733.46-1.1l.338-.803.099-.226c.206-.484.418-.963.634-1.443.117-.272.239-.54.361-.813.244-.54.488-1.076.742-1.611.169-.367.342-.729.516-1.095.113-.24.23-.479.343-.719.051-.103.098-.207.15-.306.099-.197.197-.394.291-.592.188-.39.38-.775.577-1.16.174-.348.352-.696.531-1.039.141-.277.282-.55.427-.822.15-.296.305-.587.46-.879.202-.376.404-.752.606-1.123.267-.498.544-.991.821-1.485.282-.507.568-1.005.855-1.508.009-.014.014-.028.023-.042.286-.494.573-.987.864-1.476.291-.489.587-.977.882-1.466a153.508 153.508 0 0 1 1.845-2.946c.348-.541.7-1.076 1.052-1.612.014-.019.023-.038.037-.056.005-.005.005-.01.01-.015.206-.314.427-.629.633-.944l.057-.085c.018-.023.033-.051.051-.075.352-.521.709-1.034 1.066-1.546.113-.155.221-.315.329-.47.112-.159.22-.315.333-.47.061-.089.122-.178.188-.267.094-.127.183-.259.277-.386.253-.352.511-.709.769-1.062.672-.911 1.352-1.818 2.042-2.716.202-.263.409-.526.615-.789.221-.287.446-.569.672-.851.183-.23.361-.455.544-.681.183-.226.362-.451.549-.677.343-.423.691-.846 1.043-1.259.009-.014.018-.024.028-.038.028-.037.056-.07.084-.103.047-.052.089-.108.136-.16.32-.38.644-.756.963-1.132a91.19 91.19 0 0 1 1.155-1.33l.004-.009c.01-.01.014-.015.028-.024.296-.338.597-.677.902-1.015.309-.343.619-.691.934-1.029.277-.305.549-.601.831-.902h.004c.09-.099.179-.198.268-.292l.028-.028.704-.747c.371-.385.742-.771 1.118-1.156.305-.31.61-.625.92-.935.347-.352.699-.7 1.056-1.053.648-.639 1.305-1.273 1.967-1.898.338-.324.68-.644 1.028-.963.3-.282.605-.559.911-.837.389-.361.784-.714 1.183-1.066.352-.315.704-.63 1.06-.94.446-.39.897-.775 1.348-1.161.399-.343.802-.686 1.211-1.019.357-.301.713-.593 1.075-.884.253-.211.512-.423.774-.63.357-.286.719-.573 1.08-.859.024-.019.052-.038.075-.057.352-.272.7-.545 1.052-.817.333-.259.666-.513 1.009-.776a.199.199 0 0 0 .033-.023c.075-.061.159-.122.244-.184.155-.112.305-.23.465-.347.155-.118.31-.235.464-.348l1-.733a73.8 73.8 0 0 1 1.188-.851c.075-.056.145-.108.221-.159.422-.296.84-.592 1.262-.884.766-.531 1.54-1.057 2.324-1.574.343-.226.69-.456 1.037-.681.536-.353 1.08-.7 1.629-1.043.338-.217.676-.428 1.014-.635.413-.258.831-.512 1.249-.766.831-.503 1.676-1.001 2.526-1.494 30.827-17.819 65.593-22.626 97.956-16.118ZM442.039 462.62l.282.832c-12.422-14.106-21.73-30.417-27.631-47.845-.005-.019-.014-.033-.019-.052-.009-.033-.023-.066-.033-.099l-.014-.042.075.042c0 .024 0 .043-.004.066a.215.215 0 0 1 .032.038c.005.005.01.009.014.019.015.009.019.014.029.033h.004c.287.324.568.653.85.982.315.361.629.728.939 1.099.033.038.066.08.098.118.32.38.639.761.953 1.146l.01.01c.328.394.652.794.972 1.198.323.399.647.803.962 1.208.249.314.497.634.742.949.004.004.009.014.014.019.333.427.662.855.985 1.292.123.164.245.324.371.488.235.32.474.64.709.959.7.949 1.385 1.908 2.056 2.876.301.427.596.855.887 1.287.32.466.634.931.939 1.401a.466.466 0 0 1 .052.075c.263.395.516.785.775 1.179.394.606.779 1.217 1.164 1.828.211.343.427.686.638 1.034.366.592.723 1.184 1.075 1.781.15.244.296.498.441.747l.437.747c.272.47.54.94.807 1.41.141.258.287.512.428.771.201.371.403.737.605 1.108.221.409.441.818.662 1.232.019.033.033.065.052.098a95.806 95.806 0 0 1 .77 1.48c.225.433.445.875.666 1.316.038.071.075.146.113.221.004.009.009.024.014.033a134.263 134.263 0 0 1 2.234 4.704c.179.394.352.789.531 1.184a127.604 127.604 0 0 1 1.558 3.684c.216.531.427 1.067.639 1.598.216.531.422 1.071.624 1.611.207.55.408 1.095.61 1.645s.399 1.104.592 1.659c.098.277.197.55.291.831Zm133.464 45.769-.146.028c-32.32 6.466-67.03 1.645-97.81-16.146a140.85 140.85 0 0 1-27.443-20.666 145.687 145.687 0 0 0-23.073-48.907c-.047-.066-.089-.132-.141-.193l148.613 85.884Z"/>
  <path fill="#fff" d="m578.038 503.995-160.109-92.528h-.005l-.685-.399-.08-.047s.024-.005.038-.005h.009s.019-.009.028-.009c.01-.005.019-.005.028-.005l.01-.005h.004c.043-.009.085-.019.127-.023.441-.09.887-.174 1.329-.259l1.159-.211.146-.028.873-.156c.3-.051.596-.098.896-.15.31-.052.62-.103.93-.15.282-.047.563-.09.84-.137.225-.032.446-.065.667-.098.098-.014.202-.028.3-.047.404-.057.808-.118 1.211-.169a125.862 125.862 0 0 1 5.324-.63c1.117-.113 2.234-.207 3.356-.291a66.2 66.2 0 0 1 1.404-.099c.164-.009.333-.024.502-.033h.038a129.506 129.506 0 0 1 5.877-.235c.361-.009.723-.014 1.079-.019.503 0 1.005-.009 1.507-.009h.085c.436 0 .873.005 1.31.009.291 0 .586.005.877.01.39.004.78.014 1.169.023a13.511 13.511 0 0 1 .667.019c.389.009.774.024 1.164.038a129.5 129.5 0 0 1 1.53.061c.747.037 1.493.08 2.24.127l1.422.098c1.155.085 2.31.184 3.464.301.573.056 1.15.117 1.728.183.577.066 1.155.136 1.732.207.573.07 1.15.146 1.728.226h.009c.577.079 1.15.164 1.723.249a96.62 96.62 0 0 1 3.079.498c.052.004.104.014.155.023a130.962 130.962 0 0 1 3.648.691h.009c.845.169 1.695.348 2.54.536.516.112 1.037.235 1.553.352l1.362.324c.328.085.657.16.981.245.009 0 .014.004.023.004l.076.019.441.113c.479.122.957.249 1.436.376a205.722 205.722 0 0 1 2.981.832c.282.079.563.164.845.249.451.131.901.267 1.347.408.967.296 1.93.607 2.892.926.385.127.765.259 1.145.39.756.259 1.507.522 2.258.794.23.08.456.165.681.249.23.085.46.169.685.254l.456.169c.056.024.117.043.174.066l.103.042c.333.127.657.254.99.381.887.343 1.77.695 2.653 1.062a99.09 99.09 0 0 1 2.642 1.123c.31.132.615.268.921.404l.694.31c.028.014.061.028.089.043.583.263 1.169.531 1.751.803.01.005.024.009.038.014.587.277 1.169.555 1.751.841a120.69 120.69 0 0 1 2.601 1.297c.319.16.633.324.953.494.549.282 1.098.573 1.647.869l.089.047c.39.211.775.418 1.16.634.164.09.329.179.493.273.206.113.418.23.624.348.061.032.122.07.183.103.427.24.85.484 1.277.728 30.828 17.819 52.37 45.552 62.923 76.857Zm-168.493-74.39v171.768l-.099-.113c-21.748-24.787-34.935-57.281-34.935-92.862 0-11.766 1.441-23.194 4.159-34.119a145.613 145.613 0 0 0 30.776-44.453c.038-.07.071-.146.099-.221Zm0-14.181v.08l-.056.028a140.6 140.6 0 0 1-27.655 47.92c5.99-17.823 15.454-34.054 27.584-47.883.01-.014.019-.023.028-.033l.071-.079c.009-.01.019-.024.028-.033Zm40.099 92.974c0 35.633-13.224 68.173-35.034 92.975V415.424l.028.032c.019.024.038.043.057.066a.215.215 0 0 1 .032.038c.005.005.01.009.014.019.015.009.019.014.029.033h.004c.287.324.568.653.85.982.315.361.629.728.939 1.099.033.038.066.08.098.118.32.38.639.761.953 1.146l.01.01c.328.394.652.794.972 1.198.323.399.647.803.962 1.208.249.314.497.634.742.949.004.004.009.014.014.019.333.427.662.855.985 1.292.123.164.245.324.371.488.235.32.474.64.709.959.7.949 1.385 1.908 2.056 2.876.301.427.596.855.887 1.287.32.466.634.931.939 1.401a.466.466 0 0 1 .052.075c.263.395.516.785.775 1.179.394.606.779 1.217 1.164 1.828.211.343.427.686.638 1.034.366.592.723 1.184 1.075 1.781.15.244.296.498.441.747l.437.747c.272.47.54.94.807 1.41.141.258.287.512.428.771.201.371.403.737.605 1.108.221.409.441.818.662 1.232.019.033.033.065.052.098a95.806 95.806 0 0 1 .77 1.48c.225.433.445.875.666 1.316.038.071.075.146.113.221.004.009.009.024.014.033a134.263 134.263 0 0 1 2.234 4.704c.179.394.352.789.531 1.184a127.604 127.604 0 0 1 1.558 3.684c.216.531.427 1.067.639 1.598.216.531.422 1.071.624 1.611.207.55.408 1.095.61 1.645s.399 1.104.592 1.659c.098.277.197.55.291.831l.282.832.281.846c.197.601.395 1.208.582 1.814.287.888.554 1.781.817 2.678.132.451.258.898.385 1.349.127.451.254.902.376 1.358.183.667.356 1.339.525 2.011.024.075.043.146.057.221.155.606.305 1.212.45 1.823.01.047.024.089.033.136l.014.061c.099.409.193.809.282 1.218.094.394.178.789.268 1.184.028.141.061.286.093.432l.183.865a142.12 142.12 0 0 1 1.404 7.814c.07.479.141.963.207 1.447.079.536.15 1.072.216 1.612.032.254.065.508.093.761.029.221.057.447.085.672.023.221.052.442.075.668.056.474.108.953.155 1.433l.141 1.433a156.543 156.543 0 0 1 .235 2.885c.018.249.037.498.051.747.01.108.014.216.024.325.042.676.084 1.362.112 2.044.024.413.043.831.057 1.245.018.418.032.832.047 1.25a122.178 122.178 0 0 1 .056 2.34c.005.268.009.536.009.803.005.489.01.982.01 1.471Zm-55.14-90.263c.075-.005.151-.014.226-.028l-148.608 85.888c.014-.042.028-.089.047-.131 10.562-31.253 32.086-58.931 62.871-76.726a140.737 140.737 0 0 1 31.597-13.453 145.374 145.374 0 0 0 53.867 4.45Zm12.492-7.114-.066.037s-.033-.014-.047-.028a1.503 1.503 0 0 1-.131.024c-.441.089-.887.173-1.329.258-.436.08-.868.164-1.305.24l-.873.155c-.404.07-.812.141-1.216.206l-.61.099c-.131.024-.268.042-.399.061-.009 0-.014.005-.023.005-.362.061-.723.113-1.085.164-.502.076-1.004.146-1.511.217a133.432 133.432 0 0 1-5.328.629 134.025 134.025 0 0 1-4.76.39c-.169.01-.338.024-.503.033h-.037a129.82 129.82 0 0 1-4.605.207c-.301.009-.606.019-.906.023h-.024c-.31.01-.624.014-.934.019-.16 0-.324.005-.488.005-.526.005-1.052.009-1.578.009h-.014a119.273 119.273 0 0 1-2.075-.019c-.342-.004-.69-.009-1.032-.018-.099 0-.197-.005-.296-.005-.46-.009-.925-.024-1.385-.038-.267-.009-.54-.018-.807-.033-.474-.018-.953-.042-1.427-.065-.474-.024-.953-.052-1.432-.08-.376-.019-.751-.047-1.131-.071-.127-.004-.254-.014-.381-.023-.075-.01-.155-.014-.239-.019-.014 0-.033-.005-.047-.005-.484-.037-.962-.07-1.446-.112a1.158 1.158 0 0 0-.136-.01c-.535-.047-1.07-.094-1.605-.146-.564-.056-1.122-.112-1.681-.173-.563-.061-1.122-.127-1.681-.193l-1.117-.141c-.375-.047-.746-.099-1.117-.15a79.483 79.483 0 0 1-1.521-.217c-.502-.075-1.009-.15-1.516-.23-.479-.08-.958-.155-1.437-.239a139.69 139.69 0 0 1-3.342-.611c-.268-.057-.535-.108-.803-.16h.005c18.425-3.717 37.198-3.632 55.233-.033.019.005.033.005.052.009.033.01.061.015.094.024h.004s.024 0 .038.005Z"/>
  <path fill="#fff" d="m409.531 415.414-.014.043c-.01.023-.019.051-.028.075a140.6 140.6 0 0 1-27.655 47.92c-9.834 11.174-21.631 20.958-35.226 28.819-30.827 17.819-65.589 22.626-97.951 16.118l160.085-92.519.704-.409.085-.047Zm-2.535-4.407s-.024.004-.038.009h-.004l-.071.014a1.503 1.503 0 0 1-.131.024c-.441.089-.887.173-1.329.258-.436.08-.868.164-1.305.24l-.873.155c-.404.07-.812.141-1.216.206l-.61.099c-.131.024-.268.042-.399.061-.009 0-.014.005-.023.005-.362.061-.723.113-1.085.164-.502.076-1.004.146-1.511.217a133.432 133.432 0 0 1-5.328.629 134.025 134.025 0 0 1-4.76.39c-.169.01-.338.024-.503.033h-.037a129.82 129.82 0 0 1-4.605.207c-.301.009-.606.019-.906.023h-.024c-.31.01-.624.014-.934.019-.16 0-.324.005-.488.005-.526.005-1.052.009-1.578.009h-.014a119.273 119.273 0 0 1-2.075-.019c-.342-.004-.69-.009-1.032-.018-.099 0-.197-.005-.296-.005-.46-.009-.925-.024-1.385-.038-.267-.009-.54-.018-.807-.033-.474-.018-.953-.042-1.427-.065-.474-.024-.953-.052-1.432-.08-.376-.019-.751-.047-1.131-.071-.127-.004-.254-.014-.381-.023-.075-.01-.155-.014-.239-.019-.014 0-.033-.005-.047-.005-.484-.037-.962-.07-1.446-.112a1.158 1.158 0 0 0-.136-.01c-.535-.047-1.07-.094-1.605-.146-.564-.056-1.122-.112-1.681-.173-.563-.061-1.122-.127-1.681-.193l-1.117-.141c-.375-.047-.746-.099-1.117-.15a79.483 79.483 0 0 1-1.521-.217c-.502-.075-1.009-.15-1.516-.23-.479-.08-.958-.155-1.437-.239a139.69 139.69 0 0 1-3.342-.611c-.268-.057-.535-.108-.803-.16-.098-.024-.202-.042-.305-.066h-.009c-.737-.155-1.479-.31-2.216-.474h-.005c-.741-.165-1.478-.334-2.215-.508-.005-.005-.01 0-.01 0a198.12 198.12 0 0 1-2.211-.55c-.554-.141-1.108-.291-1.657-.437-.549-.15-1.103-.3-1.652-.456a70.963 70.963 0 0 1-1.103-.314h-.005a137.222 137.222 0 0 1-6.582-2.096c-.727-.249-1.45-.508-2.178-.771h-.004c-.723-.268-1.446-.535-2.169-.813h-.005c-.615-.239-1.225-.479-1.84-.723l-.07-.029c-.625-.249-1.249-.502-1.873-.765-.315-.127-.63-.259-.944-.395a142.797 142.797 0 0 1-4.948-2.218c-.512-.24-1.019-.484-1.526-.729-.375-.187-.751-.371-1.126-.559a107.82 107.82 0 0 1-2.643-1.348h-.005c-.436-.231-.873-.461-1.305-.696-.436-.235-.873-.47-1.309-.709-.437-.24-.874-.484-1.305-.729-.437-.244-.869-.493-1.301-.742h-.005c-.3-.179-.6-.352-.896-.526l-.897-.531c-.558-.334-1.117-.672-1.671-1.015l-.183-.113c-.427-.263-.85-.531-1.272-.794l-.183-.113c-.038-.028-.08-.052-.118-.075l-.154-.099-.038-.023c-.549-.353-1.098-.71-1.643-1.067a186.58 186.58 0 0 1-1.638-1.095 128.235 128.235 0 0 1-2.714-1.889 97.266 97.266 0 0 1-1.108-.799c-.417-.3-.835-.611-1.248-.916a137.616 137.616 0 0 1-5.112-3.994h-.005a130.208 130.208 0 0 1-3.685-3.13c-.404-.352-.803-.709-1.202-1.066a105.466 105.466 0 0 1-2.356-2.171h-.005c-.291-.273-.582-.55-.868-.827-.292-.278-.578-.555-.864-.832a99.575 99.575 0 0 1-1.695-1.682 22.856 22.856 0 0 1-.558-.564c-.188-.188-.371-.381-.559-.569v-.005a150.874 150.874 0 0 1-1.915-2.015c-.315-.339-.629-.677-.939-1.02-.31-.343-.62-.681-.93-1.024-.31-.343-.615-.691-.92-1.039-.305-.348-.605-.695-.906-1.043-.3-.348-.601-.7-.896-1.053-.301-.352-.592-.705-.888-1.057v-.005c-.291-.352-.582-.709-.873-1.066a112.88 112.88 0 0 1-1.708-2.157 98.686 98.686 0 0 1-.841-1.09 97.978 97.978 0 0 1-.826-1.095 86.988 86.988 0 0 1-.817-1.105 169.1 169.1 0 0 1-1.601-2.232 123.384 123.384 0 0 1-1.769-2.584c-.578-.869-1.15-1.739-1.709-2.617a151.664 151.664 0 0 1-1.648-2.651 166.83 166.83 0 0 1-1.586-2.683 150.735 150.735 0 0 1-1.526-2.716c-.498-.911-.986-1.828-1.465-2.744-.22-.428-.441-.855-.657-1.283l-.225-.451c-.24-.489-.484-.973-.723-1.461-.028-.052-.052-.108-.08-.16a5.126 5.126 0 0 0-.108-.226c-.263-.549-.526-1.094-.779-1.644a17.537 17.537 0 0 1-.207-.442 14.186 14.186 0 0 0-.202-.437c-.136-.296-.267-.592-.403-.883-.423-.945-.841-1.894-1.244-2.843-.15-.357-.301-.715-.451-1.076a105.546 105.546 0 0 1-.873-2.153c-.141-.357-.282-.719-.423-1.08a132.82 132.82 0 0 1-.821-2.176c-.268-.728-.53-1.452-.784-2.185-.169-.489-.338-.977-.502-1.466l160.104 92.528h.004l.686.4.08.047h-.005Z"/>
</svg>
