<svg width="500" height="688" viewBox="0 0 500 688" fill="none" xmlns="http://www.w3.org/2000/svg">
<g clip-path="url(#clip0_15_37)" fill="#000">
<path fill-rule="evenodd" clip-rule="evenodd" d="M363.357 263.574C364.611 289.872 363.725 289.876 362.498 294.661C359.497 306.379 367.523 301.831 369.141 302.458C373.407 304.107 373.248 305.237 371.495 309.445C364.495 326.208 351.503 341.837 349.385 344.38C341.848 353.447 341.209 355.146 334.357 360.23C323.951 367.953 325.484 371.371 300.258 381.336C295.098 383.372 289.806 382.145 284.049 383.198C282.741 383.434 281.467 383.833 280.159 384.077C271.94 385.61 269.261 382.73 266.648 390.635C265.3 394.711 265.761 394.789 264.375 398.858C260.573 410.015 253.779 418.478 249.575 417.022C245.119 415.477 237.028 404.881 234.957 394.831C233.408 387.309 233.923 384.94 226.2 385.111C221.252 385.223 221.276 386.435 214.439 385.018C213.816 384.89 209.062 383.903 206.565 383.93C201.149 383.984 196.368 387.995 171.44 372.358C143.729 354.976 127.438 326.615 124.698 321.841C120.443 314.436 120.362 314.467 120.311 314.018C120.153 312.55 120.954 311.133 121.237 309.686C121.368 309.008 120.896 307.82 121.562 307.645C122.835 307.312 124.163 308.129 125.391 308.602C128.077 309.624 130.551 311.16 133.261 312.113C136.54 313.266 136.54 312.163 137.891 310.847C139.064 309.709 140.33 309.724 139.265 306.48C138.766 304.947 137.748 303.627 137.132 302.136C131.376 288.103 138.696 269.292 129.684 259.184C127.013 256.184 122.143 251.728 128.011 246.73C133.513 242.046 140.129 244.779 143.818 239.773C144.739 238.519 144.507 238.43 147.914 220.75C150.845 205.528 136.737 200.955 148.901 194.622C153.976 191.978 158.94 196.105 162.791 185.675C163.426 183.96 168.297 170.775 166.527 163.152C165.099 156.985 157.693 145.003 179.264 148.716C184.208 149.564 187.955 149.889 190.247 139.39C193.239 125.678 179.632 116.584 194.788 114.66C205.891 113.254 211.16 120.838 214.311 121.082C219.038 121.45 218.883 120.161 220.312 115.655C229.308 87.2624 225.914 77.2666 224.841 74.0998C221.798 65.1416 220.052 66.1249 219.828 65.3506C217.896 58.7462 225.309 59.1488 226.006 59.1836C251.696 60.5812 267.948 90.3091 271.738 104.923C273.48 111.628 272.737 112.023 274.951 114.18C278.792 117.919 279.361 115.244 284.231 112.933C290.301 110.061 301.799 109.441 299.635 120.258C299.411 121.369 295.884 128.736 299.821 139.471C304.23 151.499 317.227 138.426 324.265 146.087C330.273 152.626 318.949 155.123 326.27 174.569C329.851 184.092 331.341 187.553 338.283 188.42C339.599 188.587 340.942 188.242 342.258 188.374C353.803 189.551 348.898 199.841 348.418 200.843C343.795 210.549 347.191 213.971 350.489 228.508C351.921 234.814 351.015 236.463 357.306 237.776C358.592 238.043 359.943 237.834 361.236 238.047C362.312 238.225 373.136 239.998 371.185 247.338C371.038 247.884 370.871 247.752 367.054 253.052C364.337 256.823 365.084 257.117 363.357 263.574ZM320.436 274.82C320.037 273.191 316.696 256.033 311.501 243.95C305.191 229.286 305.465 229.201 304.861 227.954C304.014 226.212 295.392 208.462 294.138 206.251C273.767 170.329 260.914 153.776 256.648 147.558C252.208 141.093 249.807 135.77 245.351 135.937C241.712 136.072 240.59 138.616 234.527 147.81C215.132 177.228 202.237 204.56 199.817 209.693C172.234 268.15 177.053 292.338 178.095 310.018C178.645 319.356 181.978 330.877 184.982 336.134C187.026 339.715 195.957 367.004 253.082 364.178C278.858 362.901 289.256 358.472 292.179 357.229C296.283 355.479 318.063 346.204 321.508 309.775C323.444 289.334 322.426 289.206 320.436 274.82ZM257.101 283.419C258.425 281.885 259.246 282.598 260.891 279.021C267.015 265.703 280.007 267.244 291.896 263.814C301.679 260.996 303.135 265.603 299.922 275.219C297.177 283.442 288.029 291.761 286.384 292.706C278.145 297.433 256.598 303.917 254.964 310.82C254.557 312.527 254.379 320.405 254.515 320.645C254.944 321.408 256.214 321.164 256.934 321.656C257.833 322.267 258.22 324.048 259.296 323.909C261.518 323.618 257.004 315.218 276.585 307.03C283.995 303.929 284.518 305.795 291.997 302.884C295.973 301.339 295.915 300.476 300.076 301.412C304.83 302.481 300.533 315.914 297.777 320.386C289.775 333.374 271.429 340.346 268.75 341.365C256.903 345.867 253.268 350.071 226.847 339.096C224.009 337.919 204.815 327.819 201.029 314.277C196.542 298.219 210.018 304.947 214.404 305.745C217.919 306.379 232.328 307.576 241.155 318.206C241.647 318.799 241.6 320.188 242.37 320.173C249.056 320.061 246.11 310.522 245.851 309.674C243.245 301.242 216.092 299.709 206.712 286.639C205.353 284.75 200.169 278.85 199.341 271.189C198.11 259.819 208.701 265.978 214.443 266.698C219.983 267.391 228.856 267.461 237.338 275.513C240.636 278.645 240.539 279.222 241.499 278.831C246.11 276.953 244.469 268.564 244.291 267.658C242.487 258.445 226.68 259.788 215.786 246.858C212.716 243.219 207.087 231.516 218.256 232.189C230.114 232.902 235.689 237.071 236.943 238.012C240.017 240.308 240.95 241.233 243.06 238C247.094 231.825 234.326 226.053 238.259 209.426C243.129 188.869 244.36 188.378 246.075 187.688C250.442 185.935 252.804 193.108 253.036 193.813C259.083 212.171 262.509 217.904 255.769 227.962C255.258 228.724 250.806 235.372 254.004 239.282C257.089 243.056 257.972 240.815 261.572 237.52C267.515 232.085 268.25 233.513 276.163 231.771C278.776 231.194 281.304 229.688 283.972 229.897C292.462 230.567 284.808 243.246 284.216 244.225C276.825 256.474 258.506 259.598 256.543 263.079C253.373 268.696 253.721 280.476 254.364 281.409C255.01 282.338 256.454 282.489 257.101 283.419Z"/>
<path fill-rule="evenodd" clip-rule="evenodd" d="M254.767 584.545C255.956 579.311 255.719 579.315 256.846 574.07C258.302 567.287 260.257 566.826 263.075 561.879C270.841 548.24 271.352 548.333 290.542 535.271C294.096 532.852 310.39 519.875 313.565 515.551C317.955 509.562 319.403 505.926 320.154 496.105C321.393 479.876 313.217 476.477 314.076 472.958C314.281 472.11 315.466 471.909 316.139 471.363C316.708 470.903 317.359 469.308 325.067 472.788C336.282 477.848 348.844 498.362 339.526 518.845C322.732 555.77 297.251 545.747 279.834 566.59C279.269 567.268 274.038 573.528 275.955 576.892C277.457 579.532 281.634 577.074 282.056 576.826C282.439 576.598 303.821 547.892 322.345 568.619C328.431 575.425 329.174 584.286 325.694 585.989C315.435 591.018 309.674 576.106 282.439 588.963C264.445 597.456 265.525 608.702 262.819 654.791C261.654 674.709 263.598 685.97 255.131 687.751C254.214 687.945 246.905 689.481 245.07 681.677C244.125 677.662 242.313 612.531 235.271 601.029C226.332 586.423 204.947 583.148 197.263 585.01C193.631 585.893 182.811 590.538 178.769 587.867C171.232 582.885 184.545 558.069 201.041 562.982C215.531 567.299 220.324 577.635 224.397 577.674C225.469 577.685 233.506 575.862 221.687 564.55C205.81 549.347 182.397 553.246 166.83 526.743C157.581 510.994 156.223 483.326 181.7 472.37C182.215 472.149 187.243 469.989 188.645 473.376C190.348 477.499 180.345 481.347 182.637 499.934C184.863 517.959 199.461 526.514 223.835 543.382C228.539 546.637 233.552 547.501 242.298 562.583C252.673 580.473 246.401 586.857 251.484 586.969C252.843 587 253.404 584.514 254.767 584.545Z"/>
<path fill-rule="evenodd" clip-rule="evenodd" d="M216.84 473.001C212.02 472.3 211.439 473.489 208.017 470.062C193.12 455.162 197.409 438.534 177.848 434.946C168.874 433.3 168.181 434.717 164.979 431.256C162.177 428.229 164.186 419.94 154.577 411.021C139.018 396.569 127.516 417.9 99.6662 396.515C90.6421 389.585 91.7417 388.138 81.5756 382.969C72.0289 378.115 80.7159 372.973 81.4321 372.552C90.5491 367.159 93.3443 368.971 103.929 377.255C104.525 377.72 114.567 385.586 113.293 375.896C112.875 372.706 111.66 373.57 109.12 371.576C92.5701 358.599 90.6693 350.276 89.8137 348.526C88.7375 346.335 81.6451 331.868 85.9849 318.252C88.7955 309.437 98.5821 300.986 101.021 299.457C108.516 294.753 116.41 295.775 116.677 298.187C117.172 302.639 112.074 306.123 110.785 309.681C106.906 320.374 108.423 331.531 108.682 333.42C112.53 361.708 142.99 378.3 159.343 390.449C176.187 402.961 180.058 402.957 191.378 417.234C194.068 420.63 202.794 431.636 216.611 465.119C218.659 470.082 216.816 472.277 216.84 473.001Z"/>
<path fill-rule="evenodd" clip-rule="evenodd" d="M338.941 424.71C337.788 426.045 339.162 431.063 328.574 432.332C303.852 435.29 309.419 453.752 294.227 469.184C291.192 472.265 291.154 473.272 287.008 472.06C279.985 470.008 299.539 433.056 301.204 429.909C321.354 391.831 364.113 381.583 385.657 348.12C392.3 337.799 395.532 314.4 386.036 303.135C383.074 299.627 382.006 299.55 383.434 295.148C385.165 289.802 418.063 298.404 414.808 329.677C413.774 339.572 406.492 354.039 405.04 355.943C404.243 356.985 401.266 360.895 393.38 367.441C389.187 370.922 388.827 370.581 387.929 372.54C387.507 373.469 387.712 374.704 388.219 375.587C390.651 379.799 396.837 374.762 397.414 374.294C403.333 369.47 402.563 367.619 410.201 366.884C415.83 366.342 422.086 370.279 422.546 371.816C424.625 378.773 416.089 380.79 415.102 381.463C409.906 385.002 405.807 391.486 398.784 395.714C389.292 401.424 387.194 405.233 367.539 403.824C363.536 403.538 356.92 402.469 351.306 405.744C350.714 406.085 346.959 408.276 344.628 411.071C339.793 416.863 340.416 417.258 338.941 424.71Z"/>
<path fill-rule="evenodd" clip-rule="evenodd" d="M270.365 457.55C271.336 459.834 271.812 459.49 272.8 461.813C272.916 462.084 273.195 462.734 273.686 465.355C276.845 482.087 269.842 481.096 257.605 506.314C255.534 510.584 250.71 512.523 248.019 507.39C237.528 487.352 224.989 477.329 233.277 461.697C239.793 449.409 239.456 449.277 247.563 437.961C247.973 437.388 251.473 432.503 256.254 436.63C260.733 440.497 262.479 444.876 265.766 450.512C267.895 454.167 268.05 454.008 270.365 457.55Z"/>
<path fill-rule="evenodd" clip-rule="evenodd" d="M166.431 463.129C162.742 463.892 153.748 463.621 148.836 473.88C145.944 479.919 144.562 480.763 138.693 477.523C129.591 472.498 133.741 442.866 158.41 440.718C161.793 440.424 161.696 440.834 173.763 442.851C189.132 445.418 193.085 461.232 174.205 462.773C171.619 462.986 169.017 462.916 166.431 463.129Z"/>
<path fill-rule="evenodd" clip-rule="evenodd" d="M365.088 452.851C365.417 453.636 372.521 465.912 364.922 474.147C364.434 474.673 360.172 479.292 356.219 476.318C351.694 472.912 355.418 469.273 345.201 463.462C335.895 458.17 323.402 463.179 317.27 457.388C315.113 455.355 313.813 445.201 325.082 441.984C356.494 433.022 362.696 448.588 365.088 452.851Z"/>
<path fill-rule="evenodd" clip-rule="evenodd" d="M231.88 526.499C231.744 526.514 228.717 529.069 224.222 527.424C218.315 525.268 214.405 512.477 213.832 511.106C205.953 492.295 194.467 502.388 192.706 496.902C188.869 484.928 199.86 479.648 208.911 481.115C223.607 483.5 223.34 484.983 228.55 491.951C243.703 512.202 233.138 524.4 231.88 526.499Z"/>
<path fill-rule="evenodd" clip-rule="evenodd" d="M271.259 525.651C270.674 524.559 271.108 524.485 270.566 523.471C269.316 521.129 269.033 521.4 267.786 519.151C267.198 518.09 264.178 512.635 268.293 503.991C273.605 492.834 274.319 493.534 274.779 492.57C275.132 491.827 275.706 491.038 276.094 490.31C276.674 489.218 277.194 488.381 277.941 487.394C278.382 486.814 279.206 486.147 279.721 485.632C286.592 478.756 308.098 476.446 310.541 488.018C311.834 494.158 311.981 495.795 305.849 497.061C304.645 497.305 303.368 497.104 302.191 497.448C287.882 501.645 290.557 516.135 283.059 523.762C276.597 530.335 271.429 525.678 271.259 525.651Z"/>
<path fill-rule="evenodd" clip-rule="evenodd" d="M344.69 426.034C346.041 423.974 346.537 424.485 347.873 422.457C348.778 421.075 348.174 420.866 349.034 419.426C353.23 412.384 362.638 412.689 363.946 412.732C385.293 413.433 391.874 415.558 394.193 416.309C407.77 420.695 404.08 428.798 390.693 433.734C380.388 437.536 372.692 435.139 364.031 432.878C349.293 429.026 349.262 429.112 344.69 426.034Z"/>
<path fill-rule="evenodd" clip-rule="evenodd" d="M131.306 436.966C121.671 438.128 113.967 441.194 102.837 431.744C95.3459 425.383 99.1785 422.403 108.435 419.139C121.384 414.571 121.659 416.15 135.344 415.004C137.114 414.857 152.34 413.588 154.426 426.297C155.324 431.744 152.134 430.006 142.863 433.513C137.183 435.662 137.179 435.472 131.306 436.966Z"/>
<path fill-rule="evenodd" clip-rule="evenodd" d="M211.927 392.907C213.657 393.581 215.384 394.258 217.11 394.932C217.722 395.52 218.694 395.632 219.305 396.217C223.374 400.108 226.417 413.448 226.777 415.028C230.625 431.914 234.353 450.946 227.625 454.585C226.963 454.941 225.786 455.018 224.102 445.874C223.82 444.337 222.557 437.489 219.034 427.04C214.428 413.371 206.418 410.684 202.241 406.093C197.367 400.735 200.619 396.101 201.11 395.396C201.219 395.241 205.702 392.458 205.876 392.435C205.876 392.435 211.443 392.868 211.927 392.907Z"/>
<path fill-rule="evenodd" clip-rule="evenodd" d="M276.369 450.768C275.049 448.72 272.381 447.798 271.065 445.751C269.42 443.195 272.223 423.397 274.646 414.764C277.882 403.22 280.24 392.841 290.217 391.656C291.339 391.521 302.833 390.154 302.063 399.322C301.784 402.651 295.776 407.722 295.079 408.311C279.621 421.361 281.425 431.74 277.244 449.08C277.093 449.695 276.516 450.148 276.369 450.768Z"/>
<path fill-rule="evenodd" clip-rule="evenodd" d="M239.638 530.908C241.066 528.442 240.954 528.458 242.452 526.054C248.29 516.673 259.567 521.543 261.902 525.066C262.324 525.705 262.262 526.572 262.641 527.234C263.342 528.454 264.407 529.445 265.104 530.664C265.27 537.95 265.382 537.911 265.282 538.531C264.225 544.977 254.12 561.294 251.79 560.903C250.311 560.651 250.954 559.959 244.934 549.777C236.773 535.972 239.665 534.009 239.638 530.908Z"/>
<path fill-rule="evenodd" clip-rule="evenodd" d="M115.534 605.357C116.789 631.655 115.902 631.658 114.675 636.443C111.675 648.162 119.7 643.613 121.318 644.24C125.584 645.889 125.426 647.02 123.672 651.228C116.672 667.991 103.68 683.619 101.563 686.163C94.0252 695.23 93.3866 696.929 86.5343 702.012C76.1282 709.735 77.6611 713.154 52.4355 723.119C47.275 725.155 41.9831 723.928 36.2265 724.981C34.918 725.217 33.6443 725.616 32.3358 725.859C24.117 727.392 21.438 724.512 18.8249 732.417C17.4777 736.494 17.9382 736.571 16.5523 740.64C12.7506 751.797 5.95647 760.26 1.75221 758.804C-2.70369 757.26 -10.7948 746.664 -12.8659 736.614C-14.4145 729.092 -13.8994 726.723 -21.6227 726.893C-26.5703 727.005 -26.5471 728.217 -33.3839 726.8C-34.0072 726.672 -38.7612 725.685 -41.2582 725.712C-46.6741 725.767 -51.4552 729.777 -76.3827 714.141C-104.094 696.759 -120.384 668.397 -123.125 663.624C-127.38 656.218 -127.461 656.249 -127.511 655.8C-127.67 654.333 -126.869 652.916 -126.586 651.468C-126.454 650.791 -126.927 649.602 -126.261 649.428C-124.987 649.095 -123.659 649.912 -122.432 650.384C-119.745 651.406 -117.272 652.943 -114.562 653.895C-111.283 655.049 -111.283 653.946 -109.932 652.629C-108.759 651.491 -107.493 651.507 -108.557 648.263C-109.057 646.73 -110.075 645.409 -110.69 643.919C-116.447 629.885 -109.126 611.075 -118.139 600.967C-120.81 597.966 -125.68 593.51 -119.811 588.513C-114.31 583.828 -107.694 586.561 -104.005 581.556C-103.083 580.301 -103.316 580.212 -99.9088 562.532C-96.9783 547.31 -111.085 542.738 -98.9216 536.404C-93.8463 533.76 -88.8832 537.887 -85.0313 527.458C-84.3964 525.743 -79.5262 512.557 -81.2953 504.934C-82.7239 498.767 -90.1298 486.786 -68.5588 490.498C-63.6151 491.346 -59.8677 491.671 -57.5759 481.172C-54.5834 467.46 -68.1909 458.366 -53.0347 456.442C-41.9317 455.037 -36.663 462.621 -33.5117 462.865C-28.7848 463.233 -28.9397 461.943 -27.5112 457.437C-18.5143 429.045 -21.9092 419.049 -22.9816 415.882C-26.0245 406.924 -27.7706 407.907 -27.9951 407.133C-29.9269 400.529 -22.5133 400.931 -21.8165 400.966C3.87365 402.364 20.1254 432.092 23.9154 446.706C25.6575 453.411 24.9143 453.806 27.1287 455.962C30.9691 459.702 31.5383 457.027 36.4084 454.716C42.4787 451.843 53.9765 451.224 51.8124 462.04C51.5879 463.151 48.061 470.518 51.9982 481.254C56.4076 493.282 69.4037 480.208 76.4418 487.87C82.4501 494.408 71.1265 496.905 78.4472 516.351C82.0281 525.875 83.5185 529.335 90.4598 530.203C91.776 530.369 93.1193 530.025 94.4355 530.156C105.98 531.333 101.075 541.623 100.595 542.626C95.9725 552.331 99.3677 555.753 102.666 570.29C104.099 576.597 103.193 578.246 109.483 579.558C110.769 579.825 112.12 579.616 113.413 579.829C114.489 580.007 125.313 581.78 123.362 589.12C123.215 589.666 123.049 589.535 119.231 594.834C116.514 598.605 117.261 598.899 115.534 605.357ZM72.613 616.603C72.2143 614.973 68.8734 597.815 63.6781 585.733C57.3678 571.068 57.6426 570.983 57.0386 569.737C56.1908 567.995 47.5693 550.244 46.315 548.034C25.9441 512.112 13.0914 495.558 8.82522 489.341C4.38481 482.876 1.98446 477.553 -2.47143 477.719C-6.11048 477.855 -7.23323 480.398 -13.2957 489.592C-32.6911 519.011 -45.5862 546.342 -48.0058 551.476C-75.589 609.933 -70.7693 634.121 -69.7279 651.801C-69.1782 661.139 -65.845 672.66 -62.8409 677.917C-60.7968 681.498 -51.8656 708.787 5.25965 705.961C31.0349 704.683 41.4333 700.254 44.3562 699.012C48.4598 697.262 70.2398 687.986 73.6853 651.557C75.6209 631.117 74.6029 630.989 72.613 616.603ZM9.27819 625.201C10.6022 623.668 11.4229 624.38 13.0682 620.803C19.1927 607.486 32.1847 609.027 44.0736 605.597C53.8564 602.778 55.312 607.385 52.0988 617.002C49.3541 625.224 40.2061 633.544 38.5607 634.488C30.3226 639.215 8.77489 645.7 7.14119 652.602C6.73471 654.31 6.55652 662.188 6.69202 662.428C7.12173 663.19 8.39154 662.947 9.11161 663.438C10.0098 664.05 10.3968 665.831 11.473 665.691C13.6952 665.401 9.18123 657 28.7624 648.812C36.1721 645.711 36.6948 647.577 44.1742 644.666C48.1501 643.121 48.0919 642.258 52.2536 643.195C57.0076 644.264 52.7104 657.697 49.954 662.168C41.952 675.157 23.6058 682.129 20.9269 683.147C9.08063 687.649 5.44556 691.854 -20.9762 680.878C-23.8139 679.702 -43.008 669.601 -46.7941 656.059C-51.281 640.001 -37.8051 646.73 -33.4189 647.527C-29.9037 648.162 -15.4945 649.358 -6.66787 659.989C-6.17622 660.581 -6.22281 661.971 -5.45242 661.955C1.23336 661.843 -1.71253 652.304 -1.97191 651.456C-4.57732 643.025 -31.731 641.492 -41.1112 628.422C-42.47 626.533 -47.6537 620.633 -48.4822 612.972C-49.7132 601.601 -39.1213 607.761 -33.3801 608.481C-27.8403 609.174 -18.9672 609.243 -10.4851 617.296C-7.18673 620.428 -7.28346 621.005 -6.32337 620.614C-1.71262 618.736 -3.35403 610.347 -3.53211 609.441C-5.33615 600.227 -21.1427 601.57 -32.0366 588.64C-35.1066 585.001 -40.7355 573.298 -29.5667 573.972C-17.7088 574.684 -12.1342 578.854 -10.8799 579.794C-7.8061 582.09 -6.87303 583.015 -4.76316 579.783C-0.72924 573.608 -13.4968 567.836 -9.56357 551.208C-4.69344 530.652 -3.46244 530.16 -1.74744 529.471C2.61941 527.717 4.98082 534.891 5.2131 535.595C11.2601 553.953 14.6862 559.687 7.94623 569.744C7.43521 570.507 2.98321 577.154 6.18092 581.064C9.26637 584.839 10.1491 582.597 13.7494 579.303C19.6919 573.867 20.4274 575.296 28.3404 573.554C30.9535 572.977 33.4816 571.471 36.149 571.68C44.6388 572.35 36.9851 585.028 36.3928 586.008C29.0025 598.257 10.6833 601.381 8.72054 604.861C5.54992 610.478 5.89839 622.259 6.54103 623.192C7.18754 624.121 8.63167 624.272 9.27819 625.201Z"/>
<path fill-rule="evenodd" clip-rule="evenodd" d="M6.94445 926.328C8.13295 921.094 7.89674 921.098 9.02329 915.852C10.4789 909.07 12.434 908.609 15.2523 903.661C23.0182 890.023 23.5291 890.115 42.7192 877.054C46.2731 874.634 62.5676 861.657 65.7421 857.333C70.1322 851.344 71.5799 847.709 72.3309 837.887C73.5698 821.659 65.3938 818.26 66.2532 814.741C66.4584 813.893 67.6428 813.692 68.3164 813.146C68.8855 812.685 69.536 811.09 77.2438 814.57C88.4591 819.63 101.021 840.144 91.7032 860.628C74.9094 897.552 49.4283 887.529 32.0112 908.373C31.446 909.05 26.2157 915.31 28.1321 918.674C29.6341 921.315 33.8112 918.856 34.2332 918.608C34.6165 918.38 55.998 889.674 74.5223 910.401C80.608 917.207 81.3513 926.069 77.8709 927.772C67.6119 932.801 61.8512 917.888 34.6165 930.745C16.6226 939.239 17.7027 950.485 14.9966 996.573C13.8314 1016.49 15.7749 1027.75 7.30833 1029.53C6.39082 1029.73 -0.918232 1031.26 -2.75324 1023.46C-3.69784 1019.44 -5.50965 954.314 -12.5516 942.812C-21.4905 928.205 -42.8757 924.93 -50.5602 926.792C-54.1915 927.675 -65.012 932.321 -69.0537 929.649C-76.5912 924.667 -63.2777 899.852 -46.782 904.765C-32.2916 909.081 -27.4989 919.418 -23.4262 919.456C-22.3539 919.468 -14.3171 917.645 -26.1362 906.333C-42.0125 891.13 -65.4262 895.028 -80.9928 868.525C-90.2414 852.777 -91.6002 825.108 -66.123 814.152C-65.6082 813.932 -60.5793 811.771 -59.1779 815.159C-57.4745 819.282 -67.478 823.13 -65.1862 841.716C-62.9602 859.741 -48.3615 868.297 -23.9876 885.164C-19.284 888.42 -14.2705 889.283 -5.52513 904.366C4.85003 922.255 -1.42157 928.639 3.66148 928.751C5.02032 928.782 5.58174 926.297 6.94445 926.328Z"/>
<path fill-rule="evenodd" clip-rule="evenodd" d="M-30.9831 814.783C-35.8029 814.083 -36.3838 815.271 -39.806 811.845C-54.7029 796.944 -50.4133 780.317 -69.9751 776.728C-78.9489 775.083 -79.6417 776.5 -82.8433 773.039C-85.6462 770.011 -83.637 761.723 -93.2456 752.803C-108.804 738.352 -120.306 759.683 -148.157 738.298C-157.181 731.368 -156.081 729.92 -166.247 724.752C-175.794 719.897 -167.107 714.756 -166.391 714.334C-157.274 708.941 -154.478 710.753 -143.894 719.038C-143.298 719.502 -133.256 727.369 -134.529 717.679C-134.948 714.489 -136.163 715.352 -138.703 713.358C-155.253 700.382 -157.153 692.058 -158.009 690.309C-159.085 688.117 -166.178 673.65 -161.838 660.035C-159.027 651.22 -149.241 642.769 -146.802 641.24C-139.307 636.536 -131.413 637.558 -131.146 639.97C-130.651 644.422 -135.749 647.906 -137.038 651.464C-140.917 662.156 -139.4 673.313 -139.14 675.203C-135.292 703.49 -104.833 720.083 -88.4802 732.231C-71.6361 744.743 -67.7646 744.739 -56.4449 759.017C-53.7543 762.412 -45.0283 773.418 -31.2116 806.901C-29.1636 811.864 -31.0063 814.059 -30.9831 814.783Z"/>
<path fill-rule="evenodd" clip-rule="evenodd" d="M91.1185 766.492C89.9649 767.828 91.3393 772.845 80.7512 774.115C56.0289 777.073 61.5958 795.535 46.4047 810.966C43.3696 814.048 43.331 815.054 39.1848 813.843C32.1622 811.791 51.7162 774.839 53.3809 771.692C73.5311 733.613 116.29 723.366 137.834 689.902C144.477 679.581 147.709 656.183 138.213 644.917C135.252 641.41 134.183 641.332 135.612 636.931C137.342 631.584 170.241 640.186 166.985 671.459C165.951 681.354 158.669 695.821 157.217 697.726C156.42 698.767 153.443 702.677 145.557 709.224C141.365 712.704 141.004 712.364 140.106 714.322C139.684 715.252 139.889 716.486 140.397 717.369C142.828 721.581 149.014 716.545 149.591 716.076C155.51 711.252 154.74 709.402 162.378 708.666C168.007 708.124 174.263 712.062 174.724 713.598C176.803 720.555 168.266 722.572 167.279 723.246C162.084 726.784 157.984 733.269 150.961 737.496C141.469 743.206 139.371 747.016 119.716 745.607C115.713 745.32 109.097 744.252 103.483 747.527C102.891 747.867 99.136 750.059 96.8055 752.854C91.9702 758.645 92.5935 759.04 91.1185 766.492Z"/>
<path fill-rule="evenodd" clip-rule="evenodd" d="M22.542 799.333C23.5137 801.617 23.9897 801.272 24.9769 803.595C25.093 803.866 25.3718 804.517 25.8634 807.137C29.0224 823.869 22.0192 822.878 9.78199 848.096C7.71083 852.366 2.8871 854.306 0.196532 849.172C-10.2948 829.134 -22.8339 819.112 -14.5454 803.479C-8.02996 791.192 -8.36675 791.06 -0.260199 779.744C0.150162 779.171 3.64981 774.285 8.4309 778.412C12.91 782.28 14.6561 786.658 17.9429 792.295C20.0721 795.949 20.2269 795.791 22.542 799.333Z"/>
<path fill-rule="evenodd" clip-rule="evenodd" d="M-81.3917 804.911C-85.0811 805.674 -94.0744 805.403 -98.9871 815.662C-101.879 821.701 -103.261 822.545 -109.13 819.305C-118.231 814.28 -114.081 784.649 -89.4132 782.5C-86.0297 782.206 -86.1264 782.617 -74.0595 784.633C-58.6904 787.2 -54.7377 803.014 -73.6181 804.555C-76.2042 804.768 -78.8057 804.699 -81.3917 804.911Z"/>
<path fill-rule="evenodd" clip-rule="evenodd" d="M117.266 794.633C117.595 795.419 124.699 807.695 117.099 815.929C116.611 816.456 112.349 821.074 108.396 818.101C103.871 814.694 107.595 811.055 97.3787 805.244C88.072 799.952 75.5791 804.962 69.447 799.17C67.2906 797.138 65.9899 786.983 77.2593 783.766C108.671 774.804 114.873 790.371 117.266 794.633Z"/>
<path fill-rule="evenodd" clip-rule="evenodd" d="M-15.9431 868.281C-16.0786 868.297 -19.1059 870.852 -23.6005 869.206C-29.5081 867.05 -33.4182 854.259 -33.9912 852.889C-41.8693 834.078 -53.3554 844.171 -55.1169 838.685C-58.9534 826.711 -47.9628 821.43 -38.9116 822.898C-24.2161 825.282 -24.4832 826.765 -19.2724 833.733C-4.12003 853.984 -14.6849 866.183 -15.9431 868.281Z"/>
<path fill-rule="evenodd" clip-rule="evenodd" d="M23.436 867.433C22.8514 866.342 23.2852 866.268 22.7432 865.254C21.4927 862.912 21.2101 863.183 19.9635 860.933C19.3751 859.873 16.3554 854.418 20.4706 845.773C25.782 834.616 26.496 835.317 26.9567 834.353C27.309 833.61 27.8837 832.821 28.2708 832.093C28.8515 831.001 29.3708 830.164 30.1179 829.177C30.5593 828.596 31.383 827.929 31.8979 827.414C38.7695 820.539 60.2756 818.229 62.7184 829.8C64.0115 835.94 64.1587 837.578 58.0265 838.844C56.8225 839.087 55.5449 838.886 54.3681 839.231C40.0596 843.427 42.7347 857.918 35.2359 865.544C28.7747 872.118 23.6063 867.46 23.436 867.433Z"/>
<path fill-rule="evenodd" clip-rule="evenodd" d="M96.8675 767.816C98.2185 765.757 98.7142 766.268 100.05 764.239C100.956 762.857 100.352 762.648 101.211 761.208C105.408 754.166 114.815 754.472 116.123 754.514C137.47 755.215 144.051 757.341 146.37 758.092C159.947 762.478 156.257 770.581 142.87 775.516C132.565 779.318 124.869 776.922 116.209 774.661C101.471 770.809 101.439 770.894 96.8675 767.816Z"/>
<path fill-rule="evenodd" clip-rule="evenodd" d="M-116.516 778.749C-126.152 779.91 -133.856 782.976 -144.986 773.527C-152.477 767.166 -148.644 764.185 -139.388 760.922C-126.438 756.353 -126.164 757.933 -112.478 756.787C-110.709 756.64 -95.4832 755.37 -93.3966 768.08C-92.4984 773.527 -95.6884 771.788 -104.96 775.296C-110.639 777.444 -110.644 777.255 -116.516 778.749Z"/>
<path fill-rule="evenodd" clip-rule="evenodd" d="M-35.896 734.689C-34.1656 735.363 -32.439 736.041 -30.7124 736.714C-30.1007 737.303 -29.1289 737.415 -28.5173 737.999C-24.4485 741.89 -21.4057 755.231 -21.0456 756.81C-17.1975 773.697 -13.4695 792.728 -20.1978 796.367C-20.8598 796.724 -22.0366 796.801 -23.7206 787.657C-24.0032 786.12 -25.2654 779.272 -28.7883 768.823C-33.3952 755.153 -41.4047 752.467 -45.5819 747.875C-50.4559 742.517 -47.2042 737.883 -46.7125 737.179C-46.6041 737.024 -42.1211 734.24 -41.9469 734.217C-41.9469 734.217 -36.3799 734.651 -35.896 734.689Z"/>
<path fill-rule="evenodd" clip-rule="evenodd" d="M28.546 792.55C27.2259 790.502 24.5586 789.581 23.2423 787.533C21.597 784.978 24.3998 765.18 26.8232 756.547C30.0596 745.003 32.4174 734.624 42.3938 733.439C43.5165 733.303 55.0105 731.937 54.2401 741.104C53.9613 744.434 47.953 749.505 47.2561 750.093C31.7979 763.144 33.602 773.523 29.421 790.862C29.27 791.478 28.6931 791.931 28.546 792.55Z"/>
<path fill-rule="evenodd" clip-rule="evenodd" d="M-8.18483 872.691C-6.75631 870.225 -6.86862 870.24 -5.37042 867.836C0.467541 858.456 11.7447 863.326 14.0791 866.849C14.5011 867.488 14.4393 868.355 14.8186 869.017C15.5194 870.236 16.5839 871.227 17.2808 872.447C17.4472 879.733 17.5596 879.694 17.4589 880.313C16.4021 886.759 6.29771 903.077 3.96717 902.686C2.48832 902.434 3.13099 901.741 -2.88892 891.56C-11.0497 877.754 -8.15773 875.792 -8.18483 872.691Z"/>
<path fill-rule="evenodd" clip-rule="evenodd" d="M613.929 605.357C615.184 631.655 614.297 631.658 613.07 636.443C610.07 648.162 618.095 643.613 619.713 644.24C623.979 645.889 623.821 647.02 622.067 651.228C615.067 667.991 602.075 683.619 599.958 686.163C592.42 695.23 591.782 696.929 584.929 702.012C574.523 709.735 576.056 713.154 550.831 723.119C545.67 725.155 540.378 723.928 534.621 724.981C533.313 725.217 532.039 725.616 530.731 725.859C522.512 727.392 519.833 724.512 517.22 732.417C515.873 736.494 516.333 736.571 514.947 740.64C511.146 751.797 504.351 760.26 500.147 758.804C495.691 757.26 487.6 746.664 485.529 736.614C483.981 729.092 484.496 726.723 476.772 726.893C471.825 727.005 471.848 728.217 465.011 726.8C464.388 726.672 459.634 725.685 457.137 725.712C451.721 725.767 446.94 729.777 422.012 714.141C394.301 696.759 378.011 668.397 375.27 663.624C371.015 656.218 370.934 656.249 370.884 655.8C370.725 654.333 371.526 652.916 371.809 651.468C371.941 650.791 371.468 649.602 372.134 649.428C373.408 649.095 374.736 649.912 375.963 650.384C378.65 651.406 381.123 652.943 383.833 653.895C387.112 655.049 387.112 653.946 388.463 652.629C389.636 651.491 390.902 651.507 389.838 648.263C389.338 646.73 388.32 645.409 387.705 643.919C381.948 629.885 389.269 611.075 380.256 600.967C377.585 597.966 372.715 593.51 378.584 588.513C384.085 583.828 390.701 586.561 394.39 581.556C395.312 580.301 395.079 580.212 398.486 562.532C401.417 547.31 387.31 542.738 399.473 536.404C404.549 533.76 409.512 537.887 413.364 527.458C413.999 525.743 418.869 512.557 417.1 504.934C415.671 498.767 408.265 486.786 429.836 490.498C434.78 491.346 438.527 491.671 440.819 481.172C443.812 467.46 430.204 458.366 445.36 456.442C456.463 455.037 461.732 462.621 464.883 462.865C469.61 463.233 469.455 461.943 470.884 457.437C479.881 429.045 476.486 419.049 475.413 415.882C472.371 406.924 470.624 407.907 470.4 407.133C468.468 400.529 475.882 400.931 476.579 400.966C502.269 402.364 518.52 432.092 522.31 446.706C524.053 453.411 523.309 453.806 525.524 455.962C529.364 459.702 529.933 457.027 534.803 454.716C540.874 451.843 552.372 451.224 550.207 462.04C549.983 463.151 546.456 470.518 550.393 481.254C554.803 493.282 567.799 480.208 574.837 487.87C580.845 494.408 569.522 496.905 576.842 516.351C580.423 525.875 581.913 529.335 588.855 530.203C590.171 530.369 591.514 530.025 592.831 530.156C604.375 531.333 599.47 541.623 598.99 542.626C594.367 552.331 597.763 555.753 601.061 570.29C602.494 576.597 601.588 578.246 607.879 579.558C609.164 579.825 610.515 579.616 611.808 579.829C612.884 580.007 623.708 581.78 621.757 589.12C621.61 589.666 621.444 589.535 617.627 594.834C614.909 598.605 615.656 598.899 613.929 605.357ZM571.008 616.603C570.609 614.973 567.268 597.815 562.073 585.733C555.763 571.068 556.038 570.983 555.434 569.737C554.586 567.995 545.964 550.244 544.71 548.034C524.339 512.112 511.486 495.558 507.22 489.341C502.78 482.876 500.379 477.553 495.924 477.719C492.285 477.855 491.162 480.398 485.099 489.592C465.704 519.011 452.809 546.342 450.389 551.476C422.806 609.933 427.626 634.121 428.667 651.801C429.217 661.139 432.55 672.66 435.554 677.917C437.598 681.498 446.529 708.787 503.655 705.961C529.43 704.683 539.828 700.254 542.751 699.012C546.855 697.262 568.635 687.986 572.08 651.557C574.016 631.117 572.998 630.989 571.008 616.603ZM507.673 625.201C508.997 623.668 509.818 624.38 511.463 620.803C517.588 607.486 530.58 609.027 542.469 605.597C552.251 602.778 553.707 607.385 550.494 617.002C547.749 625.224 538.601 633.544 536.956 634.488C528.718 639.215 507.17 645.7 505.536 652.602C505.13 654.31 504.952 662.188 505.087 662.428C505.517 663.19 506.787 662.947 507.507 663.438C508.405 664.05 508.792 665.831 509.868 665.691C512.09 665.401 507.576 657 527.157 648.812C534.567 645.711 535.09 647.577 542.569 644.666C546.545 643.121 546.487 642.258 550.649 643.195C555.403 644.264 551.105 657.697 548.349 662.168C540.347 675.157 522.001 682.129 519.322 683.147C507.476 687.649 503.841 691.854 477.419 680.878C474.581 679.702 455.387 669.601 451.601 656.059C447.114 640.001 460.59 646.73 464.976 647.527C468.491 648.162 482.901 649.358 491.727 659.989C492.219 660.581 492.172 661.971 492.943 661.955C499.628 661.843 496.682 652.304 496.423 651.456C493.818 643.025 466.664 641.492 457.284 628.422C455.925 626.533 450.741 620.633 449.913 612.972C448.682 601.601 459.274 607.761 465.015 608.481C470.555 609.174 479.428 609.243 487.91 617.296C491.208 620.428 491.112 621.005 492.072 620.614C496.682 618.736 495.041 610.347 494.863 609.441C493.059 600.227 477.252 601.57 466.358 588.64C463.288 585.001 457.66 573.298 468.828 573.972C480.686 574.684 486.261 578.854 487.515 579.794C490.589 582.09 491.522 583.015 493.632 579.783C497.666 573.608 484.898 567.836 488.831 551.208C493.702 530.652 494.933 530.16 496.648 529.471C501.014 527.717 503.376 534.891 503.608 535.595C509.655 553.953 513.081 559.687 506.341 569.744C505.83 570.507 501.378 577.154 504.576 581.064C507.661 584.839 508.544 582.597 512.144 579.303C518.087 573.867 518.822 575.296 526.735 573.554C529.349 572.977 531.877 571.471 534.544 571.68C543.034 572.35 535.38 585.028 534.788 586.008C527.397 598.257 509.078 601.381 507.116 604.861C503.945 610.478 504.293 622.259 504.936 623.192C505.583 624.121 507.027 624.272 507.673 625.201Z"/>
<path fill-rule="evenodd" clip-rule="evenodd" d="M505.339 926.328C506.528 921.094 506.292 921.098 507.418 915.852C508.874 909.07 510.829 908.609 513.647 903.661C521.413 890.023 521.924 890.115 541.114 877.054C544.668 874.634 560.963 861.657 564.137 857.333C568.527 851.344 569.975 847.709 570.726 837.887C571.965 821.659 563.789 818.26 564.648 814.741C564.853 813.893 566.038 813.692 566.711 813.146C567.281 812.685 567.931 811.09 575.639 814.57C586.854 819.63 599.416 840.144 590.098 860.628C573.304 897.552 547.823 887.529 530.406 908.373C529.841 909.05 524.611 915.31 526.527 918.674C528.029 921.315 532.206 918.856 532.628 918.608C533.011 918.38 554.393 889.674 572.917 910.401C579.003 917.207 579.746 926.069 576.266 927.772C566.007 932.801 560.246 917.888 533.011 930.745C515.018 939.239 516.098 950.485 513.392 996.573C512.226 1016.49 514.17 1027.75 505.703 1029.53C504.786 1029.73 497.477 1031.26 495.642 1023.46C494.697 1019.44 492.885 954.314 485.843 942.812C476.905 928.205 455.519 924.93 447.835 926.792C444.203 927.675 433.383 932.321 429.341 929.649C421.804 924.667 435.117 899.852 451.613 904.765C466.103 909.081 470.896 919.418 474.969 919.456C476.041 919.468 484.078 917.645 472.259 906.333C456.383 891.13 432.969 895.028 417.402 868.525C408.154 852.777 406.795 825.108 432.272 814.152C432.787 813.932 437.816 811.771 439.217 815.159C440.921 819.282 430.917 823.13 433.209 841.716C435.435 859.741 450.034 868.297 474.407 885.164C479.111 888.42 484.125 889.283 492.87 904.366C503.245 922.255 496.973 928.639 502.057 928.751C503.415 928.782 503.977 926.297 505.339 926.328Z"/>
<path fill-rule="evenodd" clip-rule="evenodd" d="M467.412 814.783C462.592 814.083 462.011 815.271 458.589 811.845C443.692 796.944 447.982 780.317 428.42 776.728C419.446 775.083 418.753 776.5 415.552 773.039C412.749 770.011 414.758 761.723 405.149 752.803C389.591 738.352 378.089 759.683 350.238 738.298C341.214 731.368 342.314 729.92 332.148 724.752C322.601 719.897 331.288 714.756 332.004 714.334C341.121 708.941 343.917 710.753 354.501 719.038C355.097 719.502 365.139 727.369 363.866 717.679C363.447 714.489 362.232 715.352 359.692 713.358C343.142 700.382 341.242 692.058 340.386 690.309C339.31 688.117 332.217 673.65 336.557 660.035C339.368 651.22 349.154 642.769 351.593 641.24C359.088 636.536 366.982 637.558 367.249 639.97C367.744 644.422 362.646 647.906 361.357 651.464C357.478 662.156 358.995 673.313 359.255 675.203C363.103 703.49 393.562 720.083 409.915 732.231C426.759 744.743 430.63 744.739 441.95 759.017C444.641 762.412 453.367 773.418 467.183 806.901C469.231 811.864 467.389 814.059 467.412 814.783Z"/>
<path fill-rule="evenodd" clip-rule="evenodd" d="M589.514 766.492C588.36 767.828 589.734 772.845 579.146 774.115C554.424 777.073 559.991 795.535 544.8 810.966C541.765 814.048 541.726 815.054 537.58 813.843C530.557 811.791 550.111 774.839 551.776 771.692C571.926 733.613 614.685 723.366 636.229 689.902C642.872 679.581 646.104 656.183 636.608 644.917C633.647 641.41 632.578 641.332 634.007 636.931C635.737 631.584 668.636 640.186 665.38 671.459C664.346 681.354 657.064 695.821 655.612 697.726C654.815 698.767 651.838 702.677 643.952 709.224C639.76 712.704 639.399 712.364 638.501 714.322C638.079 715.252 638.285 716.486 638.792 717.369C641.223 721.581 647.409 716.545 647.986 716.076C653.905 711.252 653.135 709.402 660.773 708.666C666.402 708.124 672.658 712.062 673.119 713.598C675.198 720.555 666.661 722.572 665.674 723.246C660.479 726.784 656.379 733.269 649.357 737.496C639.864 743.206 637.766 747.016 618.111 745.607C614.108 745.32 607.492 744.252 601.878 747.527C601.286 747.867 597.531 750.059 595.2 752.854C590.365 758.645 590.989 759.04 589.514 766.492Z"/>
<path fill-rule="evenodd" clip-rule="evenodd" d="M520.937 799.333C521.909 801.617 522.385 801.272 523.372 803.595C523.488 803.866 523.767 804.517 524.258 807.137C527.417 823.869 520.414 822.878 508.177 848.096C506.106 852.366 501.282 854.306 498.592 849.172C488.1 829.134 475.561 819.112 483.85 803.479C490.365 791.192 490.028 791.06 498.135 779.744C498.545 779.171 502.045 774.285 506.826 778.412C511.305 782.28 513.051 786.658 516.338 792.295C518.467 795.949 518.622 795.791 520.937 799.333Z"/>
<path fill-rule="evenodd" clip-rule="evenodd" d="M417.003 804.911C413.314 805.674 404.321 805.403 399.408 815.662C396.516 821.701 395.134 822.545 389.265 819.305C380.164 814.28 384.314 784.649 408.982 782.5C412.365 782.206 412.269 782.617 424.335 784.633C439.705 787.2 443.657 803.014 424.777 804.555C422.191 804.768 419.589 804.699 417.003 804.911Z"/>
<path fill-rule="evenodd" clip-rule="evenodd" d="M615.661 794.633C615.99 795.419 623.094 807.695 615.494 815.929C615.006 816.456 610.744 821.074 606.792 818.101C602.266 814.694 605.99 811.055 595.774 805.244C586.467 799.952 573.974 804.962 567.842 799.17C565.686 797.138 564.385 786.983 575.654 783.766C607.066 774.804 613.268 790.371 615.661 794.633Z"/>
<path fill-rule="evenodd" clip-rule="evenodd" d="M482.452 868.281C482.316 868.297 479.289 870.852 474.795 869.206C468.887 867.05 464.977 854.259 464.404 852.889C456.526 834.078 445.04 844.171 443.278 838.685C439.442 826.711 450.432 821.43 459.483 822.898C474.179 825.282 473.912 826.765 479.123 833.733C494.275 853.984 483.71 866.183 482.452 868.281Z"/>
<path fill-rule="evenodd" clip-rule="evenodd" d="M521.831 867.433C521.246 866.342 521.68 866.268 521.138 865.254C519.888 862.912 519.605 863.183 518.359 860.933C517.77 859.873 514.75 854.418 518.866 845.773C524.177 834.616 524.891 835.317 525.352 834.353C525.704 833.61 526.279 832.821 526.666 832.093C527.247 831.001 527.766 830.164 528.513 829.177C528.954 828.596 529.778 827.929 530.293 827.414C537.164 820.539 558.671 818.229 561.113 829.8C562.406 835.94 562.554 837.578 556.422 838.844C555.218 839.087 553.94 838.886 552.763 839.231C538.455 843.427 541.13 857.918 533.631 865.544C527.17 872.118 522.001 867.46 521.831 867.433Z"/>
<path fill-rule="evenodd" clip-rule="evenodd" d="M595.262 767.816C596.614 765.757 597.109 766.268 598.445 764.239C599.351 762.857 598.747 762.648 599.606 761.208C603.803 754.166 613.21 754.472 614.518 754.514C635.865 755.215 642.446 757.341 644.765 758.092C658.342 762.478 654.652 770.581 641.265 775.516C630.96 779.318 623.264 776.922 614.604 774.661C599.866 770.809 599.835 770.894 595.262 767.816Z"/>
<path fill-rule="evenodd" clip-rule="evenodd" d="M381.879 778.749C372.243 779.91 364.539 782.976 353.409 773.527C345.918 767.166 349.751 764.185 359.007 760.922C371.957 756.353 372.231 757.933 385.917 756.787C387.686 756.64 402.912 755.37 404.998 768.08C405.897 773.527 402.707 771.788 393.435 775.296C387.756 777.444 387.752 777.255 381.879 778.749Z"/>
<path fill-rule="evenodd" clip-rule="evenodd" d="M462.499 734.689C464.229 735.363 465.956 736.041 467.683 736.714C468.294 737.303 469.266 737.415 469.878 737.999C473.947 741.89 476.989 755.231 477.349 756.81C481.197 773.697 484.926 792.728 478.197 796.367C477.535 796.724 476.358 796.801 474.674 787.657C474.392 786.12 473.13 779.272 469.607 768.823C465 755.153 456.99 752.467 452.813 747.875C447.939 742.517 451.191 737.883 451.682 737.179C451.791 737.024 456.274 734.24 456.448 734.217C456.448 734.217 462.015 734.651 462.499 734.689Z"/>
<path fill-rule="evenodd" clip-rule="evenodd" d="M526.941 792.55C525.621 790.502 522.954 789.581 521.637 787.533C519.992 784.978 522.795 765.18 525.218 756.547C528.455 745.003 530.812 734.624 540.789 733.439C541.912 733.303 553.405 731.937 552.635 741.104C552.356 744.434 546.348 749.505 545.651 750.093C530.193 763.144 531.997 773.523 527.816 790.862C527.665 791.478 527.088 791.931 526.941 792.55Z"/>
<path fill-rule="evenodd" clip-rule="evenodd" d="M490.21 872.691C491.639 870.225 491.526 870.24 493.025 867.836C498.863 858.456 510.14 863.326 512.474 866.849C512.896 867.488 512.834 868.355 513.214 869.017C513.914 870.236 514.979 871.227 515.676 872.447C515.842 879.733 515.955 879.694 515.854 880.313C514.797 886.759 504.693 903.077 502.362 902.686C500.883 902.434 501.526 901.741 495.506 891.56C487.345 877.754 490.237 875.792 490.21 872.691Z"/>
<path fill-rule="evenodd" clip-rule="evenodd" d="M611.836 -87.7338C613.09 -61.4359 612.204 -61.4321 610.976 -56.6471C607.976 -44.9286 616.001 -49.4774 617.62 -48.8502C621.886 -47.201 621.727 -46.0706 619.973 -41.8625C612.974 -25.0996 599.982 -9.4711 597.864 -6.92764C590.327 2.13901 589.688 3.8385 582.836 8.92155C572.43 16.6448 573.963 20.0633 548.737 30.0281C543.577 32.0644 538.285 30.8371 532.528 31.8901C531.219 32.1263 529.946 32.525 528.637 32.7689C520.418 34.302 517.74 31.4217 515.126 39.3269C513.779 43.4035 514.24 43.4809 512.854 47.5496C509.052 58.7068 502.258 67.1695 498.054 65.7139C493.598 64.1692 485.507 53.5734 483.436 43.5235C481.887 36.0015 482.402 33.6322 474.679 33.8026C469.731 33.9148 469.754 35.1266 462.918 33.7096C462.294 33.5819 457.54 32.5947 455.043 32.6218C449.627 32.676 444.846 36.6867 419.919 21.0505C392.208 3.6682 375.917 -24.6932 373.176 -29.4665C368.922 -36.8724 368.84 -36.8414 368.79 -37.2905C368.631 -38.7577 369.433 -40.1746 369.715 -41.6225C369.847 -42.3 369.375 -43.4884 370.041 -43.6627C371.314 -43.9956 372.642 -43.1788 373.869 -42.7065C376.556 -41.6844 379.03 -40.1475 381.74 -39.1952C385.019 -38.0415 385.019 -39.1448 386.37 -40.4611C387.543 -41.5992 388.809 -41.5838 387.744 -44.828C387.245 -46.361 386.227 -47.6811 385.611 -49.1716C379.854 -63.2051 387.175 -82.0159 378.163 -92.1239C375.491 -95.1242 370.621 -99.5801 376.49 -104.578C381.991 -109.262 388.607 -106.529 392.297 -111.535C393.218 -112.789 392.986 -112.878 396.393 -130.558C399.323 -145.78 385.216 -150.353 397.38 -156.686C402.455 -159.33 407.418 -155.203 411.27 -165.633C411.905 -167.348 416.775 -180.533 415.006 -188.156C413.578 -194.323 406.172 -206.305 427.743 -202.592C432.686 -201.744 436.434 -201.419 438.726 -211.918C441.718 -225.63 428.111 -234.724 443.267 -236.648C454.37 -238.054 459.639 -230.47 462.79 -230.226C467.517 -229.858 467.362 -231.147 468.79 -235.653C477.787 -264.046 474.392 -274.041 473.32 -277.208C470.277 -286.166 468.531 -285.183 468.306 -285.957C466.375 -292.562 473.788 -292.159 474.485 -292.124C500.175 -290.727 516.427 -260.999 520.217 -246.385C521.959 -239.68 521.216 -239.285 523.43 -237.128C527.271 -233.389 527.84 -236.064 532.71 -238.375C538.78 -241.247 550.278 -241.867 548.114 -231.05C547.889 -229.939 544.363 -222.572 548.3 -211.837C552.709 -199.809 565.705 -212.882 572.743 -205.221C578.752 -198.682 567.428 -196.185 574.749 -176.739C578.33 -167.216 579.82 -163.755 586.761 -162.888C588.078 -162.721 589.421 -163.066 590.737 -162.934C602.281 -161.757 597.376 -151.467 596.896 -150.465C592.274 -140.759 595.669 -137.337 598.968 -122.8C600.4 -116.494 599.494 -114.845 605.785 -113.532C607.07 -113.265 608.421 -113.474 609.714 -113.261C610.791 -113.083 621.615 -111.31 619.664 -103.97C619.517 -103.424 619.35 -103.556 615.533 -98.2561C612.815 -94.4854 613.562 -94.1912 611.836 -87.7338ZM568.915 -76.4876C568.516 -78.1175 565.175 -95.2752 559.98 -107.358C553.669 -122.022 553.944 -122.107 553.34 -123.354C552.492 -125.096 543.871 -142.846 542.616 -145.057C522.246 -180.979 509.393 -197.532 505.127 -203.75C500.686 -210.215 498.286 -215.538 493.83 -215.371C490.191 -215.236 489.068 -212.692 483.006 -203.498C463.61 -174.08 450.715 -146.748 448.296 -141.615C420.713 -83.1579 425.532 -58.9699 426.574 -41.2896C427.123 -31.9519 430.457 -20.4308 433.461 -15.1736C435.505 -11.5926 444.436 15.6964 501.561 12.8703C527.336 11.5928 537.735 7.16398 540.658 5.92128C544.761 4.17144 566.541 -5.10423 569.987 -41.5334C571.922 -61.974 570.904 -62.1018 568.915 -76.4876ZM505.58 -67.8894C506.904 -69.4225 507.724 -68.7101 509.37 -72.2872C515.494 -85.6046 528.486 -84.0638 540.375 -87.4938C550.158 -90.3121 551.614 -85.7053 548.4 -76.0889C545.656 -67.8662 536.508 -59.5467 534.862 -58.6021C526.624 -53.8752 505.076 -47.3908 503.443 -40.4882C503.036 -38.7809 502.858 -30.9027 502.994 -30.6627C503.423 -29.9001 504.693 -30.144 505.413 -29.6523C506.311 -29.0406 506.698 -27.2599 507.775 -27.3993C509.997 -27.6896 505.483 -36.0903 525.064 -44.2782C532.474 -47.3791 532.996 -45.5132 540.476 -48.4244C544.452 -49.9691 544.393 -50.8324 548.555 -49.8955C553.309 -48.827 549.012 -35.3935 546.256 -30.9221C538.254 -17.9338 519.907 -10.9616 517.228 -9.94343C505.382 -5.44108 501.747 -1.23681 475.325 -12.212C472.488 -13.3889 453.294 -23.4892 449.507 -37.0311C445.021 -53.0893 458.496 -46.361 462.883 -45.5635C466.398 -44.9286 480.807 -43.7323 489.634 -33.1017C490.125 -32.5094 490.079 -31.1196 490.849 -31.1351C497.535 -31.2473 494.589 -40.7862 494.33 -41.6341C491.724 -50.0658 464.571 -51.5989 455.19 -64.6685C453.831 -66.5577 448.648 -72.4576 447.819 -80.1189C446.588 -91.489 457.18 -85.3298 462.921 -84.6097C468.461 -83.9167 477.334 -83.847 485.816 -75.7947C489.115 -72.6628 489.018 -72.0859 489.978 -72.4769C494.589 -74.3545 492.947 -82.7437 492.769 -83.6496C490.965 -92.8634 475.159 -91.52 464.265 -104.45C461.195 -108.089 455.566 -119.792 466.735 -119.119C478.593 -118.406 484.167 -114.237 485.422 -113.296C488.495 -111 489.428 -110.075 491.538 -113.308C495.572 -119.483 482.805 -125.255 486.738 -141.882C491.608 -162.439 492.839 -162.93 494.554 -163.62C498.921 -165.373 501.282 -158.2 501.515 -157.495C507.562 -139.137 510.988 -133.404 504.248 -123.346C503.737 -122.584 499.285 -115.936 502.482 -112.026C505.568 -108.252 506.451 -110.493 510.051 -113.788C515.993 -119.223 516.729 -117.795 524.642 -119.537C527.255 -120.114 529.783 -121.62 532.45 -121.411C540.94 -120.741 533.287 -108.062 532.694 -107.083C525.304 -94.8338 506.985 -91.7097 505.022 -88.2294C501.851 -82.6121 502.2 -70.8316 502.843 -69.8986C503.489 -68.9695 504.933 -68.8186 505.58 -67.8894Z"/>
<path fill-rule="evenodd" clip-rule="evenodd" d="M503.246 233.237C504.434 228.003 504.198 228.007 505.325 222.762C506.78 215.979 508.735 215.518 511.554 210.571C519.32 196.932 519.831 197.025 539.021 183.963C542.575 181.544 558.869 168.567 562.044 164.243C566.434 158.254 567.881 154.618 568.632 144.797C569.871 128.568 561.695 125.169 562.555 121.65C562.76 120.802 563.944 120.601 564.618 120.055C565.187 119.595 565.838 118 573.545 121.48C584.761 126.54 597.323 147.054 588.005 167.537C571.211 204.462 545.73 194.439 528.313 215.282C527.747 215.96 522.517 222.22 524.434 225.584C525.936 228.224 530.113 225.766 530.535 225.518C530.918 225.29 552.3 196.584 570.824 217.311C576.91 224.117 577.653 232.978 574.172 234.681C563.913 239.71 558.153 224.798 530.918 237.655C512.924 246.148 514.004 257.394 511.298 303.483C510.133 323.401 512.076 334.662 503.61 336.443C502.692 336.637 495.383 338.173 493.548 330.369C492.604 326.354 490.792 261.223 483.75 249.721C474.811 235.115 453.426 231.84 445.741 233.702C442.11 234.585 431.289 239.23 427.248 236.559C419.71 231.577 433.024 206.761 449.519 211.674C464.01 215.991 468.803 226.327 472.875 226.366C473.948 226.377 481.984 224.554 470.165 213.242C454.289 198.039 430.875 201.938 415.309 175.435C406.06 159.686 404.701 132.018 430.178 121.062C430.693 120.841 435.722 118.681 437.124 122.068C438.827 126.191 428.824 130.039 431.115 148.626C433.341 166.651 447.94 175.206 472.314 192.074C477.018 195.329 482.031 196.193 490.776 211.275C501.152 229.165 494.88 235.549 499.963 235.661C501.322 235.692 501.883 233.206 503.246 233.237Z"/>
<path fill-rule="evenodd" clip-rule="evenodd" d="M465.318 121.693C460.499 120.992 459.918 122.181 456.495 118.755C441.599 103.854 445.888 87.2264 426.326 83.6377C417.353 81.9924 416.66 83.4093 413.458 79.9483C410.655 76.9209 412.665 68.6325 403.056 59.713C387.497 45.2613 375.995 66.5923 348.145 45.2071C339.121 38.2774 340.22 36.8295 330.054 31.6613C320.508 26.8067 329.195 21.6655 329.911 21.2435C339.028 15.8508 341.823 17.6626 352.407 25.9472C353.003 26.4118 363.046 34.2783 361.772 24.5884C361.354 21.3984 360.138 22.2617 357.599 20.268C341.049 7.29129 339.148 -1.03205 338.292 -2.78189C337.216 -4.97306 330.124 -19.4402 334.464 -33.0557C337.274 -41.8707 347.061 -50.3218 349.5 -51.851C356.995 -56.5546 364.888 -55.5326 365.155 -53.1207C365.651 -48.6687 360.553 -45.1845 359.263 -41.6268C355.384 -30.9342 356.902 -19.777 357.161 -17.8878C361.009 10.4 391.469 26.9925 407.821 39.1407C424.665 51.6528 428.537 51.649 439.857 65.9264C442.547 69.3216 451.273 80.3278 465.09 113.811C467.138 118.774 465.295 120.969 465.318 121.693Z"/>
<path fill-rule="evenodd" clip-rule="evenodd" d="M587.42 73.4019C586.266 74.7375 587.641 79.7547 577.053 81.0245C552.33 83.9822 557.897 102.444 542.706 117.876C539.671 120.957 539.632 121.964 535.486 120.752C528.464 118.7 548.018 81.7484 549.682 78.6011C569.833 40.5227 612.591 30.2753 634.135 -3.18844C640.779 -13.5094 644.011 -36.9077 634.515 -48.1733C631.553 -51.6807 630.485 -51.7581 631.913 -56.1598C633.644 -61.5061 666.542 -52.904 663.286 -21.6315C662.253 -11.7363 654.971 2.73081 653.519 4.6355C652.721 5.67689 649.745 9.58695 641.859 16.1334C637.666 19.6137 637.306 19.273 636.408 21.2319C635.986 22.161 636.191 23.396 636.698 24.2786C639.129 28.4906 645.316 23.454 645.893 22.9856C651.812 18.1619 651.041 16.3114 658.679 15.5759C664.308 15.0339 670.565 18.971 671.025 20.5079C673.104 27.4647 664.568 29.4817 663.581 30.1553C658.385 33.6937 654.286 40.1781 647.263 44.4056C637.771 50.1158 635.672 53.9252 616.018 52.5161C612.015 52.2296 605.398 51.1611 599.785 54.4362C599.193 54.7769 595.438 56.9681 593.107 59.7632C588.272 65.5547 588.895 65.9496 587.42 73.4019Z"/>
<path fill-rule="evenodd" clip-rule="evenodd" d="M518.843 106.242C519.815 108.526 520.291 108.182 521.278 110.505C521.395 110.776 521.673 111.426 522.165 114.047C525.324 130.779 518.321 129.788 506.084 155.006C504.012 159.276 499.189 161.215 496.498 156.082C486.007 136.044 473.468 126.021 481.756 110.389C488.272 98.101 487.935 97.9694 496.041 86.6535C496.452 86.0805 499.951 81.1949 504.732 85.3217C509.212 89.1892 510.958 93.5676 514.244 99.2043C516.374 102.859 516.528 102.7 518.843 106.242Z"/>
<path fill-rule="evenodd" clip-rule="evenodd" d="M414.91 111.821C411.22 112.584 402.227 112.313 397.314 122.572C394.423 128.611 393.041 129.455 387.172 126.215C378.07 121.19 382.22 91.5584 406.888 89.4098C410.272 89.1156 410.175 89.526 422.242 91.543C437.611 94.1096 441.564 109.924 422.683 111.465C420.097 111.678 417.496 111.608 414.91 111.821Z"/>
<path fill-rule="evenodd" clip-rule="evenodd" d="M613.567 101.543C613.896 102.328 621 114.604 613.401 122.839C612.913 123.365 608.651 127.984 604.698 125.011C600.172 121.604 603.897 117.965 593.68 112.154C584.374 106.862 571.881 111.871 565.748 106.08C563.592 104.047 562.291 93.8928 573.561 90.6757C604.973 81.7136 611.175 97.2802 613.567 101.543Z"/>
<path fill-rule="evenodd" clip-rule="evenodd" d="M480.358 175.191C480.223 175.206 477.196 177.761 472.701 176.116C466.793 173.96 462.883 161.169 462.31 159.798C454.432 140.987 442.946 151.08 441.185 145.594C437.348 133.62 448.339 128.34 457.39 129.807C472.085 132.192 471.818 133.675 477.029 140.643C492.181 160.894 481.617 173.092 480.358 175.191Z"/>
<path fill-rule="evenodd" clip-rule="evenodd" d="M519.737 174.343C519.153 173.251 519.587 173.178 519.045 172.163C517.794 169.821 517.512 170.092 516.265 167.843C515.677 166.782 512.657 161.327 516.772 152.683C522.084 141.526 522.798 142.226 523.258 141.263C523.611 140.519 524.185 139.73 524.572 139.002C525.153 137.91 525.672 137.074 526.419 136.086C526.861 135.506 527.685 134.839 528.199 134.324C535.071 127.448 556.577 125.138 559.02 136.71C560.313 142.85 560.46 144.487 554.328 145.753C553.124 145.997 551.846 145.796 550.67 146.14C536.361 150.337 539.036 164.827 531.537 172.454C525.076 179.027 519.908 174.37 519.737 174.343Z"/>
<path fill-rule="evenodd" clip-rule="evenodd" d="M593.169 74.7259C594.52 72.6663 595.016 73.1774 596.351 71.1488C597.257 69.7667 596.653 69.5577 597.513 68.1175C601.709 61.0756 611.116 61.3814 612.425 61.424C633.771 62.1247 640.353 64.2501 642.672 65.0011C656.248 69.3873 652.559 77.49 639.172 82.4259C628.866 86.2276 621.17 83.8313 612.51 81.5704C597.772 77.7185 597.741 77.8036 593.169 74.7259Z"/>
<path fill-rule="evenodd" clip-rule="evenodd" d="M379.785 85.6585C370.149 86.8199 362.446 89.886 351.316 80.4361C343.825 74.0755 347.657 71.0946 356.914 67.8311C369.863 63.2629 370.138 64.8424 383.823 63.6964C385.592 63.5493 400.818 62.2796 402.905 74.9891C403.803 80.4361 400.613 78.6979 391.341 82.2053C385.662 84.3539 385.658 84.1642 379.785 85.6585Z"/>
<path fill-rule="evenodd" clip-rule="evenodd" d="M460.405 41.599C462.136 42.2726 463.863 42.95 465.589 43.6236C466.201 44.2121 467.173 44.3244 467.784 44.9089C471.853 48.7996 474.896 62.1402 475.256 63.7197C479.104 80.6064 482.832 99.6379 476.104 103.277C475.442 103.633 474.265 103.711 472.581 94.5664C472.298 93.0295 471.036 86.1812 467.513 75.7324C462.906 62.0628 454.897 59.3761 450.72 54.7847C445.846 49.4268 449.097 44.7928 449.589 44.0882C449.697 43.9333 454.18 41.1499 454.355 41.1266C454.355 41.1266 459.922 41.5603 460.405 41.599Z"/>
<path fill-rule="evenodd" clip-rule="evenodd" d="M524.848 99.4598C523.527 97.4119 520.86 96.4905 519.544 94.4425C517.899 91.8874 520.701 72.0895 523.125 63.4564C526.361 51.9121 528.719 41.5331 538.695 40.3485C539.818 40.213 551.312 38.8464 550.542 48.0137C550.263 51.3431 544.255 56.4145 543.558 57.0029C528.099 70.0531 529.904 80.4322 525.722 97.7719C525.571 98.3874 524.995 98.8404 524.848 99.4598Z"/>
<path fill-rule="evenodd" clip-rule="evenodd" d="M488.117 179.6C489.545 177.134 489.433 177.15 490.931 174.746C496.769 165.365 508.046 170.235 510.381 173.758C510.803 174.397 510.741 175.264 511.12 175.926C511.821 177.146 512.885 178.137 513.582 179.356C513.749 186.642 513.861 186.603 513.76 187.223C512.704 193.669 502.599 209.986 500.269 209.595C498.79 209.344 499.433 208.651 493.413 198.469C485.252 184.664 488.144 182.701 488.117 179.6Z"/>
<path fill-rule="evenodd" clip-rule="evenodd" d="M107.534 -87.7338C108.789 -61.4359 107.902 -61.4321 106.675 -56.6471C103.675 -44.9286 111.7 -49.4774 113.318 -48.8502C117.584 -47.201 117.426 -46.0706 115.672 -41.8625C108.672 -25.0996 95.6803 -9.4711 93.5627 -6.92764C86.0252 2.13901 85.3866 3.8385 78.5343 8.92155C68.1282 16.6448 69.6611 20.0633 44.4355 30.0281C39.275 32.0644 33.9831 30.8371 28.2265 31.8901C26.918 32.1263 25.6443 32.525 24.3358 32.7689C16.117 34.302 13.438 31.4217 10.8249 39.3269C9.47765 43.4035 9.93822 43.4809 8.55228 47.5496C4.75064 58.7068 -2.04353 67.1695 -6.24779 65.7139C-10.7037 64.1692 -18.7948 53.5734 -20.8659 43.5235C-22.4145 36.0015 -21.8994 33.6322 -29.6227 33.8026C-34.5703 33.9148 -34.5471 35.1266 -41.3839 33.7096C-42.0072 33.5819 -46.7612 32.5947 -49.2582 32.6218C-54.6741 32.676 -59.4552 36.6867 -84.3827 21.0505C-112.094 3.6682 -128.384 -24.6932 -131.125 -29.4665C-135.38 -36.8724 -135.461 -36.8414 -135.511 -37.2905C-135.67 -38.7577 -134.869 -40.1746 -134.586 -41.6225C-134.454 -42.3 -134.927 -43.4884 -134.261 -43.6627C-132.987 -43.9956 -131.659 -43.1788 -130.432 -42.7065C-127.745 -41.6844 -125.272 -40.1475 -122.562 -39.1952C-119.283 -38.0415 -119.283 -39.1448 -117.932 -40.4611C-116.759 -41.5992 -115.493 -41.5838 -116.557 -44.828C-117.057 -46.361 -118.075 -47.6811 -118.69 -49.1716C-124.447 -63.2051 -117.126 -82.0159 -126.139 -92.1239C-128.81 -95.1242 -133.68 -99.5801 -127.811 -104.578C-122.31 -109.262 -115.694 -106.529 -112.005 -111.535C-111.083 -112.789 -111.316 -112.878 -107.909 -130.558C-104.978 -145.78 -119.085 -150.353 -106.922 -156.686C-101.846 -159.33 -96.8832 -155.203 -93.0313 -165.633C-92.3964 -167.348 -87.5262 -180.533 -89.2953 -188.156C-90.7239 -194.323 -98.1298 -206.305 -76.5588 -202.592C-71.6151 -201.744 -67.8677 -201.419 -65.5759 -211.918C-62.5834 -225.63 -76.1909 -234.724 -61.0347 -236.648C-49.9317 -238.054 -44.663 -230.47 -41.5117 -230.226C-36.7848 -229.858 -36.9397 -231.147 -35.5112 -235.653C-26.5143 -264.046 -29.9092 -274.041 -30.9816 -277.208C-34.0245 -286.166 -35.7706 -285.183 -35.9951 -285.957C-37.9269 -292.562 -30.5133 -292.159 -29.8165 -292.124C-4.12635 -290.727 12.1254 -260.999 15.9154 -246.385C17.6575 -239.68 16.9143 -239.285 19.1287 -237.128C22.9691 -233.389 23.5383 -236.064 28.4084 -238.375C34.4787 -241.247 45.9765 -241.867 43.8124 -231.05C43.5879 -229.939 40.061 -222.572 43.9982 -211.837C48.4076 -199.809 61.4037 -212.882 68.4418 -205.221C74.4501 -198.682 63.1265 -196.185 70.4472 -176.739C74.0281 -167.216 75.5185 -163.755 82.4598 -162.888C83.776 -162.721 85.1193 -163.066 86.4355 -162.934C97.9798 -161.757 93.0749 -151.467 92.5948 -150.465C87.9725 -140.759 91.3677 -137.337 94.6661 -122.8C96.0985 -116.494 95.1926 -114.845 101.483 -113.532C102.769 -113.265 104.12 -113.474 105.413 -113.261C106.489 -113.083 117.313 -111.31 115.362 -103.97C115.215 -103.424 115.049 -103.556 111.231 -98.2561C108.514 -94.4854 109.261 -94.1912 107.534 -87.7338ZM64.613 -76.4876C64.2143 -78.1175 60.8734 -95.2752 55.6781 -107.358C49.3678 -122.022 49.6426 -122.107 49.0386 -123.354C48.1908 -125.096 39.5693 -142.846 38.315 -145.057C17.9441 -180.979 5.09142 -197.532 0.825221 -203.75C-3.61519 -210.215 -6.01554 -215.538 -10.4714 -215.371C-14.1105 -215.236 -15.2332 -212.692 -21.2957 -203.498C-40.6911 -174.08 -53.5862 -146.748 -56.0058 -141.615C-83.589 -83.1579 -78.7693 -58.9699 -77.7279 -41.2896C-77.1782 -31.9519 -73.845 -20.4308 -70.8409 -15.1736C-68.7968 -11.5926 -59.8656 15.6964 -2.74035 12.8703C23.0349 11.5928 33.4333 7.16398 36.3562 5.92128C40.4598 4.17144 62.2398 -5.10423 65.6853 -41.5334C67.6209 -61.974 66.6029 -62.1018 64.613 -76.4876ZM1.27819 -67.8894C2.60218 -69.4225 3.42291 -68.7101 5.06823 -72.2872C11.1927 -85.6046 24.1847 -84.0638 36.0736 -87.4938C45.8564 -90.3121 47.312 -85.7053 44.0988 -76.0889C41.3541 -67.8662 32.2061 -59.5467 30.5607 -58.6021C22.3226 -53.8752 0.774894 -47.3908 -0.858805 -40.4882C-1.26529 -38.7809 -1.44348 -30.9027 -1.30798 -30.6627C-0.878268 -29.9001 0.39154 -30.144 1.11161 -29.6523C2.00975 -29.0406 2.39682 -27.2599 3.47305 -27.3993C5.69519 -27.6896 1.18123 -36.0903 20.7624 -44.2782C28.1721 -47.3791 28.6948 -45.5132 36.1742 -48.4244C40.1501 -49.9691 40.0919 -50.8324 44.2536 -49.8955C49.0076 -48.827 44.7104 -35.3935 41.954 -30.9221C33.952 -17.9338 15.6058 -10.9616 12.9269 -9.94343C1.08063 -5.44108 -2.55444 -1.23681 -28.9762 -12.212C-31.8139 -13.3889 -51.008 -23.4892 -54.7941 -37.0311C-59.281 -53.0893 -45.8051 -46.361 -41.4189 -45.5635C-37.9037 -44.9286 -23.4945 -43.7323 -14.6679 -33.1017C-14.1762 -32.5094 -14.2228 -31.1196 -13.4524 -31.1351C-6.76664 -31.2473 -9.71253 -40.7862 -9.97191 -41.6341C-12.5773 -50.0658 -39.731 -51.5989 -49.1112 -64.6685C-50.47 -66.5577 -55.6537 -72.4576 -56.4822 -80.1189C-57.7132 -91.489 -47.1213 -85.3298 -41.3801 -84.6097C-35.8403 -83.9167 -26.9672 -83.847 -18.4851 -75.7947C-15.1867 -72.6628 -15.2835 -72.0859 -14.3234 -72.4769C-9.71262 -74.3545 -11.354 -82.7437 -11.5321 -83.6496C-13.3361 -92.8634 -29.1427 -91.52 -40.0366 -104.45C-43.1066 -108.089 -48.7355 -119.792 -37.5667 -119.119C-25.7088 -118.406 -20.1342 -114.237 -18.8799 -113.296C-15.8061 -111 -14.873 -110.075 -12.7632 -113.308C-8.72924 -119.483 -21.4968 -125.255 -17.5636 -141.882C-12.6934 -162.439 -11.4624 -162.93 -9.74744 -163.62C-5.38059 -165.373 -3.01918 -158.2 -2.7869 -157.495C3.26011 -139.137 6.6862 -133.404 -0.0537745 -123.346C-0.56479 -122.584 -5.01679 -115.936 -1.81908 -112.026C1.26637 -108.252 2.14912 -110.493 5.74945 -113.788C11.6919 -119.223 12.4274 -117.795 20.3404 -119.537C22.9535 -120.114 25.4816 -121.62 28.149 -121.411C36.6388 -120.741 28.9851 -108.062 28.3928 -107.083C21.0025 -94.8338 2.6833 -91.7097 0.720537 -88.2294C-2.45008 -82.6121 -2.10161 -70.8316 -1.45897 -69.8986C-0.812455 -68.9695 0.631675 -68.8186 1.27819 -67.8894Z"/>
<path fill-rule="evenodd" clip-rule="evenodd" d="M-1.05555 233.237C0.132948 228.003 -0.103263 228.007 1.02329 222.762C2.47891 215.979 4.43396 215.518 7.25229 210.571C15.0182 196.932 15.5291 197.025 34.7192 183.963C38.2731 181.544 54.5676 168.567 57.7421 164.243C62.1322 158.254 63.5799 154.618 64.3309 144.797C65.5698 128.568 57.3938 125.169 58.2532 121.65C58.4584 120.802 59.6428 120.601 60.3164 120.055C60.8855 119.595 61.536 118 69.2438 121.48C80.4591 126.54 93.0215 147.054 83.7032 167.537C66.9094 204.462 41.4283 194.439 24.0112 215.282C23.446 215.96 18.2157 222.22 20.1321 225.584C21.6341 228.224 25.8112 225.766 26.2332 225.518C26.6165 225.29 47.998 196.584 66.5223 217.311C72.608 224.117 73.3513 232.978 69.8709 234.681C59.6119 239.71 53.8512 224.798 26.6165 237.655C8.62256 246.148 9.70268 257.394 6.99662 303.483C5.83135 323.401 7.77492 334.662 -0.691671 336.443C-1.60918 336.637 -8.91823 338.173 -10.7532 330.369C-11.6978 326.354 -13.5097 261.223 -20.5516 249.721C-29.4905 235.115 -50.8757 231.84 -58.5602 233.702C-62.1915 234.585 -73.012 239.23 -77.0537 236.559C-84.5912 231.577 -71.2777 206.761 -54.782 211.674C-40.2916 215.991 -35.4989 226.327 -31.4262 226.366C-30.3539 226.377 -22.3171 224.554 -34.1362 213.242C-50.0125 198.039 -73.4262 201.938 -88.9928 175.435C-98.2414 159.686 -99.6002 132.018 -74.123 121.062C-73.6082 120.841 -68.5793 118.681 -67.1779 122.068C-65.4745 126.191 -75.478 130.039 -73.1862 148.626C-70.9602 166.651 -56.3615 175.206 -31.9876 192.074C-27.284 195.329 -22.2705 196.193 -13.5251 211.275C-3.14997 229.165 -9.42157 235.549 -4.33852 235.661C-2.97968 235.692 -2.41826 233.206 -1.05555 233.237Z"/>
<path fill-rule="evenodd" clip-rule="evenodd" d="M-38.9831 121.693C-43.8029 120.992 -44.3838 122.181 -47.806 118.755C-62.7029 103.854 -58.4133 87.2264 -77.9751 83.6377C-86.9489 81.9924 -87.6417 83.4093 -90.8433 79.9483C-93.6462 76.9209 -91.637 68.6325 -101.246 59.713C-116.804 45.2613 -128.306 66.5923 -156.157 45.2071C-165.181 38.2774 -164.081 36.8295 -174.247 31.6613C-183.794 26.8067 -175.107 21.6655 -174.391 21.2435C-165.274 15.8508 -162.478 17.6626 -151.894 25.9472C-151.298 26.4118 -141.256 34.2783 -142.529 24.5884C-142.948 21.3984 -144.163 22.2617 -146.703 20.268C-163.253 7.29129 -165.153 -1.03205 -166.009 -2.78189C-167.085 -4.97306 -174.178 -19.4402 -169.838 -33.0557C-167.027 -41.8707 -157.241 -50.3218 -154.802 -51.851C-147.307 -56.5546 -139.413 -55.5326 -139.146 -53.1207C-138.651 -48.6687 -143.749 -45.1845 -145.038 -41.6268C-148.917 -30.9342 -147.4 -19.777 -147.14 -17.8878C-143.292 10.4 -112.833 26.9925 -96.4802 39.1407C-79.6361 51.6528 -75.7646 51.649 -64.4449 65.9264C-61.7543 69.3216 -53.0283 80.3278 -39.2116 113.811C-37.1636 118.774 -39.0063 120.969 -38.9831 121.693Z"/>
<path fill-rule="evenodd" clip-rule="evenodd" d="M83.1185 73.4019C81.9649 74.7375 83.3393 79.7547 72.7512 81.0245C48.0289 83.9822 53.5958 102.444 38.4047 117.876C35.3696 120.957 35.331 121.964 31.1848 120.752C24.1622 118.7 43.7162 81.7484 45.3809 78.6011C65.5311 40.5227 108.29 30.2753 129.834 -3.18844C136.477 -13.5094 139.709 -36.9077 130.213 -48.1733C127.252 -51.6807 126.183 -51.7581 127.612 -56.1598C129.342 -61.5061 162.241 -52.904 158.985 -21.6315C157.951 -11.7363 150.669 2.73081 149.217 4.6355C148.42 5.67689 145.443 9.58695 137.557 16.1334C133.365 19.6137 133.004 19.273 132.106 21.2319C131.684 22.161 131.889 23.396 132.397 24.2786C134.828 28.4906 141.014 23.454 141.591 22.9856C147.51 18.1619 146.74 16.3114 154.378 15.5759C160.007 15.0339 166.263 18.971 166.724 20.5079C168.803 27.4647 160.266 29.4817 159.279 30.1553C154.084 33.6937 149.984 40.1781 142.961 44.4056C133.469 50.1158 131.371 53.9252 111.716 52.5161C107.713 52.2296 101.097 51.1611 95.4834 54.4362C94.8911 54.7769 91.136 56.9681 88.8055 59.7632C83.9702 65.5547 84.5935 65.9496 83.1185 73.4019Z"/>
<path fill-rule="evenodd" clip-rule="evenodd" d="M14.542 106.242C15.5137 108.526 15.9897 108.182 16.9769 110.505C17.093 110.776 17.3718 111.426 17.8634 114.047C21.0224 130.779 14.0192 129.788 1.78199 155.006C-0.289172 159.276 -5.1129 161.215 -7.80347 156.082C-18.2948 136.044 -30.8339 126.021 -22.5454 110.389C-16.03 98.101 -16.3668 97.9694 -8.2602 86.6535C-7.84984 86.0805 -4.35019 81.1949 0.430901 85.3217C4.91002 89.1892 6.65611 93.5676 9.94287 99.2043C12.0721 102.859 12.2269 102.7 14.542 106.242Z"/>
<path fill-rule="evenodd" clip-rule="evenodd" d="M-89.3917 111.821C-93.0811 112.584 -102.074 112.313 -106.987 122.572C-109.879 128.611 -111.261 129.455 -117.13 126.215C-126.231 121.19 -122.081 91.5584 -97.4132 89.4098C-94.0297 89.1156 -94.1264 89.526 -82.0595 91.543C-66.6904 94.1096 -62.7377 109.924 -81.6181 111.465C-84.2042 111.678 -86.8057 111.608 -89.3917 111.821Z"/>
<path fill-rule="evenodd" clip-rule="evenodd" d="M109.266 101.543C109.595 102.328 116.699 114.604 109.099 122.839C108.611 123.365 104.349 127.984 100.396 125.011C95.8709 121.604 99.5951 117.965 89.3787 112.154C80.072 106.862 67.5791 111.871 61.447 106.08C59.2906 104.047 57.9899 93.8928 69.2593 90.6757C100.671 81.7136 106.873 97.2802 109.266 101.543Z"/>
<path fill-rule="evenodd" clip-rule="evenodd" d="M-23.9431 175.191C-24.0786 175.206 -27.1059 177.761 -31.6005 176.116C-37.5081 173.96 -41.4182 161.169 -41.9912 159.798C-49.8693 140.987 -61.3554 151.08 -63.1169 145.594C-66.9534 133.62 -55.9628 128.34 -46.9116 129.807C-32.2161 132.192 -32.4832 133.675 -27.2724 140.643C-12.12 160.894 -22.6849 173.092 -23.9431 175.191Z"/>
<path fill-rule="evenodd" clip-rule="evenodd" d="M15.436 174.343C14.8514 173.251 15.2852 173.178 14.7432 172.163C13.4927 169.821 13.2101 170.092 11.9635 167.843C11.3751 166.782 8.35535 161.327 12.4706 152.683C17.782 141.526 18.496 142.226 18.9567 141.263C19.309 140.519 19.8837 139.73 20.2708 139.002C20.8515 137.91 21.3708 137.074 22.1179 136.086C22.5593 135.506 23.383 134.839 23.8979 134.324C30.7695 127.448 52.2756 125.138 54.7184 136.71C56.0115 142.85 56.1587 144.487 50.0265 145.753C48.8225 145.997 47.5449 145.796 46.3681 146.14C32.0596 150.337 34.7347 164.827 27.2359 172.454C20.7747 179.027 15.6063 174.37 15.436 174.343Z"/>
<path fill-rule="evenodd" clip-rule="evenodd" d="M88.8675 74.7259C90.2185 72.6663 90.7142 73.1774 92.0498 71.1488C92.9557 69.7667 92.3517 69.5577 93.2111 68.1175C97.4076 61.0756 106.815 61.3814 108.123 61.424C129.47 62.1247 136.051 64.2501 138.37 65.0011C151.947 69.3873 148.257 77.49 134.87 82.4259C124.565 86.2276 116.869 83.8313 108.209 81.5704C93.4706 77.7185 93.4395 77.8036 88.8675 74.7259Z"/>
<path fill-rule="evenodd" clip-rule="evenodd" d="M-124.516 85.6585C-134.152 86.8199 -141.856 89.886 -152.986 80.4361C-160.477 74.0755 -156.644 71.0946 -147.388 67.8311C-134.438 63.2629 -134.164 64.8424 -120.478 63.6964C-118.709 63.5493 -103.483 62.2796 -101.397 74.9891C-100.498 80.4361 -103.688 78.6979 -112.96 82.2053C-118.639 84.3539 -118.644 84.1642 -124.516 85.6585Z"/>
<path fill-rule="evenodd" clip-rule="evenodd" d="M-43.896 41.599C-42.1656 42.2726 -40.439 42.95 -38.7124 43.6236C-38.1007 44.2121 -37.1289 44.3244 -36.5173 44.9089C-32.4485 48.7996 -29.4057 62.1402 -29.0456 63.7197C-25.1975 80.6064 -21.4695 99.6379 -28.1978 103.277C-28.8598 103.633 -30.0366 103.711 -31.7206 94.5664C-32.0032 93.0295 -33.2654 86.1812 -36.7883 75.7324C-41.3952 62.0628 -49.4047 59.3761 -53.5819 54.7847C-58.4559 49.4268 -55.2042 44.7928 -54.7125 44.0882C-54.6041 43.9333 -50.1211 41.1499 -49.9469 41.1266C-49.9469 41.1266 -44.3799 41.5603 -43.896 41.599Z"/>
<path fill-rule="evenodd" clip-rule="evenodd" d="M20.546 99.4598C19.2259 97.4119 16.5586 96.4905 15.2423 94.4425C13.597 91.8874 16.3998 72.0895 18.8232 63.4564C22.0596 51.9121 24.4174 41.5331 34.3938 40.3485C35.5165 40.213 47.0105 38.8464 46.2401 48.0137C45.9613 51.3431 39.953 56.4145 39.2561 57.0029C23.7979 70.0531 25.602 80.4322 21.421 97.7719C21.27 98.3874 20.6931 98.8404 20.546 99.4598Z"/>
<path fill-rule="evenodd" clip-rule="evenodd" d="M-16.1848 179.6C-14.7563 177.134 -14.8686 177.15 -13.3704 174.746C-7.53246 165.365 3.74467 170.235 6.07908 173.758C6.50105 174.397 6.43926 175.264 6.81865 175.926C7.51936 177.146 8.58393 178.137 9.28077 179.356C9.44724 186.642 9.55958 186.603 9.45893 187.223C8.40205 193.669 -1.70229 209.986 -4.03283 209.595C-5.51168 209.344 -4.86901 208.651 -10.8889 198.469C-19.0497 184.664 -16.1577 182.701 -16.1848 179.6Z"/>
</g>
<defs>
<clipPath id="clip0_15_37">
<rect width="500" height="688" fill="white"/>
</clipPath>
</defs>
</svg>
