<?xml version="1.0" encoding="UTF-8"?>
<svg id="Layer_1" xmlns="http://www.w3.org/2000/svg" version="1.1" viewBox="0 0 2125.98 2125.98">
  <!-- Generator: Adobe Illustrator 29.7.1, SVG Export Plug-In . SVG Version: 2.1.1 Build 8)  -->
  <defs>
    <style>
      .st0 {
        fill: #66aa45;
      }

      .st1 {
        fill: #f78e1e;
      }

      .st2 {
        fill: #273d91;
      }

      .st3 {
        fill: #3d3327;
      }

      .st4 {
        fill: #38863b;
      }

      .st5 {
        fill: #c0372c;
      }
    </style>
  </defs>
  <g>
    <path class="st2" d="M1048.14,651.17c-3.06,3.53-6.04,7.12-8.94,10.77-.68.86-1.36,1.73-2.04,2.6-.75.96-1.5,1.94-2.23,2.91-1.4,1.86-2.78,3.72-4.14,5.6-.67.94-1.35,1.89-2.02,2.84-2.67,3.78-5.25,7.63-7.74,11.52-1.25,1.95-2.47,3.91-3.67,5.88s-2.38,3.96-3.53,5.95c-.58,1-1.15,2-1.72,3.01-.57,1-1.13,2.01-1.68,3.02-.56,1.01-1.1,2.02-1.65,3.04-.54,1.01-1.08,2.03-1.61,3.05-.53,1.03-1.06,2.05-1.58,3.08-.52,1.02-1.03,2.05-1.54,3.09-.47.94-.93,1.89-1.38,2.84-.55,1.12-1.08,2.25-1.6,3.38-.49,1.05-.96,2.09-1.44,3.14-.47,1.05-.94,2.1-1.4,3.15-.46,1.05-.92,2.11-1.37,3.17-.45,1.06-.89,2.12-1.33,3.18-.4.97-.79,1.94-1.19,2.92-.04.09-.07.19-.11.28-.42,1.06-.84,2.13-1.26,3.21-.12.31-.24.63-.36.94-.29.76-.58,1.52-.86,2.28-.39,1.04-.77,2.08-1.15,3.13-.41,1.12-.8,2.24-1.19,3.36-.34.96-.66,1.92-.99,2.88-.25.76-.5,1.51-.75,2.27-.21.62-.41,1.23-.6,1.85-.31.94-.61,1.89-.9,2.83-.34,1.08-.67,2.16-.99,3.24-.34,1.12-.67,2.24-.99,3.37-.17.6-.34,1.2-.51,1.8-.02.08-.05.17-.07.25-.09.33-.19.66-.27.98-.09.33-.18.66-.27.99t-.01.02c-.24.87-.47,1.75-.7,2.62-.3,1.12-.58,2.23-.86,3.35-.25.97-.49,1.94-.72,2.92-.1.39-.19.79-.28,1.19-.21.87-.41,1.74-.61,2.61-.26,1.13-.51,2.25-.75,3.38-.25,1.13-.48,2.26-.71,3.39-.24,1.13-.46,2.26-.68,3.39-.2,1.02-.39,2.04-.57,3.06-.07.36-.14.73-.2,1.1-.25,1.35-.48,2.7-.7,4.05-.02.1-.03.21-.05.32-.18,1.1-.36,2.2-.52,3.3-.07.4-.13.8-.18,1.19-.19,1.23-.36,2.47-.53,3.7-.06.37-.1.74-.15,1.11-.05.37-.09.73-.14,1.1-.08.54-.15,1.08-.21,1.63-.15,1.15-.28,2.3-.41,3.45-.11.93-.21,1.86-.3,2.8-.03.27-.05.54-.08.81-.01.13-.03.25-.04.38-.1.94-.19,1.88-.27,2.83-.01.07-.02.14-.02.22-.09.91-.16,1.82-.24,2.73-.07.95-.15,1.91-.21,2.86-.03.42-.06.84-.09,1.25-.09,1.32-.17,2.64-.24,3.96,0,.09-.02.18-.02.27-.05.91-.09,1.83-.13,2.74-.21,4.66-.32,9.33-.32,14.01,0,1.41.01,2.81.03,4.21.02,1.4.05,2.8.09,4.2.02.97.05,1.93.09,2.9.04,1.25.1,2.5.16,3.75.05,1.17.12,2.33.19,3.49.01.28.03.56.05.85.06.95.12,1.9.19,2.85.01.22.03.45.05.67.08,1.13.17,2.25.27,3.38.11,1.24.22,2.49.34,3.73.97,9.94,2.41,19.8,4.31,29.55l-.02-.02c-14.97-13.03-31.26-24.7-48.69-34.77-47.21-27.25-100.81-41.66-155.01-41.66-19.85,0-39.8,1.94-59.33,5.73,70.23-111.77,192.76-187.34,333.27-192.4h.02Z"/>
    <path class="st2" d="M1411.46,843.57c-6.1-1.18-12.25-2.19-18.42-3.01-1.17-.16-2.35-.31-3.53-.45-.06-.01-.11-.02-.17-.02-.98-.12-1.95-.23-2.93-.34h-.04c-.75-.09-1.48-.17-2.23-.24-.56-.07-1.13-.13-1.7-.18-1.1-.11-2.21-.21-3.31-.3-1.27-.12-2.55-.22-3.82-.31-7.73-.59-15.46-.88-23.18-.88-27.85,0-55.54,3.8-82.29,11.21-1.45.39-2.89.8-4.33,1.23-.06.01-.12.03-.18.05-.01,0-.02.01-.03.01-.07.02-.14.04-.21.06-.27.08-.53.16-.8.24-.84.24-1.68.5-2.53.76-1.16.35-2.32.71-3.47,1.08-.05.01-.09.03-.14.04-.68.22-1.37.45-2.05.67-.72.23-1.44.47-2.16.71-.13.04-.25.09-.38.13-.52.17-1.04.35-1.56.53-.05.01-.11.03-.16.05-1.03.36-2.07.72-3.1,1.08-.08.03-.15.05-.23.08-.49.18-.99.36-1.49.54-1,.36-2,.73-3,1.1-.24.09-.48.18-.72.27-.34.13-.69.26-1.03.39-.03.01-.05.02-.08.03-1.29.49-2.57.98-3.85,1.49-1.57.62-3.14,1.26-4.71,1.91-1.5.62-3,1.25-4.49,1.9-.06.02-.12.05-.18.08-1.56.67-3.11,1.36-4.65,2.06-3.05,1.38-6.07,2.81-9.08,4.29-.04.02-.08.04-.12.06-1.49.73-2.98,1.48-4.46,2.24-.03.01-.06.03-.09.05-1.11.57-2.22,1.15-3.33,1.74-.13.06-.25.13-.38.2-.25.12-.5.26-.74.39-.43.23-.87.46-1.31.71-.13.06-.25.13-.38.2-1.07.57-2.13,1.16-3.18,1.74-1.38.77-2.75,1.55-4.12,2.34-3.47,2-6.89,4.07-10.27,6.2-.87.55-1.73,1.1-2.59,1.65-1.05.68-2.1,1.36-3.15,2.05-.96.64-1.93,1.29-2.89,1.93-.17.12-.34.23-.51.35-.94.64-1.87,1.29-2.81,1.94-1.02.71-2.04,1.43-3.06,2.16-8.12,5.81-15.94,11.99-23.43,18.51v-.03h.01c3.79-19.49,5.76-39.42,5.76-59.55,0-74.9-26.98-147.09-76.01-203.54,140.51,5.05,263.05,80.61,333.28,192.38,0,.01.01.01.01.02Z"/>
    <path class="st2" d="M1474.22,1061.96c0,69.53-17.28,135.04-47.76,192.46,0,.01-.01.01-.01.02-.38-1.1-.77-2.21-1.16-3.31-1.57-4.39-3.24-8.75-5-13.05-.88-2.16-1.79-4.3-2.71-6.43-.93-2.13-1.88-4.25-2.85-6.35-.49-1.05-.98-2.1-1.48-3.15-.5-1.04-1-2.09-1.51-3.13-.51-1.04-1.02-2.07-1.54-3.11-1.05-2.06-2.11-4.12-3.19-6.16-.55-1.02-1.1-2.04-1.65-3.05s-1.11-2.02-1.68-3.03c-1.13-2.01-2.28-4.01-3.45-6-.59-.99-1.18-1.98-1.78-2.97-.6-.99-1.2-1.97-1.81-2.95-.6-.98-1.22-1.95-1.84-2.92-.54-.85-1.09-1.7-1.64-2.55-.7-1.08-1.41-2.16-2.13-3.24-.64-.96-1.29-1.91-1.94-2.86-1.3-1.9-2.62-3.79-3.96-5.66-1.14-1.58-2.3-3.16-3.47-4.73-.36-.49-.74-.98-1.11-1.47-.53-.7-1.06-1.41-1.6-2.1-.69-.9-1.38-1.78-2.07-2.67-.02-.02-.03-.04-.05-.06-1.38-1.75-2.77-3.48-4.19-5.2-.11-.13-.22-.27-.33-.4-.67-.81-1.34-1.62-2.02-2.42-.74-.88-1.49-1.75-2.24-2.63-.75-.87-1.51-1.73-2.27-2.6-.76-.86-1.53-1.72-2.3-2.57-.77-.86-1.54-1.71-2.32-2.55-.79-.85-1.57-1.69-2.36-2.53-.97-1.03-1.96-2.07-2.96-3.09-.61-.63-1.22-1.26-1.84-1.88-.81-.82-1.62-1.63-2.44-2.45-.82-.81-1.64-1.61-2.47-2.42-.82-.8-1.65-1.6-2.49-2.39-.8-.76-1.61-1.52-2.42-2.26-.11-.11-.22-.21-.33-.31,0,0-.03-.02-.04-.04-1.47-1.36-2.95-2.71-4.45-4.04-.14-.13-.27-.25-.41-.36-.87-.77-1.73-1.53-2.61-2.29-.87-.76-1.75-1.51-2.63-2.25-.88-.75-1.77-1.49-2.66-2.23-1.07-.89-2.15-1.78-3.24-2.65-.07-.06-.14-.11-.21-.17-.39-.31-.78-.62-1.17-.93-1.16-.93-2.33-1.85-3.51-2.76-1.12-.87-2.25-1.73-3.39-2.59-.45-.33-.9-.67-1.36-1.01-1.19-.89-2.4-1.77-3.61-2.64-1.83-1.32-3.67-2.62-5.52-3.9-1.11-.77-2.22-1.52-3.35-2.27-.56-.38-1.12-.75-1.69-1.12-.56-.38-1.12-.74-1.69-1.11-.59-.39-1.18-.77-1.78-1.15-4.06-2.61-8.19-5.12-12.38-7.54-1.09-.63-2.18-1.25-3.27-1.86-.94-.53-1.89-1.06-2.84-1.57-.95-.53-1.91-1.05-2.88-1.56-.52-.28-1.05-.56-1.57-.84-.88-.46-1.75-.91-2.63-1.36-2.39-1.24-4.8-2.44-7.22-3.6-.89-.43-1.79-.85-2.69-1.27-.19-.09-.38-.18-.57-.27-.76-.36-1.53-.71-2.3-1.06-.04-.02-.09-.04-.13-.06s-.07-.04-.11-.06c-.16-.07-.31-.14-.47-.21-.15-.07-.31-.14-.46-.2-.07-.04-.15-.07-.22-.1-.14-.07-.28-.13-.42-.19-.61-.28-1.22-.56-1.84-.83-.11-.04-.22-.09-.33-.14-.05-.03-.1-.05-.15-.07-.09-.04-.18-.08-.27-.12-.02-.01-.04-.01-.06-.02-1.03-.46-2.06-.91-3.1-1.35-2.29-.98-4.6-1.93-6.91-2.85-1.16-.46-2.32-.91-3.48-1.36-1.16-.44-2.32-.88-3.49-1.32-2.33-.86-4.68-1.7-7.03-2.51t.02-.01c18.81-6.48,37.05-14.75,54.42-24.78,64.89-37.47,113.93-96.97,138.3-167.7,30.49,57.43,47.77,122.94,47.77,192.49Z"/>
    <path class="st2" d="M1411.46,1280.34c-70.23,111.77-192.76,187.35-333.27,192.4h-.02c2.3-2.65,4.55-5.33,6.75-8.04.73-.9,1.46-1.81,2.18-2.72.73-.91,1.44-1.83,2.15-2.75.72-.92,1.42-1.84,2.12-2.77.7-.92,1.39-1.85,2.08-2.78.02-.01.03-.02.02-.03.69-.92,1.37-1.85,2.04-2.79.64-.88,1.27-1.76,1.89-2.65.08-.12.17-.23.25-.35.41-.58.81-1.16,1.21-1.74.08-.11.16-.22.23-.33.26-.36.51-.73.76-1.09.54-.79,1.08-1.59,1.62-2.39.65-.96,1.29-1.93,1.92-2.89.63-.97,1.26-1.94,1.89-2.91.62-.98,1.24-1.95,1.85-2.93.61-.98,1.22-1.97,1.82-2.95,1.8-2.96,3.55-5.95,5.25-8.96.56-1.01,1.12-2.01,1.68-3.02.55-1.01,1.1-2.03,1.64-3.04.55-1.02,1.09-2.04,1.62-3.06.51-.99,1.02-1.98,1.53-2.97.06-.11.11-.22.17-.33.44-.89.89-1.79,1.34-2.69.07-.15.15-.3.21-.45.42-.84.82-1.68,1.23-2.52.55-1.14,1.09-2.28,1.62-3.43.48-1.04.96-2.09,1.44-3.14.47-1.04.94-2.09,1.4-3.15.46-1.05.92-2.11,1.37-3.17.45-1.05.89-2.11,1.33-3.18.34-.82.67-1.64,1-2.46.03-.06.05-.11.07-.17l.96-2.43c.31-.76.6-1.53.89-2.29s.58-1.52.86-2.28c.39-1.04.77-2.08,1.15-3.13.03-.09.07-.19.1-.28.37-1.02.73-2.05,1.09-3.08.38-1.09.75-2.17,1.12-3.26.37-1.09.73-2.19,1.08-3.28.27-.84.54-1.68.8-2.52.14-.4.26-.81.39-1.22.27-.89.54-1.78.81-2.67.04-.11.07-.21.09-.32.01-.05.03-.1.04-.15.25-.81.49-1.63.72-2.44.02-.07.04-.14.06-.21.09-.29.18-.58.25-.87.21-.72.41-1.43.61-2.15.28-.99.55-1.99.81-2.98.33-1.23.65-2.46.96-3.69.22-.86.44-1.73.64-2.59.35-1.4.68-2.79,1-4.19.19-.82.38-1.63.55-2.45.02-.05.03-.11.04-.16.01-.04.02-.07.02-.11.18-.81.36-1.62.53-2.44.23-1.06.45-2.12.66-3.18.16-.82.33-1.63.48-2.45.2-1.02.39-2.04.57-3.06.07-.36.14-.73.2-1.1.25-1.35.48-2.7.7-4.05.02-.1.03-.21.05-.32.18-1.1.36-2.2.52-3.3.25-1.63.49-3.26.71-4.89.16-1.16.32-2.32.46-3.48.05-.43.11-.86.16-1.29.02-.2.04-.39.07-.59.08-.64.15-1.28.22-1.93.25-2.21.48-4.44.68-6.67.11-1.16.21-2.33.3-3.5.03-.38.06-.75.08-1.13.07-.86.14-1.72.19-2.58.07-1.05.14-2.11.2-3.16.05-.96.1-1.91.15-2.87.04-.86.08-1.71.11-2.57.08-1.83.13-3.66.17-5.48.02-.71.03-1.42.04-2.14.01-.56.02-1.11.02-1.66.01-1.03.02-2.07.02-3.1,0-1.41-.01-2.81-.03-4.21-.02-1.4-.05-2.8-.09-4.2-.02-.97-.05-1.93-.09-2.9-.04-1.25-.1-2.5-.16-3.75-.05-1.17-.12-2.33-.19-3.49-.01-.28-.03-.56-.05-.85-.06-.95-.12-1.9-.19-2.85-.01-.22-.03-.45-.05-.67-.08-1.13-.17-2.25-.27-3.38-.1-1.24-.22-2.49-.34-3.73-.97-9.94-2.41-19.8-4.31-29.55l.02.02c14.97,13.03,31.26,24.7,48.69,34.77,47.21,27.26,100.81,41.66,155.01,41.66,19.85,0,39.8-1.94,59.33-5.73Z"/>
    <path class="st2" d="M1048.14,1472.74c-140.51-5.04-263.05-80.61-333.28-192.38,0-.01-.01-.01-.01-.02,4.89.95,9.79,1.78,14.72,2.5,2.41.35,4.82.67,7.23.96,1.04.14,2.07.25,3.1.36.73.08,1.46.16,2.19.23.62.07,1.24.14,1.86.19,2.35.24,4.7.44,7.05.61,1.28.1,2.55.19,3.83.26,6.45.41,12.91.62,19.35.62,32.09,0,63.97-5.05,94.44-14.83.09-.03.17-.06.26-.08,1.52-.49,3.04-.99,4.56-1.51,8.01-2.71,15.93-5.76,23.73-9.14.78-.33,1.56-.67,2.34-1.02,1.61-.71,3.21-1.43,4.8-2.17.77-.36,1.54-.72,2.3-1.08.77-.36,1.54-.73,2.3-1.1,1.49-.72,2.98-1.45,4.47-2.2,5.33-2.68,10.61-5.53,15.81-8.53,3.47-2,6.89-4.07,10.27-6.2.87-.54,1.73-1.09,2.59-1.65,1.05-.68,2.1-1.36,3.15-2.05,1.04-.69,2.08-1.39,3.12-2.09,1.03-.71,2.06-1.41,3.09-2.13,1.02-.71,2.04-1.43,3.06-2.16,8.12-5.81,15.94-11.99,23.43-18.51,0,.01-.01.03-.01.04-3.79,19.49-5.76,39.41-5.76,59.54,0,74.9,26.98,147.09,76.01,203.54Z"/>
    <path class="st2" d="M892.6,1061.96c-18.82,6.47-37.06,14.75-54.44,24.78-64.89,37.47-113.93,96.98-138.3,167.7-30.49-57.42-47.77-122.94-47.77-192.48s17.28-135.04,47.76-192.47c0-.01.01-.01.01-.02,6.09,17.69,13.72,34.67,22.76,50.77.57,1.01,1.14,2.01,1.72,3.01.56.98,1.13,1.96,1.71,2.93.01.05.04.09.07.13.58.97,1.15,1.94,1.74,2.9.59.99,1.2,1.97,1.81,2.95.6.98,1.22,1.95,1.84,2.93.62.97,1.24,1.94,1.87,2.9,1.26,1.93,2.54,3.84,3.84,5.74.52.76,1.04,1.51,1.56,2.25,1.45,2.08,2.93,4.15,4.44,6.2.68.93,1.37,1.85,2.06,2.77.69.92,1.39,1.83,2.09,2.74.7.92,1.41,1.82,2.12,2.73.71.9,1.43,1.8,2.15,2.7.72.89,1.45,1.78,2.18,2.67,2.93,3.55,5.93,7.04,9.01,10.45.78.86,1.55,1.71,2.33,2.55,1.56,1.7,3.14,3.37,4.74,5.03.8.83,1.6,1.65,2.41,2.47,1.05,1.06,2.11,2.12,3.18,3.18.57.56,1.15,1.13,1.73,1.69.83.8,1.66,1.6,2.5,2.39.69.66,1.38,1.31,2.07,1.95.15.14.3.28.45.42,1.13,1.04,2.26,2.08,3.41,3.11,1.3,1.17,2.61,2.33,3.93,3.47.43.39.87.76,1.3,1.13.44.38.88.75,1.32,1.13.85.73,1.7,1.44,2.56,2.15.03.03.05.05.08.07,3.7,3.07,7.47,6.06,11.31,8.97.67.51,1.35,1.02,2.04,1.52.68.51,1.36,1.02,2.05,1.51.69.51,1.38,1.01,2.07,1.5.69.5,1.39.99,2.08,1.48.95.68,1.91,1.35,2.88,2.01.97.66,1.94,1.32,2.92,1.98.97.66,1.95,1.31,2.93,1.95.05.02.09.05.13.09,4.87,3.19,9.84,6.25,14.91,9.18.74.43,1.49.85,2.24,1.27.75.43,1.49.85,2.25,1.26.75.42,1.5.84,2.25,1.24.75.4,1.5.81,2.26,1.21.68.38,1.36.73,2.04,1.08.15.09.3.17.45.24.04.02.08.04.12.06,1,.53,2,1.05,3,1.55.09.05.18.09.27.14.09.05.18.09.27.14.99.5,1.98.99,2.97,1.48.16.08.33.16.49.23,1.37.68,2.74,1.34,4.11,1.99.77.37,1.55.73,2.32,1.08.77.36,1.54.71,2.32,1.06,1.44.66,2.89,1.3,4.34,1.92.09.04.17.08.26.12,1.67.72,3.34,1.43,5.01,2.12,1.15.47,2.31.94,3.47,1.4.78.31,1.56.62,2.34.92.21.08.41.16.62.24.98.39,1.97.76,2.96,1.13.72.28,1.45.54,2.17.81,1.97.72,3.94,1.42,5.91,2.1Z"/>
  </g>
  <path class="st5" d="M1694.68,1073.65h-3.58c-2.77-.01-5.02-2.27-5.02-5.07l.03-13.22c0-2.79,2.26-5.04,5.04-5.04h3.47c3.78.01,6.87-3.05,6.86-6.85v-1.13c-.01-2.9-1.88-5.35-4.48-6.25-160.02-98.35-231.96-230.99-264.12-325-34.93-102.06-31.88-181.95-31.83-182.89h-.05c.04-2.34-1.13-4.64-3.3-5.89l-1.26-.73c-3.28-1.88-7.45-.76-9.34,2.52l-1.79,3.09c-1.4,2.4-4.48,3.22-6.88,1.82l-11.45-6.63c-2.41-1.39-3.23-4.48-1.84-6.88l1.75-3c1.89-3.28.77-7.48-2.51-9.37l-1-.57c-1.85-1.06-3.98-1.11-5.83-.37h0s-.03,0-.04.01c-.62.25-1.2.61-1.73,1.05-11.34,6.75-76.66,43.84-173.88,62.8-97.88,19.09-248.67,22.98-412.54-66.1-2.02-2.53-5.62-3.3-8.52-1.64l-.98.57c-3.29,1.88-4.41,6.09-2.52,9.37l1.75,3c1.39,2.41.55,5.5-1.84,6.88l-11.45,6.62c-2.42,1.4-5.5.58-6.89-1.82l-1.79-3.1c-1.89-3.28-6.08-4.39-9.34-2.51l-1.26.72c-1.77,1.02-2.88,2.74-3.22,4.6h-.09s.01.16.03.43c-.08.63-.06,1.26.05,1.9.06,2.31.11,6.28.03,11.7-.43,24.67-3.71,75.48-20.83,138.58-4.25,15.71-9.18,31.42-14.64,46.69-30.18,84.47-77.27,159.13-140,221.87-10.91,10.91-22.36,21.51-34.02,31.54-.66.57-1.31,1.12-1.97,1.69l-1.79,1.5c-2.52,2.16-5.14,4.34-8.01,6.68-19.7,16.12-40.83,31.39-62.82,45.4-2.74,1.77-5.62,3.58-8.59,5.41-3.29.42-5.83,3.19-5.83,6.58v1.45c.01,3.78,3.06,6.83,6.85,6.83h3.58c2.77.01,5.02,2.27,5.02,5.07l-.03,13.22c0,2.79-2.26,5.04-5.04,5.04h-3.47c-3.78-.01-6.87,3.05-6.86,6.85v1.14c.01,2.77,1.71,5.14,4.12,6.15,160.26,98.36,232.26,231.13,264.46,325.2,34.69,101.38,31.9,180.89,31.83,182.86-.42,2.65.78,5.38,3.24,6.81l1.27.73c3.27,1.88,7.44.76,9.33-2.52l1.8-3.09c1.39-2.41,4.46-3.23,6.89-1.83l11.44,6.62c2.41,1.4,3.24,4.49,1.85,6.9l-1.75,3c-1.89,3.28-.77,7.48,2.52,9.37l.98.57c3.14,1.82,7.18.76,9.03-2.36,14.5-8.47,78.99-43.84,173.05-62.1,98.37-19.1,250.23-22.82,415.06,67.84l.14-.24c1.74.58,3.72.47,5.45-.52l.98-.57c3.29-1.88,4.41-6.09,2.52-9.37l-1.75-3c-1.39-2.41-.55-5.5,1.84-6.88l11.45-6.62c2.42-1.4,5.5-.58,6.88,1.82l1.79,3.1c1.89,3.28,6.08,4.39,9.34,2.51l1.26-.72c1.53-.88,2.56-2.28,3.04-3.83h.18c-.01-.05-.01-.26-.03-.63.19-.96.18-1.97-.08-2.95-.26-16.77.5-91.01,30.89-182.52,31.63-95.22,102.75-229.16,261.96-327.43,3.2-.49,5.65-3.23,5.65-6.57v-1.45c-.01-3.78-3.06-6.83-6.85-6.83h.03ZM1622.39,999.27l-110.16,11.63h-.04c-1.3-11.35-3-22.7-5.17-34-.37-1.89-.76-3.77-1.15-5.65l68.07-14.51c15.3,14.85,31.46,29.04,48.45,42.53h0ZM1567.82,950.71l-63.44,13.53c-2.9-13.11-6.39-26.05-10.43-38.79l38.89-12.65c11.08,13.06,22.75,25.7,34.98,37.91ZM1509.9,884c5.8,7.76,11.8,15.38,17.98,22.87l-36.15,11.77c-4.25-12.74-9.05-25.25-14.4-37.5l23.05-10.28c3.11,4.41,6.28,8.8,9.52,13.14ZM1496.19,864.88l-21.79,9.72c-5.55-12.21-11.64-24.14-18.25-35.77l17.11-9.89c7.23,12.24,14.85,24.24,22.92,35.94h.01ZM1469.64,822.75l-17.07,9.87c-6.78-11.54-14.07-22.79-21.87-33.68l19.04-13.86c6.2,12.8,12.84,25.37,19.9,37.67h0ZM1446.6,778.52l-20.11,14.63c-7.96-10.77-16.39-21.18-25.3-31.21l27.68-24.94c5.41,14.1,11.34,27.93,17.73,41.52ZM1420.77,714.65c1.74,5.08,3.56,10.11,5.41,15.13l-29.77,26.83c-9.03-9.86-18.51-19.33-28.44-28.37l42.38-47.12c3.04,10.83,6.49,22.03,10.42,33.53h0ZM1408.1,672.9l-45.47,50.55c-5.27-4.67-10.64-9.23-16.15-13.66-4.92-3.95-9.97-7.79-15.08-11.54l63.5-87.5c2.94,18.49,7.16,39.43,13.2,62.14h0ZM1372.57,579.33l15.85-27.59.28-.49c.55,12.38,1.84,29.18,4.69,49.38l-67.8,93.41c-4.55-3.24-9.14-6.42-13.83-9.48l49.19-85.22,11.61-20.13s0,.08.01.11h0ZM1306.48,627.85c-2.41-1.41-3.23-4.49-1.83-6.9l16.47-28.42c.55-.96,1.37-1.66,2.32-2.07.98-.45,2.11-.58,3.18-.32.48.1.95.28,1.39.54l11.46,6.63c2.4,1.4,3.22,4.48,1.82,6.88l-16.47,28.42c-1.39,2.43-4.48,3.24-6.88,1.84l-11.45-6.62v.02ZM1309.92,657.78l-10.84,18.74c-3.29-2.03-6.61-4-9.95-5.93-3.39-1.95-6.81-3.87-10.24-5.74l10.87-18.76c1.39-2.41,4.48-3.23,6.88-1.84l11.45,6.65c2.41,1.39,3.23,4.46,1.83,6.88ZM1358.32,537.39l11.44,6.63c2.41,1.39,3.23,4.49,1.84,6.88l-16.47,28.44c-1.4,2.41-4.49,3.23-6.9,1.84l-11.45-6.65c-2.41-1.39-3.22-4.48-1.83-6.87l16.47-28.45c1.39-2.41,4.48-3.23,6.9-1.83h0ZM1342.92,524.72l-76.97,133.36c-5.31-2.69-10.67-5.22-16.07-7.67l46.57-104.75c19.46-7.72,35.11-15.12,46.47-20.95h0ZM1286.99,549.33l-43.63,98.14c-12.31-5.38-24.82-10.2-37.49-14.43l20.89-64.41c22.55-6,42.72-12.7,60.23-19.31h0ZM1184.33,578.41c11.9-2.32,23.32-4.89,34.21-7.64l-19.48,60.07c-12.76-4.04-25.7-7.49-38.8-10.37l8.31-39.2c5.26-.88,10.52-1.83,15.76-2.86ZM1116.17,587.87c14.96-1.24,29.89-3.03,44.8-5.36l-7.73,36.49c-11.3-2.29-22.7-4.19-34.21-5.61-1.83-.23-3.64-.42-5.46-.62l2.6-24.9h0ZM1108.91,588.42l-2.47,23.59c-13.37-1.27-26.73-1.97-40.1-2.06v-19.99c14.17-.03,28.37-.53,42.57-1.55h0ZM1059.16,589.94v20.02c-13.38.13-26.75.84-40.07,2.17l-2.55-24.12c14.17,1.13,28.39,1.78,42.62,1.93ZM992.05,585.53c5.72.71,11.46,1.31,17.21,1.84l2.7,25.51c-13.27,1.54-26.49,3.66-39.65,6.38l-8.05-37.78c9.23,1.56,18.5,2.93,27.78,4.05h0ZM956.66,580.15l8.65,40.62c-6.38,1.42-12.75,2.98-19.09,4.68-6.62,1.77-13.16,3.69-19.65,5.75l-20.35-62.47c16.72,4.53,33.54,8.34,50.44,11.42ZM897.93,566.42l21.8,67.02c-12.74,4.24-25.23,9.03-37.48,14.36l-45.61-102.33c20.24,8.07,40.68,15.06,61.28,20.95h0ZM827.05,541.56l48.66,109.14c-5.09,2.32-10.18,4.7-15.18,7.21l-57.87-100.36-3.59-6.23-5.8-10.08-7.29-12.65-4.7-8.15c15.12,7.67,30.39,14.69,45.77,21.11h0ZM816.07,646.66l11.45-6.63c2.41-1.39,5.5-.56,6.88,1.84l13.2,22.8c-6.83,3.69-13.57,7.58-20.21,11.64l-13.15-22.76c-1.4-2.41-.58-5.49,1.83-6.88h0ZM806.24,630.25c-2.42,1.4-5.5.58-6.9-1.84l-16.44-28.44c-1.4-2.41-.58-5.5,1.82-6.88l11.46-6.63c2.41-1.39,5.5-.57,6.88,1.84l16.46,28.44c1.4,2.41.58,5.49-1.84,6.88l-11.44,6.63ZM754.45,539.76l11.44-6.62c2.42-1.4,5.51-.57,6.9,1.83l16.46,28.46c1.39,2.4.57,5.49-1.83,6.87l-11.46,6.63c-2.41,1.39-5.5.57-6.88-1.84l-16.46-28.44c-1.4-2.41-.57-5.5,1.84-6.9h-.01ZM735.62,547.14l4.59,7.89.42.72,2.61,4.56v.05l3.14,5.45s.05.06.08.1l1.78,3.11,2.82,4.92.58,1.02,4.21,7.3,7.4,12.82,51.46,89.27c-4.93,3.23-9.79,6.59-14.6,10.05l-69.24-95.21c2.9-21.08,4.21-38.79,4.75-52.07v.02ZM729.37,609.36l64.9,89.24.03.03c-1.26.93-2.53,1.85-3.78,2.8-9.47,7.15-18.6,14.67-27.41,22.48l-46.72-51.85c5.93-22.79,10.09-43.9,12.99-62.7h-.01ZM699.71,726.19c5.37-15.01,10.23-30.44,14.45-45.89l43.63,48.41c-9.89,9.05-19.34,18.52-28.35,28.41l-30.88-27.78c.38-1.05.77-2.09,1.15-3.15h0ZM695.89,736.58l28.78,25.88c-8.85,10.01-17.25,20.44-25.21,31.25l-21.08-15.3c6.32-13.66,12.16-27.6,17.52-41.83h-.01ZM675.28,785l19.99,14.51c-7.7,10.83-14.98,22.07-21.79,33.68l-17.89-10.33c6.99-12.35,13.56-24.98,19.7-37.87h-.01ZM652.02,829.08l17.86,10.3c-6.63,11.71-12.71,23.63-18.23,35.75l-22.37-9.95c8.01-11.75,15.59-23.78,22.75-36.1h-.01ZM625.14,871.2l23.59,10.48c-5.38,12.31-10.2,24.79-14.43,37.46l-36.47-11.83c9.56-11.71,18.66-23.76,27.3-36.12h0ZM592.92,913.26l39.17,12.7c-4.04,12.76-7.49,25.69-10.37,38.78l-63.5-13.47c12.16-12.23,23.72-24.9,34.7-38.01ZM510.05,994.99c2.59-2.11,4.98-4.1,7.29-6.07l.9-.74c1.29-1.08,2.55-2.17,3.81-3.25,10.28-8.83,20.35-18.11,30.09-27.63l68.13,14.44c-2.31,11.35-4.21,22.8-5.65,34.35-.21,1.77-.4,3.53-.61,5.3l-110.02-11.5c2.03-1.63,4.06-3.25,6.07-4.89h-.01ZM495.89,1006.24l117.39,12.27c-.57,5.8-1.03,11.59-1.37,17.39l-84.97.03h-72.68c14.32-9.41,28.25-19.35,41.64-29.69h-.01ZM611.33,1074.22l-25.33-.03c-2.77-.01-5.03-2.27-5.03-5.06l.03-13.23c0-2.79,2.26-5.03,5.04-5.02l25.26.03c-.19,7.78-.18,15.55.04,23.3h0ZM561.86,1055.6l-.03,13.23c0,2.8-2.26,5.04-5.04,5.04l-32.86-.05c-2.77,0-5.03-2.27-5.03-5.04l.03-13.24c0-2.77,2.26-5.03,5.04-5.02l32.85.04c2.8,0,5.04,2.26,5.04,5.04h0ZM500.55,1056.01l-.03,13.24c0,2.77-2.26,5.02-5.04,5.02l-32.86-.04c-2.77,0-5.04-2.27-5.03-5.06v-13.23c.01-2.77,2.28-5.03,5.06-5.03l32.86.05c2.79,0,5.04,2.27,5.04,5.04h0ZM453.29,1088.85h41.52s117.17-.05,117.17-.05c.33,5.69.82,11.36,1.37,17.04l-118.43,12.51c-13.39-10.25-27.26-20.09-41.63-29.49h0ZM503.05,1124.69l111.04-11.73c1.51,13.27,3.63,26.48,6.34,39.63l-68.72,14.65c-15.37-14.87-31.6-29.05-48.66-42.56h0ZM557.84,1173.27l64.1-13.67c1.44,6.46,3.01,12.89,4.73,19.31,1.75,6.53,3.66,13.01,5.69,19.43l-39.43,12.85c-11.11-13.08-22.81-25.71-35.08-37.92h0ZM616.44,1240.66c-5.98-7.99-12.17-15.85-18.55-23.56l36.67-11.94c4.24,12.75,9.03,25.25,14.35,37.48l-23.44,10.45c-2.96-4.17-5.96-8.34-9.03-12.43h0ZM629.67,1259.07l22.16-9.87c5.52,12.18,11.6,24.11,18.21,35.76l-17.38,10.05c-7.25-12.24-14.9-24.24-22.99-35.94h0ZM656.29,1301.19l17.34-10.04c6.77,11.51,14.06,22.74,21.87,33.66l-19.27,14.02c-6.22-12.8-12.86-25.36-19.94-37.64ZM679.39,1345.39l20.3-14.77c.98,1.32,1.95,2.66,2.95,3.97,7.1,9.39,14.55,18.46,22.31,27.23l-27.79,25.04c-5.43-14.07-11.36-27.91-17.77-41.47ZM705.57,1410.01c-1.83-5.36-3.75-10.66-5.71-15.94l29.9-26.94c9.05,9.89,18.52,19.34,28.4,28.36l-42.42,47.15c-2.98-10.55-6.34-21.45-10.16-32.63h-.01ZM717.99,1450.86l45.5-50.58c10,8.86,20.42,17.28,31.22,25.22l-63.44,87.4c-2.96-18.49-7.21-39.38-13.28-62.04h0ZM751.59,1549.88l-1.29,2.22-1.95,3.4-1.42,2.47-4.02,6.97-5.25,9.1c-.54-12.65-1.85-30.05-4.85-51.06l67.72-93.3c4.79,3.43,9.66,6.77,14.6,10.01l-49.86,86.48-4.89,8.49-6.72,11.64-2.06,3.57h-.01ZM819.7,1497.65c2.42,1.4,3.24,4.48,1.84,6.88l-16.46,28.45c-1.39,2.4-4.49,3.23-6.88,1.84l-11.46-6.63c-2.41-1.4-3.23-4.48-1.82-6.88l16.44-28.44c1.4-2.42,4.48-3.24,6.88-1.84l11.45,6.62h.01ZM816.26,1467.73l11.55-19.99c3.11,1.89,6.24,3.75,9.41,5.57,3.58,2.07,7.17,4.09,10.81,6.04l-11.6,20.05c-1.39,2.41-4.48,3.23-6.89,1.84l-11.46-6.63c-2.4-1.39-3.22-4.46-1.82-6.88h0ZM767.91,1588.13l-11.45-6.62c-2.4-1.39-3.23-4.48-1.84-6.88l16.47-28.45c1.39-2.4,4.48-3.23,6.89-1.84l11.45,6.65c2.41,1.39,3.23,4.46,1.84,6.87l-16.46,28.45c-1.39,2.41-4.48,3.23-6.9,1.83h0ZM783.97,1599.65l8.9-15.45,2.41-4.19,3.38-5.85,2.42-4.21,2.45-4.24,52.99-91.9,4.44-7.7c5.02,2.52,10.09,4.92,15.2,7.24l-47.12,105.97c-18.74,7.48-33.91,14.63-45.06,20.33h-.01ZM838.51,1575.63l44.17-99.33h0c12.29,5.37,24.79,10.19,37.46,14.43l-21.25,65.47c-22.63,6.05-42.86,12.79-60.39,19.43h.01ZM942.02,1546.24c-12.14,2.37-23.78,5.01-34.88,7.82l19.82-61.11c12.75,4.05,25.69,7.52,38.78,10.4l-8.51,40.14c-5.07.86-10.15,1.77-15.21,2.75h0ZM1009.72,1536.84c-14.98,1.26-29.96,3.04-44.9,5.4l7.93-37.41c11.42,2.32,22.94,4.24,34.58,5.67,1.7.2,3.39.39,5.08.58l-2.69,25.76ZM1016.98,1536.28l2.56-24.44c13.35,1.3,26.73,1.99,40.09,2.09v20.77c-14.2.02-28.42.55-42.65,1.58ZM1062.45,1488.55c-14.59,0-29.23-.74-43.84-2.27-14.75-1.51-29.47-3.82-44.12-6.92-14.46-3.06-28.84-6.9-43.09-11.53l-.11-.03c-14-4.55-27.87-9.87-41.54-15.98l-.11-.05c-5.38-2.4-10.74-4.92-16.05-7.57-7.99-3.96-15.93-8.21-23.76-12.74-7.53-4.35-14.89-8.9-22.09-13.66-5.21-3.43-10.31-6.96-15.33-10.59-12.13-8.78-23.73-18.13-34.77-28.03-11.13-9.97-21.69-20.49-31.64-31.52-9.99-11.06-19.37-22.63-28.12-34.66l-.04-.05c-8.74-12.03-16.83-24.54-24.27-37.46-7.4-12.86-14.15-26.15-20.2-39.82-6-13.54-11.34-27.45-15.94-41.71-2.32-7.11-4.44-14.3-6.39-21.58-1.92-7.16-3.64-14.34-5.18-21.54-3.15-14.64-5.51-29.34-7.1-44.06v-.05c-.64-5.99-1.16-11.97-1.54-17.93-1.16-17.68-1.2-35.33-.14-52.9.37-6.13.86-12.24,1.5-18.35,1.54-14.8,3.87-29.53,6.97-44.11,3.1-14.53,6.96-28.93,11.6-43.13,4.6-14.1,9.96-27.99,16.08-41.66,6.01-13.49,12.76-26.77,20.26-39.75l.47-.81c7.35-12.7,15.3-24.96,23.78-36.7l.03-.03c8.76-12.13,18.11-23.73,27.99-34.78,9.96-11.13,20.48-21.69,31.5-31.65,11.06-10,22.63-19.41,34.69-28.17,5.02-3.66,10.14-7.2,15.33-10.63,14.67-9.72,29.97-18.52,45.85-26.38,5.31-2.62,10.67-5.14,16.1-7.54,13.52-6.01,27.44-11.34,41.68-15.95l.05-.03c7.18-2.33,14.44-4.49,21.78-6.46,7.09-1.9,14.2-3.62,21.32-5.14,14.67-3.14,29.38-5.51,44.11-7.1,14.87-1.61,29.76-2.43,44.6-2.47h1.1c14.56,0,29.09.76,43.53,2.26,14.83,1.53,29.56,3.86,44.15,6.96,14.54,3.09,28.9,6.95,43.09,11.58l.1.04c14.09,4.59,27.99,9.94,41.65,16.05,5.69,2.52,11.35,5.2,16.95,7.99,7.82,3.91,15.56,8.06,23.19,12.47,7.68,4.43,15.22,9.1,22.61,14,4.93,3.27,9.8,6.63,14.58,10.09,5.79,4.19,11.45,8.51,16.99,12.95,6.09,4.89,12.02,9.92,17.77,15.11,11.17,10.02,21.7,20.57,31.58,31.59l.03.03c10.01,11.13,19.34,22.74,28.01,34.75l.03.04c8.75,12.12,16.81,24.64,24.19,37.51.08.14.16.29.24.43.06.11.14.23.19.34,7.24,12.72,13.8,25.75,19.65,39.08v.03c6.03,13.62,11.32,27.54,15.88,41.69,4.56,14.17,8.4,28.56,11.48,43.11,3.09,14.53,5.43,29.23,7,44.01v.05c.67,6.17,1.2,12.35,1.59,18.54,1.12,17.59,1.17,35.26.14,52.9-.35,5.88-.82,11.74-1.41,17.62v.08c-1.49,14.74-3.73,29.44-6.77,44.06v.05c-3,14.49-6.8,28.88-11.36,43.1l-.05.14c-4.5,14.06-9.79,27.98-15.85,41.65-5.98,13.52-12.72,26.82-20.23,39.83-.03.04-.04.06-.06.1-7.52,13.01-15.6,25.47-24.24,37.38l-.03.03c-8.8,12.16-18.18,23.74-28.07,34.72l-.03.03c-10.01,11.15-20.57,21.69-31.56,31.56l-.03.03c-11.13,10.01-22.72,19.38-34.73,28.07-4.94,3.59-9.95,7.06-15.02,10.39-14.77,9.79-30.09,18.57-45.85,26.39-5.43,2.69-10.92,5.27-16.46,7.73-13.61,6.04-27.53,11.36-41.66,15.94l-.05.03c-14.15,4.59-28.54,8.45-43.09,11.55h-.06c-14.53,3.1-29.23,5.45-44.03,7.02-14.78,1.58-29.67,2.38-44.6,2.41h-.74l-.06-.02ZM1310.36,1477.25l-11.45,6.63c-2.41,1.39-5.5.55-6.88-1.84l-13.23-22.85c6.83-3.69,13.57-7.58,20.21-11.64l13.18,22.81c1.4,2.41.58,5.49-1.83,6.88h0ZM1320.19,1493.65c2.42-1.4,5.5-.58,6.9,1.84l16.44,28.44c1.4,2.41.58,5.5-1.82,6.88l-11.46,6.63c-2.41,1.39-5.5.57-6.88-1.84l-16.46-28.44c-1.4-2.41-.58-5.49,1.84-6.88l11.44-6.63ZM1066.8,1534.72v-20.79c13.39-.1,26.77-.82,40.1-2.13l2.62,24.83c-14.2-1.15-28.45-1.77-42.72-1.9h0ZM1134.28,1539.11c-5.81-.71-11.64-1.3-17.48-1.84l-2.77-26.23c13.27-1.51,26.48-3.63,39.63-6.33l8.18,38.42c-9.17-1.55-18.35-2.9-27.57-4.02h0ZM1169.46,1544.47l-8.79-41.26c6.51-1.44,12.99-3.03,19.46-4.75,6.51-1.74,12.94-3.66,19.32-5.67l20.54,63.11c-16.75-4.53-33.59-8.35-50.53-11.42h0ZM1228.29,1558.2l-22-67.6c12.74-4.24,25.25-9.02,37.49-14.34l45.88,102.9c-20.26-8.08-40.73-15.07-61.36-20.96h-.01ZM1299.24,1583.07l-48.93-109.73c5.23-2.37,10.43-4.83,15.56-7.4l57.89,100.41,3.59,6.23,5.8,10.08,7.29,12.65,5.36,9.29c-15.38-7.83-30.92-14.99-46.57-21.53h0ZM1371.98,1584.14l-11.44,6.62c-2.42,1.4-5.51.57-6.9-1.83l-16.46-28.46c-1.39-2.4-.57-5.49,1.83-6.87l11.46-6.63c2.41-1.39,5.5-.57,6.88,1.84l16.46,28.44c1.4,2.41.57,5.5-1.84,6.9h.01ZM1390.72,1576.59l-4.49-7.72-.42-.72-2.61-4.56v-.05l-3.14-5.45s-.05-.06-.08-.1l-1.78-3.11-2.82-4.92-.58-1.02-4.21-7.3-7.4-12.82-51.49-89.3c4.83-3.17,9.6-6.47,14.31-9.85l69.44,95.48c-2.9,20.88-4.2,38.38-4.74,51.45h0ZM1396.94,1515l-65.13-89.54c1.34-1,2.69-1.97,4.01-2.98,9.39-7.1,18.45-14.54,27.2-22.29l46.98,52.13c-5.96,22.81-10.15,43.93-13.06,62.68h0ZM1421.79,1412.47c-3.58,10.82-6.75,21.36-9.57,31.59l-43.87-48.67c9.9-9.05,19.36-18.54,28.37-28.42l31.17,28.03c-2.11,5.79-4.16,11.61-6.1,17.48h0ZM1430.56,1387.76l-29.05-26.13c8.86-10.01,17.28-20.44,25.23-31.25l21.39,15.52c-6.34,13.68-12.21,27.64-17.57,41.85h0ZM1451.26,1339.31l-20.31-14.74c7.73-10.84,15.01-22.09,21.83-33.71l18.23,10.52c-7.02,12.38-13.59,25.04-19.75,37.93h0ZM1474.6,1295.19l-18.23-10.52c6.63-11.7,12.71-23.63,18.23-35.79l22.79,10.14c-8.02,11.77-15.61,23.83-22.79,36.17ZM1510.19,1240.93c-2.94,4-5.81,8.03-8.66,12.09l-24.02-10.68c5.36-12.31,10.16-24.82,14.39-37.5l37.01,12c-6.44,7.88-12.69,15.9-18.71,24.09h-.01ZM1533.84,1210.91l-39.73-12.9c4.04-12.79,7.5-25.72,10.38-38.8l64.2,13.63c-12.19,12.24-23.81,24.93-34.84,38.07h-.01ZM1574.77,1166.8l-68.8-14.6c2.69-13.13,4.78-26.36,6.28-39.67l110.94,11.6c-16.99,13.52-33.14,27.74-48.42,42.67h0ZM1631.3,1117.78l-118.33-12.37c.54-5.57,1.01-11.16,1.34-16.75l102.13-.03h55.79c-14.11,9.28-27.75,19-40.92,29.14h-.01ZM1514.95,1050.33l25.41.04c2.77,0,5.03,2.27,5.03,5.06l-.03,13.23c0,2.79-2.26,5.03-5.04,5.02l-25.37-.03c.2-7.76.2-15.54,0-23.32h0ZM1564.49,1068.96l.03-13.23c0-2.8,2.26-5.04,5.04-5.04l32.86.05c2.77,0,5.03,2.27,5.03,5.04l-.03,13.24c0,2.77-2.26,5.03-5.04,5.02l-32.85-.04c-2.8,0-5.04-2.26-5.04-5.04ZM1625.8,1068.55l.03-13.24c0-2.77,2.26-5.02,5.04-5.02l32.86.04c2.77,0,5.04,2.27,5.03,5.06v13.23c-.03,2.77-2.28,5.03-5.07,5.03l-32.85-.05c-2.79,0-5.04-2.27-5.04-5.04h0ZM1663.12,1035.72h-43.47l-105.31.04c-.34-5.91-.83-11.82-1.41-17.73l117.59-12.42c13.62,10.48,27.75,20.52,42.38,30.1h-9.79.01Z"/>
  <g>
    <g>
      <g>
        <g>
          <path class="st1" d="M891.48,499.15c22.36,8.35,55.79,24.66,88.55,55.04-39.53-5.71-77.87-15.42-114.64-28.74,8.13-9.36,16.85-18.16,26.09-26.3h0Z"/>
          <path class="st1" d="M1029.83,559.17c-7.6-.43-15.14-1.01-22.67-1.73-6.44-12.45-27.91-46.4-84.26-82.2,11.12-7.24,22.77-13.65,34.88-19.14,20.69,14.3,53.37,44.83,72.05,103.06h0Z"/>
        </g>
        <path class="st1" d="M1234.83,499.15c-22.36,8.35-55.79,24.66-88.55,55.04,39.53-5.71,77.87-15.42,114.64-28.74-8.13-9.36-16.85-18.16-26.09-26.3h0Z"/>
        <path class="st1" d="M1096.48,559.17c7.6-.43,15.14-1.01,22.67-1.73,6.44-12.45,27.91-46.4,84.26-82.2-11.12-7.24-22.77-13.65-34.88-19.14-20.69,14.3-53.37,44.83-72.05,103.06h0Z"/>
        <path class="st1" d="M1128.9,441.92c-43.84,44.54-48.88,105.13-49.46,117.98-5.41.16-10.84.24-16.29.24s-10.88-.08-16.29-.24c-.58-12.85-5.61-73.44-49.46-117.98,21.03-5.65,43.06-8.65,65.75-8.66,22.69.01,44.71,3.02,65.75,8.66h0Z"/>
      </g>
      <g>
        <g>
          <path class="st1" d="M1234.83,1624.77c-22.36-8.35-55.79-24.66-88.55-55.04,39.53,5.71,77.87,15.42,114.64,28.74-8.13,9.36-16.85,18.16-26.09,26.3Z"/>
          <path class="st1" d="M1096.48,1564.74c7.6.43,15.14,1.01,22.67,1.73,6.44,12.45,27.91,46.4,84.26,82.2-11.12,7.24-22.77,13.65-34.88,19.14-20.69-14.3-53.37-44.83-72.05-103.06h0Z"/>
        </g>
        <path class="st1" d="M891.48,1624.77c22.36-8.35,55.79-24.66,88.55-55.04-39.53,5.71-77.87,15.42-114.64,28.74,8.13,9.36,16.85,18.16,26.09,26.3Z"/>
        <path class="st1" d="M1029.83,1564.74c-7.6.43-15.14,1.01-22.67,1.73-6.44,12.45-27.91,46.4-84.26,82.2,11.12,7.24,22.77,13.65,34.88,19.14,20.69-14.3,53.37-44.83,72.05-103.06h0Z"/>
        <path class="st1" d="M997.41,1681.99c43.84-44.54,48.88-105.13,49.46-117.98,5.41-.16,10.84-.24,16.29-.24s10.88.08,16.29.24c.58,12.85,5.61,73.44,49.46,117.98-21.03,5.65-43.06,8.65-65.75,8.66-22.69-.01-44.71-3.02-65.75-8.66h0Z"/>
      </g>
    </g>
    <g>
      <g>
        <g>
          <path class="st1" d="M489.91,929.23c18.41-15.18,49.25-35.98,91.94-49.16-24.71,31.38-52.29,59.72-82.21,84.91-4.04-11.72-7.3-23.67-9.73-35.74h0Z"/>
          <path class="st1" d="M611.07,839.43c-4.17,6.37-8.44,12.61-12.83,18.77-14-.64-54.14.97-113.31,31.87-.71-13.25-.44-26.55.87-39.77,22.73-10.77,65.51-23.8,125.28-10.87h0Z"/>
        </g>
        <path class="st1" d="M661.58,631.88c-3.94,23.54-6.53,60.64,3.39,104.2,14.82-37.09,25.58-75.15,32.43-113.65-12.17,2.36-24.15,5.51-35.82,9.44h0Z"/>
        <path class="st1" d="M644.4,781.7c3.43-6.8,6.7-13.62,9.84-20.5-7.56-11.8-26.23-47.37-29.05-114.07-11.83,6.01-23.21,12.9-34.01,20.64,2.03,25.07,12.14,68.63,53.23,113.93h-.01Z"/>
        <path class="st1" d="M559.06,695c16.65,60.24,66.61,94.89,77.44,101.82-2.57,4.77-5.21,9.51-7.94,14.23-2.72,4.72-5.51,9.38-8.36,13.99-11.42-5.92-66.4-31.86-126.9-16.16,5.63-21.04,14.04-41.62,25.37-61.27,11.35-19.64,24.97-37.22,40.38-52.61h0Z"/>
      </g>
      <g>
        <g>
          <path class="st1" d="M1636.4,1194.69c-18.41,15.18-49.25,35.98-91.94,49.16,24.71-31.38,52.29-59.72,82.21-84.91,4.04,11.72,7.3,23.67,9.73,35.74h0Z"/>
          <path class="st1" d="M1515.24,1284.49c4.17-6.37,8.44-12.61,12.83-18.77,14,.64,54.14-.97,113.31-31.87.71,13.25.44,26.55-.87,39.77-22.73,10.77-65.51,23.8-125.28,10.87h.01Z"/>
        </g>
        <path class="st1" d="M1464.73,1492.04c3.94-23.54,6.53-60.64-3.39-104.2-14.82,37.09-25.58,75.15-32.43,113.65,12.17-2.36,24.15-5.51,35.82-9.44h0Z"/>
        <path class="st1" d="M1481.92,1342.21c-3.43,6.8-6.7,13.62-9.84,20.5,7.56,11.8,26.23,47.37,29.05,114.07,11.83-6.01,23.21-12.9,34.01-20.64-2.03-25.07-12.14-68.63-53.23-113.93h0Z"/>
        <path class="st1" d="M1567.25,1428.92c-16.65-60.24-66.61-94.89-77.44-101.82,2.57-4.77,5.21-9.51,7.94-14.23,2.72-4.72,5.51-9.38,8.36-13.99,11.42,5.92,66.4,31.86,126.9,16.16-5.63,21.04-14.04,41.62-25.37,61.27-11.35,19.64-24.97,37.22-40.38,52.61h-.01Z"/>
      </g>
    </g>
    <g>
      <g>
        <g>
          <path class="st1" d="M661.58,1492.04c-3.94-23.54-6.53-60.64,3.39-104.2,14.82,37.09,25.58,75.15,32.43,113.65-12.17-2.36-24.15-5.51-35.82-9.44h0Z"/>
          <path class="st1" d="M644.4,1342.21c3.43,6.8,6.7,13.62,9.84,20.5-7.56,11.8-26.23,47.37-29.05,114.07-11.83-6.01-23.21-12.9-34.01-20.64,2.03-25.07,12.14-68.63,53.23-113.93h-.01Z"/>
        </g>
        <path class="st1" d="M489.91,1194.69c18.41,15.18,49.25,35.98,91.94,49.16-24.71-31.38-52.29-59.72-82.21-84.91-4.04,11.72-7.3,23.67-9.73,35.74h0Z"/>
        <path class="st1" d="M611.07,1284.49c-4.17-6.37-8.44-12.61-12.83-18.77-14,.64-54.14-.97-113.31-31.87-.71,13.25-.44,26.55.87,39.77,22.73,10.77,65.51,23.8,125.28,10.87h0Z"/>
        <path class="st1" d="M493.31,1315.04c60.49,15.7,115.48-10.24,126.9-16.16,2.84,4.6,5.63,9.27,8.36,13.99,2.72,4.72,5.37,9.46,7.94,14.23-10.84,6.93-60.79,41.58-77.44,101.82-15.41-15.39-29.02-32.97-40.38-52.61-11.33-19.65-19.74-40.23-25.37-61.27h0Z"/>
      </g>
      <g>
        <g>
          <path class="st1" d="M1464.73,631.88c3.94,23.54,6.53,60.64-3.39,104.2-14.82-37.09-25.58-75.15-32.43-113.65,12.17,2.36,24.15,5.51,35.82,9.44h0Z"/>
          <path class="st1" d="M1481.92,781.7c-3.43-6.8-6.7-13.62-9.84-20.5,7.56-11.8,26.23-47.37,29.05-114.07,11.83,6.01,23.21,12.9,34.01,20.64-2.03,25.07-12.14,68.63-53.23,113.93h0Z"/>
        </g>
        <path class="st1" d="M1636.4,929.23c-18.41-15.18-49.25-35.98-91.94-49.16,24.71,31.38,52.29,59.72,82.21,84.91,4.04-11.72,7.3-23.67,9.73-35.74h0Z"/>
        <path class="st1" d="M1515.24,839.43c4.17,6.37,8.44,12.61,12.83,18.77,14-.64,54.14.97,113.31,31.87.71-13.25.44-26.55-.87-39.77-22.73-10.77-65.51-23.8-125.28-10.87h.01Z"/>
        <path class="st1" d="M1633,808.88c-60.49-15.7-115.48,10.24-126.9,16.16-2.84-4.6-5.63-9.27-8.36-13.99-2.72-4.72-5.37-9.46-7.94-14.23,10.84-6.93,60.79-41.58,77.44-101.82,15.41,15.39,29.02,32.97,40.38,52.61,11.33,19.65,19.74,40.23,25.37,61.27h.01Z"/>
      </g>
    </g>
  </g>
  <g>
    <g>
      <path class="st3" d="M349.36,1180.2l-3.49.72-1.11.23-.92.19c2.04,11.74-2.81,18.83-14.56,21.26l-99.8,20.64c-6.97,1.45-11.97,1.24-14.96-.63-2.98-1.85-5.26-6.23-6.85-13.1l-5.52,1.15,11.64,56.28,5.52-1.15c-1.17-6.47-.91-11.25.82-14.33s6.3-5.38,13.74-6.92l99.8-20.64c6.94-1.44,11.93-1.24,14.98.62,3.04,1.85,5.32,6.22,6.82,13.11l5.52-1.15-11.64-56.28h.01Z"/>
      <path class="st3" d="M345.87,1180.91l-2.79-50.88-5.64.3c-.52,7.73-7.23,13.64-20.15,17.77-12.91,4.12-33.19,6.94-60.81,8.46l-43.66,2.4,131.27-108.87-.29-5.43-79.34,4.35c-45.69,2.51-69.59-3.35-71.7-17.6l-5.64.32,2.81,51.28,5.64-.32c.37-7.52,7.04-13.34,20-17.49,12.98-4.14,30.65-6.83,53.04-8.06l34.88-1.92-110.05,91.72,2.12,38.51,5.64-.32c-.19-6.34.77-10.93,2.89-13.76,2.13-2.82,6.67-4.43,13.63-4.8l40.49-2.22c51.71-2.85,79.06,2.84,82.03,17.04l4.51-.25,1.12-.06v-.16h0Z"/>
      <path class="st3" d="M330.68,897.92c-14.96-19.23-34.9-30.76-59.83-34.6-19.6-3.01-35.06-.19-46.38,8.5-11.32,8.68-18.56,23.24-21.71,43.68l-14.07,91.31,5.59.86c1.15-6.48,3.08-10.86,5.76-13.14,2.7-2.28,7.79-2.85,15.31-1.69l100.72,15.51c7,1.08,11.6,3.03,13.82,5.81,2.21,2.8,2.81,7.69,1.82,14.68l5.57.86,9.37-60.87c4.33-28.03-1-51.68-15.95-70.91h-.02ZM341.21,953.12c-1.82,11.78-7.28,23.3-16.38,34.59l-115.95-17.87c-4.59-9.81-5.84-21.5-3.75-35.06,3.2-20.83,11.92-34.69,26.13-41.59,14.21-6.88,31.3-8.79,51.26-5.71,19.89,3.06,35.28,10.62,46.18,22.69,10.89,12.07,15.06,26.38,12.51,42.95Z"/>
      <path class="st3" d="M380.36,816.52l-2.76-.87c-.21.61-.44,1.2-.68,1.77-4.1,9.87-11.56,13.09-22.4,9.68l-97.19-30.63c-6.81-2.14-11.06-4.75-12.75-7.84-1.7-3.08-1.56-8.01.4-14.78l-5.38-1.69-17.28,54.82,5.38,1.69c2.13-6.23,4.69-10.26,7.69-12.12,3.01-1.84,8.13-1.63,15.38.67l97.2,30.63c6.75,2.13,11.01,4.74,12.76,7.84,1.77,3.1,1.63,8.02-.43,14.78l5.38,1.69,17.28-54.82-2.62-.82h.02Z"/>
      <path class="st3" d="M436.07,686.09c-.98,1.84-2.3,3.39-3.95,4.64-2.5,1.89-5.76,3.09-9.79,3.61-6.7.86-14.72.76-24.1-.32l-126.35-14.02-2.98,6.28,90.29,96.19c13.39,14.34,18.42,25.57,15.08,33.71l2.64,1.25,2.46,1.17.98-2.07,21.61-45.48-5.11-2.42-2.66,5.62c-1.79,3.75-4.35,6.24-7.72,7.47-3.35,1.22-6.8,1-10.34-.68-6.72-3.2-15.81-10.47-27.26-21.79l22.12-46.56,42.97,4.85c.98.13,1.83.35,2.53.68,2.33,1.11,3.22,2.28,2.62,3.52l-1.2,2.53,5.09,2.42,17.07-35.95,1.06-2.23-5.09-2.42h.03ZM343.56,753.47l-45.96-49.09,65.75,7.43-19.79,41.66h0Z"/>
      <path class="st3" d="M521.16,590.5l-63.82-47.33c-36.75-27.26-51.39-47.05-43.92-59.36l-4.53-3.35-30.6,41.25,4.54,3.37c5.08-5.55,13.93-5.78,26.57-.68,12.61,5.09,27.93,14.33,45.95,27.68l28.06,20.81-143.26.28-22.98,30.97,4.54,3.37c3.91-5.01,7.58-7.92,11.01-8.74,3.44-.82,7.96.84,13.56,5.01l32.57,24.15c38.8,28.78,56.56,49.71,53.28,62.81-.24.95-.59,1.84-1.05,2.71l4.54,3.35,4.49-6.05,25.96-35.01-4.54-3.37c-5.32,5.61-14.27,5.88-26.85.79-12.57-5.08-29.96-15.86-52.18-32.33l-35.12-26.05,170.54.1,3.24-4.38h0Z"/>
      <path class="st3" d="M664.25,452.4l-.78-.98c-8.12,5.79-22.45,5.23-42.97-1.64l-45.77-15.35c5.28-13.34,7.76-25.22,7.41-35.62-.33-10.4-3.51-19.38-9.52-26.91-5.37-6.73-11.56-10.06-18.57-9.99-7,.08-14.85,3.59-23.56,10.53l-58.42,46.63,3.52,4.41c5.25-3.98,9.63-5.9,13.15-5.76,3.53.15,7.67,3.19,12.4,9.13l63.58,79.64c4.41,5.54,6.49,10.08,6.23,13.63-.28,3.56-3.14,7.57-8.61,12.03l3.53,4.4,45.09-36-3.52-4.41c-9.66,7.24-18.25,6.17-25.72-3.22l-36.37-45.56,81.54,27.54c7.63,2.53,13.66,2.04,18.07-1.48l14.69-11.74,7.35-5.86-2.74-3.43h0ZM565.4,434.64c-5.13,4.11-13.37,6.43-24.68,6.95l-30.53-38.23c1.98-6.58,5.47-11.87,10.49-15.88,5.7-4.55,12.62-5.8,20.77-3.75,8.16,2.04,15.75,7.48,22.77,16.28,5.76,7.21,8.74,13.71,8.95,19.49.2,5.79-2.38,10.83-7.78,15.13h0Z"/>
      <path class="st3" d="M730.26,372.39l-7.24,4.15c9.13,23.67,2.27,42.04-20.58,55.13l-10.81,6.19-33.59-58.65,36.95-22.51-4.09-7.15-10,5.72c-10.06,5.78-18.93,7.19-26.61,4.27-7.68-2.91-14.84-10.19-21.5-21.81-3.35-5.85-6.77-12.69-10.28-20.53l7.76-4.44c11.7-6.71,21.7-9.41,30.02-8.12s15.47,6.99,21.45,17.1l7.44-4.26-22.31-38.95-4.79,2.74c1.8,3.48.5,6.48-3.92,9.02l-72.82,41.71,2.81,4.89c5.72-3.1,10.33-4.31,13.82-3.64,3.49.66,7.15,4.33,10.97,11l50.59,88.31c3.56,6.22,4.92,11.05,4.09,14.48-.43,1.78-1.55,3.57-3.38,5.37-1.7,1.69-4.04,3.42-6.99,5.14l2.37,4.15.43.74,74.36-42.58c2.51-1.44,4.65-.68,6.44,2.27l5.09-2.93-15.7-46.81h.02Z"/>
      <path class="st3" d="M822.33,335.21c-2.79-6.99-7.11-12.11-12.96-15.33-5.89-3.14-16.09-6.25-30.59-9.34-19.15-4.11-31.69-7.81-37.6-11.08-5.99-3.24-10.1-7.65-12.33-13.24-2.31-5.8-2.21-11.41.33-16.85,2.53-5.42,6.91-9.38,13.13-11.87,7.6-3.03,15.23-2.6,22.9,1.32,7.67,3.92,13.69,10.52,18.07,19.77l7.97-3.18-13.64-34.16c-12.29.61-21.68,2.19-28.17,4.79-12.93,5.16-22.62,13.59-29.12,25.3-6.49,11.71-7.65,22.8-3.47,33.28,1.6,4.01,3.98,7.49,7.15,10.44,3.17,2.95,7.07,5.36,11.71,7.21,8.39,2.56,17.33,4.8,26.82,6.76,17.36,3.61,28.93,7.01,34.68,10.19,5.79,3.25,9.95,8.05,12.48,14.38,2.9,7.29,2.95,14.22.14,20.83s-8.27,11.53-16.36,14.77c-8.83,3.52-17.93,2.85-27.3-2-9.38-4.87-16.28-12.82-20.71-23.88l-7.74,3.09,15.74,39.41c13.68-.23,25.28-2.26,34.83-6.07,13.34-5.32,23.49-14.55,30.45-27.68s8.16-25.41,3.59-36.85h0Z"/>
      <path class="st3" d="M900.62,335.58l-27.79-117.22,6.18-1.46c22.95-5.45,37.14,2.75,42.55,24.58l8.12-1.92-10.3-43.47-5.49,1.3c.81,3.43-.08,5.46-2.67,6.08l-99.96,23.68c-1.98.48-3.87-.88-5.67-4.09l-5.03,1.2,10.3,43.45,8.01-1.89c-4.5-22.05,3.81-35.57,24.93-40.58l7.88-1.88,27.79,117.24c1.63,6.9,1.56,11.89-.19,14.98-1.77,3.1-6.07,5.51-12.91,7.2l1.3,5.5,55.93-13.25-1.3-5.5c-11.66,2.46-18.88-2.18-21.66-13.95h-.02Z"/>
      <path class="st3" d="M1079.47,333.55c-5.25.14-9.9-2.48-13.95-7.88-4.05-5.38-7.92-12.42-11.61-21.1l-50.2-116.81-6.92.5-39.08,126c-5.85,18.74-13.14,28.66-21.87,29.77l.42,5.62,52.51-3.83-.42-5.64-6.2.45c-4.15.3-7.58-.69-10.3-3.01-2.72-2.31-4.22-5.42-4.51-9.33-.54-7.43,1.29-18.91,5.5-34.46l51.4-3.76,17,39.77c.38.92.59,1.77.66,2.55.19,2.57-.4,3.92-1.77,4.02l-2.79.2.4,5.62,42.16-3.08-.42-5.62v.02ZM975.21,286.36l19.99-64.2,26,60.83-45.99,3.37Z"/>
      <path class="st3" d="M1186.58,201.31l-.72,5.6c7.73,1.7,12.33,9.43,13.83,23.22,1.5,13.78.29,36.01-3.63,66.72-1.79,14-4.63,24.27-8.5,30.84-3.88,6.58-9.37,11.19-16.47,13.83-7.09,2.66-15.45,3.37-25.09,2.13-9.63-1.24-17.44-4.3-23.4-9.22-5.98-4.91-9.84-10.06-11.59-15.47-1.77-5.41-2.14-11.99-1.15-19.77l10.47-81.93c.91-7.1,2.75-11.75,5.51-13.96,2.77-2.19,7.63-2.93,14.56-2.19l.71-5.6-57.01-7.29-.71,5.6c6.43.98,10.83,2.77,13.23,5.4s3.1,7.72,2.13,15.28l-10.58,82.86c-1.25,9.8-.04,18.36,3.66,25.66,3.68,7.31,9.6,13.3,17.73,17.98,8.12,4.68,18.3,7.79,30.49,9.36,11.66,1.49,21.89.9,30.68-1.77,8.79-2.67,15.6-6.76,20.4-12.27,4.82-5.51,7.99-11.66,9.53-18.45,1.54-6.8,3.33-18.25,5.38-34.32,5.93-46.4,16.3-69.77,31.12-70.09l.71-5.6-51.3-6.56h0Z"/>
      <path class="st3" d="M1352.75,248.18c-4.04-5.72-11.37-10.21-22.02-13.45l-71.52-21.73-1.64,5.4c6.25,2.07,10.32,4.59,12.19,7.57,1.88,2.99,1.71,8.12-.5,15.4l-29.63,97.5c-2.06,6.77-4.63,11.06-7.7,12.85-3.09,1.79-8.02,1.7-14.78-.28l-1.65,5.4,55.22,16.78,1.64-5.4c-11.44-3.87-15.41-11.55-11.92-23.04l16.96-55.77,23.47,82.81c2.24,7.72,6.07,12.4,11.46,14.04l19.09,5.81,7.89,2.4,1.64-5.4c-2.71-1-5.27-2.71-7.68-5.16-5.98-6-11.07-16.39-15.3-31.18l-13.29-46.42c14-3.2,25.18-7.89,33.57-14.06,8.4-6.18,13.98-13.87,16.8-23.1,2.5-8.23,1.74-15.23-2.29-20.96h0ZM1327.12,278.15c-2.69,8.83-6.36,14.97-11,18.42-4.65,3.44-10.28,4.17-16.87,2.17-6.3-1.92-12.87-7.39-19.71-16.42l14.22-46.81c6.53-2.09,12.87-2.22,19.03-.34,6.97,2.12,11.92,7.11,14.84,14.99,2.94,7.88,2.76,17.2-.52,27.98h.01Z"/>
      <path class="st3" d="M1449.68,443.98c-1.84-2.55-2.95-5.84-3.37-9.89-.68-6.71-.37-14.73.95-24.07l17.33-125.95-6.19-3.14-98.52,87.74c-10.61,9.41-19.47,14.48-26.61,15.23-2.76.32-5.25-.04-7.49-1.02l-2.55,5.02,8.18,4.16,38.76,19.67,2.56-5.03-5.56-2.82c-3.69-1.88-6.12-4.51-7.25-7.91-1.15-3.38-.82-6.82.95-10.31,3.37-6.65,10.87-15.54,22.5-26.68l45.96,23.32-5.98,42.84c-.15.98-.4,1.83-.76,2.52-1.17,2.31-2.37,3.15-3.58,2.53l-2.5-1.27-2.55,5.03,35.53,18.04,2.14,1.08,2.56-5.03c-1.83-1.03-3.33-2.38-4.53-4.06h.02ZM1430.39,374.66l-41.12-20.86,50.26-44.66-9.14,65.52h0Z"/>
      <path class="st3" d="M1620.07,394.58l-3.48,4.44c5.41,5.23,5.41,14.09-.01,26.57-5.42,12.5-15.04,27.57-28.86,45.22l-21.53,27.52,3.46-143.21-30.38-23.77-3.47,4.44c4.89,4.04,7.72,7.78,8.44,11.24.73,3.46-1.05,7.93-5.35,13.42l-24.99,31.94c-29.81,38.07-51.21,55.28-64.21,51.6-.92-.25-1.8-.62-2.65-1.1l-3.47,4.45,5.94,4.65,34.32,26.86,3.47-4.45c-5.47-5.47-5.5-14.43-.09-26.86,5.4-12.43,16.63-29.55,33.68-51.32l26.95-34.44-4.54,170.49,4.3,3.35,48.96-62.56c28.21-36.04,48.36-50.16,60.48-42.38l3.48-4.44-40.45-31.65h0Z"/>
      <path class="st3" d="M1753.52,523.33c-2.64,2.35-4.83,2.52-6.61.53l-68.21-76.82c-1.35-1.51-1.05-3.83.92-6.94l-3.44-3.87-33.39,29.66,5.46,6.15c17.29-14.4,33.14-13.49,47.54,2.74l5.4,6.07-90.09,80c-5.31,4.7-9.73,7.01-13.3,6.92-3.56-.08-7.7-2.74-12.45-7.96l-4.22,3.75,38.16,42.97,4.22-3.75c-7.69-9.1-7.01-17.67,2.02-25.69l90.09-80,4.22,4.75c15.65,17.63,15.16,34.01-1.5,49.12l5.54,6.24,33.4-29.66-3.76-4.22h0Z"/>
      <path class="st3" d="M1880.72,761.43l-5.14,2.33c2.75,6.42,3.73,11.37,2.95,14.87-.78,3.49-3.95,6.51-9.52,9.03-7.2,3.28-20.82,5.42-40.84,6.43l-65.09,3.29,84.63-79.95c.72-.67,1.41-1.15,2.06-1.45,2.21-1,4.05.01,5.51,3.05l5.13-2.33-17.2-37.88-5.14,2.33c4.8,12.27-.35,21.85-15.49,28.73-11.84,5.37-25.51,8.45-41,9.19l-53.06,2.56,84.97-79.53c.66-.64,1.3-1.11,1.94-1.4,2.28-1.03,4.06-.25,5.33,2.36l5.13-2.33-16.97-37.35-5.13,2.33c.96,2.67.96,5.7,0,9.1-.95,3.4-4.29,8.3-10.04,14.69-5.74,6.41-9.27,10.24-10.58,11.53l-89.98,84.39,2.82,6.2,65.34-3.35c12.96-.64,27.19-.3,42.67,1.01l-76.33,72.12,2.93,6.42,126.45-5.81c11.73-.5,20.89-.03,27.5,1.45,6.61,1.48,10.91,4.29,12.89,8.47l5.14-2.33-21.88-48.16h0Z"/>
      <path class="st3" d="M1927.97,924.05c-3.87.66-6.32-1.51-7.36-6.49l-17.2-82.14-5.51,1.16c1.17,6.39.91,11.15-.81,14.27-1.7,3.11-6.33,5.46-13.85,7.04l-99.61,20.86c-7.01,1.48-12.03,1.27-15.04-.58-3.01-1.84-5.27-6.22-6.8-13.1l-5.52,1.16,17.55,83.86c.61,2.84-.78,4.65-4.14,5.43l1.2,5.75,49.37-.49-1.7-8.16c-25.33,1.37-40.69-10.82-46.09-36.58l-2.55-12.19,66.14-13.86,10.03,42.09,8.05-1.68-2.36-11.27c-2.38-11.36-1-20.23,4.15-26.63,5.14-6.41,14.27-10.97,27.39-13.72,6.6-1.37,14.16-2.52,22.7-3.43l1.83,8.74c2.76,13.19,2.26,23.56-1.54,31.07-3.8,7.52-11.42,12.56-22.89,15.12l1.75,8.4,43.95-9.21-1.13-5.41h0Z"/>
      <path class="st3" d="M1938.84,1050.72c-3.92.09-6.03-2.42-6.34-7.5l-5.07-83.77-5.64.35c.24,6.49-.71,11.16-2.86,14-2.14,2.85-7.05,4.5-14.73,4.96l-101.57,6.17c-7.15.43-12.08-.49-14.79-2.76-2.71-2.27-4.33-6.92-4.83-13.95l-5.62.34,5.17,85.52c.18,2.89-1.45,4.49-4.89,4.77l.37,5.88,48.91,6.68-.5-8.32c-25.26-2.32-38.69-16.62-40.28-42.9l-.76-12.43,67.46-4.09,3.78,43.1,8.21-.5-.69-11.49c-.69-11.58,1.95-20.16,7.98-25.75,6.01-5.59,15.71-8.78,29.09-9.58,6.72-.42,14.38-.44,22.95-.1l.54,8.92c.82,13.45-1.2,23.62-6.04,30.5-4.84,6.9-13.13,10.77-24.84,11.64l.52,8.56,44.82-2.71-.34-5.52v-.02Z"/>
      <path class="st3" d="M1920.96,1160.76c-1,8.01-4,11.78-8.99,11.31-3.67-.35-8.21-2.85-13.63-7.49-5.42-4.65-10.18-9.5-14.26-14.53l-25.27-31.21-84.06,51.06-3.58,37.75,5.61.54c.93-10.08,11.51-21.22,31.71-33.48l58.78-35.86,33.09,41.39c10.08,12.61,15.25,24.03,15.5,34.29l5.61.54,5.11-53.78-5.61-.53h-.01ZM1928.12,1085.29c-.78,6.54-2.45,11.02-4.98,13.46-2.53,2.43-7.6,3.29-15.19,2.57l-101.45-9.62c-7.06-.67-11.77-2.35-14.14-5.01s-3.25-7.5-2.67-14.54l-5.61-.53-5.43,57.21,5.62.54c1.5-11.83,8.22-17.17,20.18-16.04l54.06,5.13.3.38.5-.3,46.58,4.43c7.12.68,11.84,2.35,14.12,5.01,2.3,2.65,3.18,7.5,2.67,14.53l5.61.54,5.43-57.22-5.61-.53h0Z"/>
    </g>
    <g>
      <path class="st3" d="M355.85,1385.3c-3.03-6.54-8.01-11.17-14.96-13.87-6.95-2.71-13.91-2.45-20.87.77-6.7,3.09-11.32,8.15-13.91,15.16-2.59,7.02-2.33,13.88.76,20.57,3.13,6.76,8.18,11.41,15.18,13.96,7.01,2.55,13.85,2.27,20.54-.81,7.04-3.25,11.78-8.39,14.2-15.37,2.42-6.99,2.11-13.8-.95-20.4h0Z"/>
      <path class="st3" d="M476.95,1489.18c-8.07-11.32-18.56-18.76-31.47-22.29-12.91-3.54-23.96-2.04-33.15,4.5-3.51,2.5-6.32,5.64-8.44,9.42-2.13,3.78-3.54,8.13-4.25,13.09-.5,8.75-.57,17.97-.21,27.65.61,17.73.04,29.76-1.69,36.12-1.8,6.39-5.47,11.56-11.02,15.52-6.39,4.54-13.13,6.23-20.21,5.06-7.09-1.16-13.15-5.3-18.21-12.4-5.51-7.73-7.01-16.73-4.51-27,2.51-10.26,8.61-18.85,18.31-25.76l-4.84-6.8-34.56,24.61c3.47,13.24,8.18,24.03,14.14,32.41,8.34,11.7,19.7,19.38,34.11,23.04,14.4,3.66,26.61,1.92,36.64-5.22,6.13-4.38,10.08-9.77,11.83-16.23,1.66-6.47,2.27-17.11,1.84-31.94-.53-19.57.09-32.62,1.87-39.14,1.74-6.59,5.06-11.63,9.95-15.12,5.09-3.62,10.57-4.85,16.44-3.67,5.88,1.17,10.76,4.49,14.64,9.94,4.74,6.67,6.13,14.19,4.14,22.57-1.99,8.37-6.97,15.79-14.94,22.23l4.98,6.99,29.96-21.34c-3.49-11.79-7.26-20.54-11.32-26.24h-.03Z"/>
      <path class="st3" d="M493.46,1683.22l56.52-113.88-4.87-4.94-121.32,51.8c-18.08,7.67-30.35,8.54-36.85,2.61l-4.02,3.96,36.92,37.53,4.02-3.96-4.36-4.44c-2.91-2.96-4.38-6.23-4.36-9.8,0-3.57,1.39-6.73,4.19-9.48,5.31-5.22,15.25-11.26,29.81-18.13l36.15,36.75-19.31,38.7c-.45.88-.96,1.6-1.51,2.16-1.84,1.8-3.25,2.22-4.21,1.25l-1.95-1.99-4.02,3.96,29.63,30.13,4.02-3.96c-3.51-3.91-4.53-9.14-3.04-15.72,1.5-6.58,4.35-14.09,8.56-22.52v-.03ZM456.39,1611.46l61.86-26.33-29.53,59.2-32.33-32.87h0Z"/>
      <path class="st3" d="M671.1,1674.32l-3.19,4.65c5.72,4.87,6.28,13.72,1.66,26.52-4.62,12.8-13.27,28.45-25.94,46.95l-19.75,28.83-5.62-143.15-31.81-21.8-3.18,4.65c5.14,3.72,8.18,7.28,9.13,10.68s-.55,7.98-4.49,13.73l-22.92,33.44c-29.28,42.74-50.45,60.94-63.52,54.65l-3.19,4.65,42.17,28.9,3.19-4.65c-5.8-5.12-6.39-14.06-1.79-26.81,4.6-12.75,14.73-30.54,30.36-53.35l24.72-36.06,6.27,170.42,4.49,3.08,44.92-65.53c25.86-37.75,45.09-53.11,57.68-46.11l3.19-4.65-42.37-29.03h-.01Z"/>
      <path class="st3" d="M848.81,1750.39c-.62,1.2-1.45,2.16-2.52,2.89s-1.85,1-2.37.81l-83.34-31.13-1.98,5.28c6.1,2.45,10.01,5.22,11.69,8.32,1.69,3.1,1.2,8.21-1.46,15.35l-35.66,95.43c-2.47,6.65-5.32,10.76-8.55,12.33-3.23,1.58-8.12,1.19-14.68-1.19l-1.98,5.28,53.84,20.11,1.98-5.28c-11.03-4.51-14.44-12.4-10.24-23.64l16.24-43.49,40.86,14.25,2.84-7.59-9.14-3.42c-12.04-4.49-19.34-10.69-21.92-18.6-2.56-7.89-1.22-18.86,4.01-32.87,2.38-6.39,5.47-13.43,9.27-21.13l8.49,3.17c12.51,4.68,21.03,10.62,25.55,17.83,4.53,7.21,4.64,16.54.37,27.99l7.93,2.96,11.7-31.34,2.13-5.71,1.79-4.79-4.84-1.82h-.01Z"/>
      <path class="st3" d="M946.17,1803.53c1.8-8.42.44-15.32-4.06-20.69-4.5-5.36-12.19-9.21-23.08-11.53l-67.17-14.31-5.94-1.26-1.17,5.51c1.84.43,3.51.92,4.98,1.46,3.69,1.36,6.29,3.05,7.81,5.06,2.13,2.81,2.4,7.94.81,15.37l-21.22,99.67c-1.48,6.92-3.68,11.41-6.59,13.46-2.93,2.04-7.84,2.37-14.75.98l-1.17,5.52,56.44,12.02,1.17-5.51c-11.73-2.89-16.33-10.2-13.83-21.94l12.14-57.01,30.44,80.5c2.89,7.5,7.1,11.84,12.61,13.03l27.59,5.88,1.17-5.52c-9.62-2.61-18.28-14.02-25.99-34.26l-17.19-45.12c13.68-4.38,24.43-10,32.26-16.86,7.83-6.87,12.75-15.01,14.75-24.44h-.01ZM919.12,1814.88c-1.92,9.03-5.06,15.46-9.39,19.29-4.35,3.83-9.89,5.03-16.63,3.59-6.43-1.37-13.44-6.25-21.03-14.68l10.2-47.84c6.33-2.65,12.64-3.3,18.93-1.97,7.12,1.51,12.48,6.08,16.07,13.68,3.59,7.6,4.21,16.91,1.87,27.92h-.02Z"/>
      <path class="st3" d="M1080.97,1921.14c-3.44-5.8-6.52-13.22-9.24-22.24l-37.1-121.61-6.94-.25-52.63,120.98c-7.88,17.98-16.22,27.04-24.99,27.19l-.21,5.64,52.62,1.93.2-5.64-6.23-.23c-4.15-.15-7.45-1.53-9.9-4.12-2.46-2.6-3.61-5.85-3.47-9.77.28-7.44,3.35-18.65,9.23-33.66l51.5,1.9,12.55,41.39c.28.95.4,1.82.37,2.6-.09,2.59-.82,3.86-2.18,3.81l-2.8-.11-.21,5.65,42.24,1.55.2-5.64c-5.23-.43-9.57-3.54-13-9.36h-.01ZM995.5,1872.18l26.9-61.62,19.18,63.33-46.08-1.7h0Z"/>
      <path class="st3" d="M1248.38,1919.86l-12.27-78.5c-7.06-45.21-3.61-69.58,10.35-73.11l-.87-5.57-50.74,7.93.87,5.57c7.52-.38,13.98,5.67,19.39,18.16,5.42,12.48,9.86,29.81,13.33,51.97l5.38,34.51-102.25-100.34-38.11,5.95.87,5.57c6.29-.82,10.96-.32,13.97,1.51,3.03,1.83,5.07,6.19,6.15,13.08l6.25,40.06c7.99,51.17,5.08,78.95-8.75,83.33l.87,5.57,50.52-7.88-.87-5.57c-7.73.25-14.3-5.84-19.68-18.28-5.4-12.43-10.23-32.32-14.5-59.66l-6.75-43.19,121.45,119.73,5.38-.84h.01Z"/>
      <path class="st3" d="M1405.3,1824.05c-12.09,20.21-26.27,33.29-42.51,39.25-16.24,5.95-31.76,4.77-46.58-3.57s-25.59-21.7-32.33-40.1c-6.24-16.99-6.95-33-2.13-48.04,4.83-15.04,15.21-25.48,31.16-31.34,11.39-4.17,22.27-4.84,32.65-2.02,10.37,2.82,17.96,9.29,22.74,19.39l7.83-2.87-12.22-33.33c-14.61.19-29.19,2.94-43.74,8.28-16.68,6.12-29.52,15.3-38.5,27.52s-14.59,25.3-16.82,39.22c-2.23,13.92-.66,28.21,4.72,42.85,7.68,20.96,19.95,35.14,36.8,42.52,16.85,7.39,33.09,8.21,48.75,2.46,19.18-7.04,36.73-24.87,52.67-53.49l-2.47-6.73h-.02Z"/>
      <path class="st3" d="M1487.86,1812.64c-10.68,5.28-18.85,2.64-24.51-7.96l-48.06-89.86c-3.35-6.29-4.58-11.12-3.63-14.51s4.49-6.82,10.63-10.29l-2.66-4.97-50.68,27.1,2.66,4.98c5.88-2.96,10.53-4.06,13.97-3.28s6.95,4.53,10.54,11.22l48.04,89.86c3.34,6.25,4.56,11.1,3.64,14.55-.91,3.44-4.45,6.86-10.63,10.25l2.65,4.98,50.69-27.11-2.66-4.97h.01Z"/>
      <path class="st3" d="M1562.82,1717.03c-4.27-6.19-9.63-10.21-16.05-12.07-6.44-1.74-17.09-2.5-31.92-2.28-19.58.25-32.62-.57-39.12-2.43-6.56-1.83-11.55-5.22-14.97-10.16-3.56-5.14-4.7-10.64-3.44-16.49,1.27-5.86,4.65-10.69,10.16-14.5,6.72-4.64,14.26-5.91,22.61-3.81,8.35,2.12,15.69,7.2,22.02,15.26l7.06-4.88-20.91-30.26c-11.84,3.33-20.64,6.97-26.39,10.95-11.45,7.91-19.03,18.3-22.75,31.16-3.73,12.85-2.38,23.92,4.02,33.2,2.46,3.56,5.56,6.41,9.31,8.59,3.75,2.17,8.08,3.64,13.01,4.43,8.75.63,17.97.83,27.67.61,17.73-.34,29.75.4,36.08,2.22,6.37,1.89,11.49,5.64,15.36,11.24,4.46,6.46,6.05,13.22,4.78,20.28-1.27,7.07-5.49,13.08-12.66,18.03-7.82,5.4-16.83,6.77-27.06,4.12-10.23-2.65-18.73-8.86-25.5-18.66l-6.86,4.74,24.11,34.9c13.29-3.27,24.16-7.83,32.61-13.67,11.82-8.16,19.66-19.42,23.53-33.77,3.86-14.34,2.3-26.58-4.7-36.72v-.03Z"/>
      <path class="st3" d="M1680.9,1619.1c-2.96,23.37-10.69,41.03-23.18,53.01-12.48,11.97-27.19,17.11-44.1,15.42-16.92-1.69-32.16-9.61-45.71-23.74-12.53-13.06-19.61-27.44-21.22-43.15-1.63-15.71,3.69-29.44,15.95-41.2,8.75-8.4,18.45-13.39,29.09-14.96,10.63-1.58,20.18,1.3,28.61,8.63l6.01-5.78-24.56-25.62c-13.3,6.04-25.56,14.41-36.75,25.14-12.82,12.31-20.89,25.86-24.21,40.65-3.32,14.8-3.22,29.04.33,42.68,3.54,13.64,10.72,26.09,21.51,37.35,15.46,16.12,32.38,24.17,50.77,24.17s33.61-5.76,45.65-17.31c14.74-14.14,23.67-37.51,26.77-70.14l-4.97-5.17v.02Z"/>
      <path class="st3" d="M1778.14,1483.25c-6.01-15.62-15.89-28.18-29.63-37.65-12.64-8.73-25.62-13.08-38.98-13.05-13.34.03-25.02,2.72-35.02,8.11-9.99,5.38-18.73,13.49-26.2,24.32-12.55,18.18-16.7,39.23-12.42,63.11,4.26,23.9,15.98,42.45,35.13,55.66,16.57,11.45,34.36,15.35,53.39,11.71,19.02-3.62,34.14-13.57,45.36-29.81,7.83-11.35,12.69-24.02,14.58-37.99,1.89-13.98-.18-28.79-6.2-44.41h-.01ZM1770.96,1545.49c-9.66,14-24.51,22.76-44.56,26.29s-40.18-1.66-60.35-15.59c-13.75-9.48-22.08-21.02-25.03-34.63-2.94-13.59-.3-26.35,7.93-38.3,5.52-7.99,14.12-14.77,25.81-20.31,11.69-5.55,24.78-7.28,39.27-5.17,14.5,2.09,27.91,7.4,40.23,15.9,13.15,9.08,21.16,20.53,24,34.34,2.85,13.82.42,26.3-7.29,37.46h-.01Z"/>
      <path class="st3" d="M1819.61,1343.66c-3-6.82-7.92-11.58-14.78-14.27-7.21-2.85-14.19-2.72-20.92.35-6.72,3.08-11.42,7.99-14.1,14.78-2.64,6.71-2.53,13.51.32,20.39,2.84,6.9,7.83,11.74,14.98,14.56,6.86,2.7,13.71,2.55,20.57-.43,6.86-2.99,11.64-7.91,14.34-14.75,2.72-6.92,2.6-13.81-.4-20.63h0Z"/>
    </g>
  </g>
  <path class="st0" d="M1031.31,1037.1l-315.97-182.43c68.85-13.76,142.78-3.5,208.35,34.36,21.68,12.52,41.22,27.34,58.46,43.98,9.71,37.33,26.33,72.65,49.16,104.09Z"/>
  <path class="st0" d="M1057.58,1052.5c0-.05,0-.08.01-.13-.03-.04-.07-.07-.1-.11-.03-.03-.05-.06-.08-.09-.61-.69-1.21-1.39-1.81-2.09-.52-.6-1.03-1.2-1.53-1.8-1.08-1.26-2.14-2.53-3.19-3.82-.52-.63-1.04-1.26-1.55-1.9-.02-.03-.04-.05-.06-.08-.69-.85-1.38-1.72-2.06-2.58l-1.47-1.89c-.38-.48-.75-.97-1.12-1.45-.37-.49-.74-.98-1.11-1.46-.74-.98-1.47-1.96-2.2-2.95-.73-.98-1.45-1.97-2.16-2.97-.71-1-1.42-2-2.12-3-1.41-2.01-2.79-4.04-4.14-6.08-.68-1.02-1.35-2.05-2.02-3.08s-1.33-2.07-1.98-3.11c-.65-1.04-1.3-2.08-1.94-3.13-1.29-2.1-2.55-4.21-3.77-6.34-.62-1.06-1.23-2.13-1.83-3.21-.6-1.07-1.2-2.15-1.79-3.23s-1.17-2.17-1.75-3.26c-.29-.54-.58-1.08-.86-1.63-.29-.55-.57-1.1-.85-1.65-.49-.95-.98-1.91-1.46-2.87-.62-1.24-1.24-2.49-1.85-3.76-.27-.55-.54-1.11-.8-1.67-.27-.56-.53-1.12-.79-1.68-1.05-2.24-2.07-4.49-3.06-6.76-.5-1.13-.99-2.27-1.47-3.42-.25-.57-.49-1.14-.72-1.72-.24-.57-.47-1.14-.71-1.72-.47-1.15-.93-2.3-1.39-3.46-.45-1.15-.9-2.31-1.34-3.48-.33-.87-.66-1.75-.98-2.62-.33-.88-.65-1.76-.96-2.64-.63-1.76-1.25-3.52-1.84-5.3,26.47,30.02,46.3,64.75,58.87,101.84h0s.02.06.03.09c.02.07.05.14.07.21l.03.09-.15-.08h0Z"/>
  <path class="st0" d="M1127.47,950.49s.07-.09.11-.13c-12.76,37.93-32.92,72.47-58.76,101.9-.02.03-.04.05-.06.07-.05.06-.1.11-.15.17-.02.02-.04.05-.06.07v-.16s.07-.05.11-.06c.03-.09.06-.19.1-.28.38-1.12.76-2.23,1.16-3.35.3-.84.6-1.69.91-2.53.04-.11.08-.22.12-.33.02-.06.04-.12.06-.18.29-.81.59-1.61.89-2.41.37-.99.74-1.98,1.12-2.96.05-.11.09-.22.13-.33.37-.95.74-1.9,1.13-2.85,0-.01,0-.02.01-.03.02-.06.05-.12.07-.18.35-.88.7-1.75,1.07-2.63.01-.03.02-.05.03-.08.01-.02.01-.03.02-.05.32-.78.65-1.56.98-2.34l.72-1.71c.07-.16.14-.32.21-.48.44-1.03.89-2.05,1.35-3.07.25-.58.51-1.15.77-1.73.52-1.15,1.04-2.29,1.58-3.43.36-.78.73-1.55,1.1-2.33.24-.51.49-1.02.73-1.53.11-.22.21-.44.32-.65.21-.42.42-.84.62-1.26.4-.83.81-1.65,1.23-2.47.37-.74.75-1.48,1.13-2.21.3-.59.6-1.17.91-1.75.32-.63.65-1.25.98-1.87.43-.8.86-1.6,1.29-2.39.57-1.06,1.16-2.11,1.75-3.16.6-1.08,1.21-2.14,1.82-3.21.02-.03.03-.06.05-.09.61-1.05,1.22-2.1,1.84-3.14.62-1.04,1.25-2.08,1.88-3.12.64-1.05,1.29-2.1,1.94-3.14.66-1.05,1.32-2.09,1.99-3.13.74-1.15,1.49-2.29,2.24-3.43.03-.04.05-.08.08-.12.01-.01.01-.02.02-.03.44-.67.91-1.34,1.35-2.01.04-.06.08-.12.12-.18.04-.05.07-.11.11-.16.75-1.11,1.51-2.2,2.27-3.29.24-.33.47-.67.7-1,.24-.34.47-.67.71-1,.13-.19.26-.38.4-.57.2-.27.39-.55.59-.82.54-.75,1.09-1.51,1.64-2.26,1.43-1.94,2.88-3.87,4.35-5.78.43-.56.87-1.12,1.31-1.68.47-.61.95-1.21,1.43-1.81.39-.49.77-.97,1.16-1.45.39-.48.77-.96,1.17-1.44.73-.9,1.47-1.8,2.22-2.68.02-.03.04-.05.06-.08.06-.08.12-.15.18-.22.1-.11.19-.23.29-.34.68-.81,1.37-1.61,2.05-2.41.78-.91,1.56-1.81,2.35-2.7Z"/>
  <path class="st0" d="M1143.18,854.71c0,25.04-3.07,49.36-8.86,72.61-27.47,27.08-49.75,59.13-65.56,94.62-.08.16-.15.31-.21.47v-365.56l.21.24c46.33,52.75,74.42,121.9,74.42,197.62Z"/>
  <path class="st4" d="M1057.76,656.85v395.72s-.04-.05-.06-.07c-.04-.04-.08-.09-.11-.13-.03-.04-.07-.07-.1-.11-.03-.03-.05-.06-.07-.09h-.01c-.61-.69-1.21-1.39-1.81-2.09-.52-.6-1.03-1.2-1.53-1.8-1.08-1.26-2.14-2.53-3.19-3.82-.52-.63-1.04-1.26-1.55-1.9-.02-.03-.04-.05-.06-.08-.69-.85-1.38-1.72-2.06-2.58l-1.47-1.89c-.38-.48-.75-.97-1.12-1.45-.37-.49-.74-.98-1.11-1.46-.74-.98-1.47-1.96-2.2-2.95-.73-.98-1.45-1.97-2.16-2.97-.71-1-1.42-2-2.12-3-1.41-2.01-2.79-4.04-4.14-6.08-.68-1.02-1.35-2.05-2.02-3.08s-1.33-2.07-1.98-3.11c-.65-1.04-1.3-2.08-1.94-3.13-1.29-2.1-2.55-4.21-3.77-6.34-.62-1.06-1.23-2.13-1.83-3.21-.6-1.07-1.2-2.15-1.79-3.23s-1.17-2.17-1.75-3.26c-.29-.54-.58-1.08-.86-1.63-.29-.55-.57-1.1-.85-1.65-.49-.95-.98-1.91-1.46-2.87-.62-1.24-1.24-2.49-1.85-3.76-.27-.55-.54-1.11-.8-1.67-.27-.56-.53-1.12-.79-1.68-1.05-2.24-2.07-4.49-3.06-6.76-.5-1.13-.99-2.27-1.47-3.42-.25-.57-.49-1.14-.72-1.72-.24-.57-.47-1.14-.71-1.72-.47-1.15-.93-2.3-1.39-3.46-.45-1.15-.9-2.31-1.34-3.48-.33-.87-.66-1.75-.98-2.62-.33-.88-.65-1.76-.96-2.64-.63-1.76-1.25-3.52-1.84-5.3-.36-1.06-.71-2.13-1.06-3.2-.44-1.36-.87-2.71-1.29-4.07-.21-.68-.42-1.36-.62-2.05-.2-.68-.4-1.36-.61-2.04-.28-.96-.55-1.91-.82-2.87-.55-1.92-1.07-3.85-1.57-5.78-.22-.86-.44-1.73-.66-2.6-.26-1.01-.5-2.01-.74-3.03-.04-.13-.07-.27-.1-.4-.01-.04-.02-.09-.03-.13-.2-.87-.4-1.72-.6-2.59-.19-.84-.38-1.68-.57-2.52-.05-.23-.1-.47-.15-.72-.19-.88-.38-1.76-.56-2.65-.27-1.27-.52-2.54-.76-3.83-.14-.7-.27-1.4-.4-2.1-.37-1.98-.72-3.97-1.05-5.97-.17-.99-.33-2-.48-3-.14-.9-.27-1.8-.4-2.7-.11-.75-.22-1.5-.32-2.26-.01-.04-.01-.09-.02-.13-.09-.62-.17-1.24-.25-1.86-.1-.8-.2-1.59-.3-2.39-.12-.92-.23-1.84-.33-2.76-.11-1.01-.22-2.03-.33-3.05-.1-1.01-.2-2.03-.3-3.05-.1-1.09-.19-2.18-.28-3.27-.08-.96-.15-1.92-.22-2.87l-.15-2.22c-.05-.84-.11-1.66-.15-2.5-.01-.1-.01-.21-.02-.31-.03-.57-.06-1.14-.08-1.71-.05-.84-.09-1.69-.12-2.54-.04-.89-.07-1.77-.1-2.66-.03-.96-.06-1.92-.08-2.88-.02-.7-.03-1.4-.04-2.1-.01-.57-.02-1.14-.02-1.71-.01-1.04-.02-2.08-.02-3.13,0-75.83,28.17-145.08,74.63-197.86Z"/>
  <g>
    <path class="st0" d="M1188.37,1061.24c1.22.23,2.43.47,3.65.72-39.24,7.9-79.22,7.72-117.63.06-.04-.01-.08-.01-.12-.02-.06-.01-.13-.03-.19-.04h-.02s-.05-.01-.08-.02l.14-.08s.06.03.1.06h.01c.09-.02.18-.04.27-.05.94-.19,1.89-.37,2.83-.55.83-.15,1.64-.3,2.47-.45.1-.02.21-.04.31-.06.62-.11,1.24-.22,1.86-.33.64-.11,1.27-.21,1.91-.32.66-.11,1.32-.22,1.98-.32.6-.1,1.2-.19,1.79-.29.48-.07.95-.14,1.42-.21.21-.03.43-.06.64-.1.86-.12,1.72-.25,2.58-.36,2.55-.36,5.11-.67,7.68-.96,1.22-.13,2.44-.26,3.66-.38,2.38-.24,4.76-.44,7.15-.62,1-.08,1.99-.15,2.99-.21.35-.02.71-.05,1.07-.07h.08c2.34-.15,4.68-.26,7.02-.35.97-.04,1.93-.07,2.9-.09.86-.03,1.73-.05,2.6-.06.77-.02,1.54-.03,2.3-.04,1.07,0,2.14-.02,3.21-.02h.18c.93,0,1.86.01,2.79.02.62,0,1.25.01,1.87.02.83.01,1.66.03,2.49.05.32,0,.64.01.96.02.15,0,.31.01.46.02.83.02,1.65.05,2.48.08,1.09.04,2.17.08,3.26.13,1.59.08,3.18.17,4.77.27,1.01.07,2.02.14,3.03.21,2.46.18,4.92.39,7.38.64,1.22.12,2.45.25,3.68.39,1.23.14,2.46.29,3.69.44,1.22.15,2.45.31,3.68.48h.02c1.23.17,2.45.35,3.67.53,2.19.32,4.37.67,6.56,1.06.11.01.22.03.33.05,1.37.24,2.75.49,4.12.75Z"/>
    <path class="st0" d="M1416.69,864.08c-.03.09-.06.19-.1.28-22.51,66.51-68.36,125.42-133.94,163.28-21.68,12.52-44.28,22.02-67.31,28.63h-.01c-37.19-10.26-76.1-13.52-114.74-9.46-.16.01-.33.02-.49.05l316.59-182.78Z"/>
    <path class="st4" d="M1411.29,854.73l-341.04,196.9s-.01,0-.02.01h-.01s-.02.02-.03.02l-1.43.83-.18.1s.02-.06.03-.09c.02-.05.03-.1.05-.15.03-.09.06-.19.1-.28.38-1.12.76-2.23,1.16-3.35.3-.84.6-1.69.91-2.53.04-.11.08-.22.12-.33.02-.06.04-.12.06-.18.29-.81.59-1.61.89-2.41.37-.99.74-1.98,1.12-2.96.05-.11.09-.22.13-.33.37-.95.74-1.9,1.13-2.85,0-.01,0-.02.01-.03.02-.06.05-.12.07-.18.35-.88.7-1.75,1.07-2.63.01-.03.02-.05.03-.08.01-.02.01-.03.02-.05.32-.78.65-1.56.98-2.34l.72-1.71c.07-.16.14-.32.21-.48.44-1.03.89-2.05,1.35-3.07.25-.58.51-1.15.77-1.73.52-1.15,1.04-2.29,1.58-3.43.36-.78.73-1.55,1.1-2.33.24-.51.49-1.02.73-1.53.11-.22.21-.44.32-.65.21-.42.42-.84.62-1.26.4-.83.81-1.65,1.23-2.47.37-.74.75-1.48,1.13-2.21.3-.59.6-1.17.91-1.75.32-.63.65-1.25.98-1.87.43-.8.86-1.6,1.29-2.39.57-1.06,1.16-2.11,1.75-3.16.6-1.08,1.21-2.14,1.82-3.21.02-.03.03-.06.05-.09.61-1.05,1.22-2.1,1.84-3.14.62-1.04,1.25-2.08,1.88-3.12.64-1.05,1.29-2.1,1.94-3.14.66-1.05,1.32-2.09,1.99-3.13.74-1.15,1.49-2.29,2.24-3.43.03-.04.05-.08.08-.12.01-.01.01-.02.02-.03.44-.67.91-1.34,1.35-2.01.04-.06.08-.12.12-.18.04-.05.07-.11.11-.16.75-1.11,1.51-2.2,2.27-3.29.24-.33.47-.67.7-1,.24-.34.47-.67.71-1,.13-.19.26-.38.4-.57.2-.27.39-.55.59-.82.54-.75,1.09-1.51,1.64-2.26,1.43-1.94,2.88-3.87,4.35-5.78.43-.56.87-1.12,1.31-1.68.47-.61.95-1.21,1.43-1.81.39-.49.77-.97,1.16-1.45.39-.48.77-.96,1.17-1.44.73-.9,1.47-1.8,2.22-2.68.02-.03.04-.05.06-.08.06-.08.12-.15.18-.22.1-.11.19-.23.29-.34.68-.81,1.37-1.61,2.05-2.41.78-.91,1.56-1.81,2.35-2.7.03-.04.07-.09.11-.13h0s.01-.02.01-.02c.02-.02.03-.03.06-.05.63-.72,1.27-1.44,1.92-2.16.66-.73,1.32-1.47,1.99-2.19.59-.65,1.17-1.28,1.77-1.92h.01c.19-.21.38-.42.57-.62l.06-.06,1.5-1.59c.79-.82,1.58-1.64,2.38-2.46.65-.66,1.3-1.33,1.96-1.99.74-.75,1.49-1.49,2.25-2.24,1.38-1.36,2.78-2.71,4.19-4.04.72-.69,1.45-1.37,2.19-2.05.64-.6,1.29-1.19,1.94-1.78.83-.77,1.67-1.52,2.52-2.27.75-.67,1.5-1.34,2.26-2,.95-.83,1.91-1.65,2.87-2.47.85-.73,1.71-1.46,2.58-2.17.76-.64,1.52-1.26,2.29-1.88.54-.45,1.09-.9,1.65-1.34.76-.61,1.53-1.22,2.3-1.83.05-.04.11-.08.16-.12.75-.58,1.49-1.16,2.24-1.74.71-.55,1.42-1.09,2.15-1.65.02-.01.05-.03.07-.05.16-.13.34-.26.52-.39.33-.24.65-.49.99-.74.33-.25.66-.5.99-.74.71-.52,1.42-1.04,2.13-1.56.84-.61,1.68-1.22,2.53-1.81.16-.12.31-.23.47-.34.9-.63,1.79-1.26,2.69-1.88,1.63-1.13,3.28-2.25,4.95-3.35.73-.48,1.47-.97,2.21-1.45,1.14-.75,2.3-1.49,3.47-2.22.72-.46,1.44-.91,2.16-1.35.88-.55,1.77-1.09,2.66-1.63,1.77-1.07,3.57-2.13,5.38-3.18,65.67-37.92,139.73-48.15,208.67-34.3Z"/>
  </g>
  <path class="st0" d="M1126.98,1171.78c.2.59.4,1.18.6,1.77-26.46-30.02-46.29-64.73-58.86-101.82-.01-.04-.03-.07-.04-.11-.02-.07-.05-.14-.07-.21-.01-.03-.02-.06-.03-.09l.16.09c0,.05,0,.09-.01.14.03.03.05.05.07.08.01.01.02.02.03.04.03.02.04.03.06.07h.01c.61.69,1.21,1.39,1.81,2.09.67.77,1.34,1.55,2,2.34.07.08.14.17.21.25.68.81,1.36,1.62,2.03,2.44l.02.02c.7.84,1.39,1.69,2.07,2.55.69.85,1.38,1.71,2.05,2.57.53.67,1.06,1.35,1.58,2.02.01.01.02.03.03.04.71.91,1.41,1.82,2.1,2.75.26.35.52.69.79,1.04.5.68,1.01,1.36,1.51,2.04,1.49,2.02,2.95,4.06,4.38,6.12.64.91,1.27,1.82,1.89,2.74.68.99,1.35,1.98,2,2.98.05.06.08.11.11.16.56.84,1.1,1.67,1.65,2.51.84,1.29,1.66,2.59,2.48,3.89.45.73.91,1.46,1.36,2.2.78,1.26,1.54,2.52,2.29,3.79.32.52.63,1.06.94,1.59.31.53.62,1.06.93,1.59.58,1,1.15,2,1.72,3,.3.55.61,1.09.91,1.64.43.79.86,1.57,1.29,2.36.47.87.94,1.74,1.41,2.62.04.07.07.14.11.21.06.11.12.22.18.34.49.93.98,1.86,1.46,2.81.48.92.95,1.86,1.42,2.8.08.15.16.31.24.47.01.02.02.05.03.07.41.82.82,1.65,1.22,2.48,1.22,2.49,2.39,5,3.54,7.53.38.84.75,1.68,1.13,2.52.09.22.19.44.29.66.63,1.43,1.24,2.87,1.85,4.32.4.95.79,1.9,1.18,2.86.46,1.13.91,2.27,1.36,3.4.46,1.13.9,2.28,1.33,3.43.44,1.17.87,2.33,1.3,3.5.43,1.17.85,2.35,1.26,3.53.21.59.42,1.17.62,1.77Z"/>
  <path class="st0" d="M1411.29,1269.18c-.1.02-.21.04-.31.06-68.85,13.76-142.79,3.5-208.36-34.36-21.69-12.52-41.22-27.34-58.46-43.98-9.71-37.33-26.33-72.65-49.15-104.08-.1-.14-.19-.28-.3-.41l316.58,182.77Z"/>
  <path class="st4" d="M1416.69,1259.83l-341.07-196.91h-.01s-1.46-.85-1.46-.85l-.17-.1s.05-.01.08-.01h.02s.04-.02.06-.02c.02-.01.04-.01.06-.01t.02-.01h.01c.09-.02.18-.04.27-.05.94-.19,1.89-.37,2.83-.55.83-.15,1.64-.3,2.47-.45.1-.02.21-.04.31-.06.62-.11,1.24-.22,1.86-.33.64-.11,1.27-.21,1.91-.32.66-.11,1.32-.22,1.98-.32.6-.1,1.2-.19,1.79-.29.48-.07.95-.14,1.42-.21.21-.03.43-.06.64-.1.86-.12,1.72-.25,2.58-.36,2.55-.36,5.11-.67,7.68-.96,1.22-.13,2.44-.26,3.66-.38,2.38-.24,4.76-.44,7.15-.62,1-.08,1.99-.15,2.99-.21.35-.02.71-.05,1.07-.07h.08c2.34-.15,4.68-.26,7.02-.35.97-.04,1.93-.07,2.9-.09.86-.03,1.73-.05,2.6-.06.77-.02,1.54-.03,2.3-.04,1.07,0,2.14-.02,3.21-.02h.18c.93,0,1.86.01,2.79.02.62,0,1.25.01,1.87.02.83.01,1.66.03,2.49.05.32,0,.64.01.96.02.15,0,.31.01.46.02.83.02,1.65.05,2.48.08,1.09.04,2.17.08,3.26.13,1.59.08,3.18.17,4.77.27,1.01.07,2.02.14,3.03.21,2.46.18,4.92.39,7.38.64,1.22.12,2.45.25,3.68.39,1.23.14,2.46.29,3.69.44,1.22.15,2.45.31,3.68.48h.02c1.23.17,2.45.35,3.67.53,2.19.32,4.37.67,6.56,1.06.11.01.22.03.33.05,1.37.24,2.75.49,4.12.75,1.22.23,2.43.47,3.65.72h.02c1.8.36,3.61.74,5.41,1.14,1.1.24,2.21.5,3.31.75.97.23,1.94.46,2.9.69.7.18,1.4.34,2.09.52.02,0,.03.01.05.01.05.01.11.03.16.04.31.08.63.16.94.24,1.02.26,2.04.53,3.06.8,1.34.36,2.67.73,4,1.1.79.22,1.57.44,2.35.67.6.17,1.2.35,1.8.53.96.28,1.92.57,2.87.87,2.06.63,4.11,1.29,6.16,1.97.82.27,1.63.55,2.44.83,1.61.55,3.21,1.11,4.81,1.69.49.17.97.35,1.45.53.49.18.98.36,1.46.54.32.12.65.24.97.36.12.05.25.09.37.14.07.03.15.06.22.09.71.27,1.4.54,2.11.81,1.89.73,3.77,1.48,5.65,2.26,1.88.77,3.76,1.56,5.63,2.39.66.28,1.31.57,1.96.86.49.22.99.44,1.48.66.06.03.13.06.19.09,1.24.56,2.49,1.13,3.73,1.71.02.01.05.02.08.03,1.25.59,2.49,1.18,3.73,1.79.93.45,1.85.9,2.77,1.36.93.46,1.85.93,2.77,1.4.68.34,1.35.69,2.03,1.05,1.17.6,2.34,1.22,3.51,1.85.06.03.13.07.19.1.83.45,1.65.89,2.47,1.35.35.19.7.38,1.05.58.44.24.89.49,1.33.74.13.07.26.15.39.22.91.51,1.81,1.03,2.72,1.55,65.67,37.92,111.56,96.94,134.04,163.56Z"/>
  <path class="st0" d="M1057.76,1101.52v365.54c-.07-.08-.14-.16-.21-.24-46.33-52.75-74.42-121.9-74.42-197.62,0-25.04,3.07-49.36,8.86-72.61,27.47-27.07,49.75-59.12,65.56-94.6.08-.15.15-.31.21-.47Z"/>
  <path class="st0" d="M1057.76,1071.34v.17s-.08.04-.12.06c-.03.09-.06.18-.09.27-12.57,37.05-32.39,71.72-58.82,101.71,12.76-37.93,32.92-72.47,58.76-101.9.02-.03.04-.05.06-.07.05-.06.1-.11.15-.17.02-.02.04-.05.06-.07Z"/>
  <path class="st4" d="M1143.18,1269.2c0,75.83-28.17,145.08-74.63,197.86v-395.72s.04.05.06.07c.04.05.08.09.12.14.03.03.05.05.07.08.01.01.02.02.03.04.03.02.04.03.06.07h.01c.61.69,1.21,1.39,1.81,2.09.67.77,1.34,1.55,2,2.34.07.08.14.17.21.25.68.81,1.36,1.62,2.03,2.44l.02.02c.7.84,1.39,1.69,2.07,2.55.69.85,1.38,1.71,2.05,2.57.53.67,1.06,1.35,1.58,2.02.01.01.02.03.03.04.71.91,1.41,1.82,2.1,2.75.26.35.52.69.79,1.04.5.68,1.01,1.36,1.51,2.04,1.49,2.02,2.95,4.06,4.38,6.12.64.91,1.27,1.82,1.89,2.74.68.99,1.35,1.98,2,2.98.05.06.08.11.11.16.56.84,1.1,1.67,1.65,2.51.84,1.29,1.66,2.59,2.48,3.89.45.73.91,1.46,1.36,2.2.78,1.26,1.54,2.52,2.29,3.79.32.52.63,1.06.94,1.59.31.53.62,1.06.93,1.59.58,1,1.15,2,1.72,3,.3.55.61,1.09.91,1.64.43.79.86,1.57,1.29,2.36.47.87.94,1.74,1.41,2.62.04.07.07.14.11.21.06.11.12.22.18.34.49.93.98,1.86,1.46,2.81.48.92.95,1.86,1.42,2.8.08.15.16.31.24.47.01.02.02.05.03.07.41.82.82,1.65,1.22,2.48,1.22,2.49,2.39,5,3.54,7.53.38.84.75,1.68,1.13,2.52.09.22.19.44.29.66.63,1.43,1.24,2.87,1.85,4.32.4.95.79,1.9,1.18,2.86.46,1.13.91,2.27,1.36,3.4.46,1.13.9,2.28,1.33,3.43.44,1.17.87,2.33,1.3,3.5.43,1.17.85,2.35,1.26,3.53.21.59.42,1.17.62,1.77.2.59.4,1.18.6,1.77.2.6.4,1.2.6,1.8.42,1.28.84,2.57,1.24,3.86.61,1.89,1.18,3.79,1.74,5.7.28.96.55,1.91.82,2.87.27.96.54,1.92.8,2.89.39,1.42.76,2.85,1.12,4.28.05.16.09.31.12.47.33,1.29.65,2.58.96,3.88.02.1.05.19.07.29.01.04.02.09.03.13.21.87.41,1.72.6,2.59.2.84.38,1.68.57,2.52.06.3.13.61.2.92.13.61.26,1.22.39,1.84.16.78.32,1.57.48,2.36.95,4.71,1.78,9.47,2.51,14.27.15,1.02.3,2.05.44,3.08.17,1.14.32,2.28.46,3.43.07.54.14,1.08.2,1.62.06.47.12.95.18,1.43.05.47.11.94.16,1.42.12,1.01.23,2.03.33,3.05.1,1.01.2,2.03.3,3.05.1,1.09.19,2.18.28,3.27.08.95.15,1.91.22,2.87.04.53.08,1.06.11,1.59.02.23.03.46.05.69.09,1.44.18,2.9.24,4.35.05.88.09,1.77.12,2.65.04.89.07,1.77.1,2.66.03.96.06,1.92.08,2.88.02.7.03,1.4.04,2.1.01.57.02,1.14.02,1.71.01,1.04.02,2.09.02,3.13Z"/>
  <path class="st0" d="M1025.72,1077.11c.16-.01.32-.03.48-.06l-316.57,182.78c.03-.09.06-.19.1-.28,22.5-66.51,68.35-125.41,133.93-163.28,21.68-12.52,44.28-22.02,67.31-28.63,37.19,10.26,76.1,13.52,114.75,9.47Z"/>
  <path class="st0" d="M1052.33,1061.97l-.14.08s-.07-.03-.1-.06c-.09.02-.19.04-.28.05-.94.19-1.89.37-2.83.55-.93.17-1.85.35-2.78.51-.62.11-1.24.22-1.86.33-.86.15-1.73.3-2.59.44-.43.07-.87.14-1.3.21-.28.05-.57.09-.85.13-.02,0-.03.01-.05.01-.77.13-1.54.24-2.31.35-1.07.16-2.14.31-3.22.46-2.55.36-5.11.67-7.68.96-1.22.13-2.44.26-3.67.38-2.38.24-4.76.44-7.15.62-1,.08-1.99.15-2.99.21-.36.02-.72.05-1.07.07h-.08c-2.34.15-4.68.26-7.02.35-.93.04-1.86.07-2.79.09-.64.02-1.29.04-1.93.05h-.05c-.66.02-1.33.03-1.99.04-.34,0-.69.01-1.04.01-1.12.01-2.24.02-3.36.02h-.03c-.94,0-1.89-.01-2.84-.02-.52,0-1.05-.01-1.58-.02-.73-.01-1.47-.02-2.2-.04-.21,0-.42-.01-.63-.01-.98-.02-1.97-.05-2.95-.08-.57-.02-1.15-.04-1.72-.07-1.01-.04-2.03-.09-3.04-.14-1.01-.05-2.03-.11-3.05-.17-.8-.04-1.6-.1-2.41-.15-.27-.01-.54-.03-.81-.05-.16-.02-.33-.03-.51-.04-.03,0-.07-.01-.1-.01-1.03-.08-2.05-.15-3.08-.24-.09-.01-.19-.02-.29-.02-1.14-.1-2.28-.2-3.42-.31-1.2-.12-2.39-.24-3.58-.37-1.2-.13-2.39-.27-3.58-.41-.79-.1-1.59-.2-2.38-.3-.8-.1-1.59-.21-2.38-.32-1.08-.14-2.16-.3-3.24-.46-1.07-.16-2.15-.32-3.23-.49-1.02-.17-2.04-.33-3.06-.51-2.37-.4-4.75-.84-7.12-1.3-.57-.12-1.14-.23-1.71-.34h.01c39.25-7.91,79.24-7.73,117.66-.07.04.01.07.01.11.02.07.02.13.03.2.05h.01s.05,0,.08.01Z"/>
  <path class="st4" d="M1057.73,1071.32s-.02.06-.03.09c-.02.05-.04.11-.06.16-.03.09-.06.18-.09.27-12.57,37.05-32.39,71.72-58.82,101.71-20.95,23.78-46.08,44.6-75.04,61.33-65.67,37.92-139.72,48.15-208.66,34.3l341.02-196.89,1.5-.87.18-.1Z"/>
  <path class="st4" d="M1052.33,1061.94s-.05.01-.08.02h-.01c-.05.01-.1.02-.15.03-.09.02-.19.04-.28.05-.94.19-1.89.37-2.83.55-.93.17-1.85.35-2.78.51-.62.11-1.24.22-1.86.33-.86.15-1.73.3-2.59.44-.43.07-.87.14-1.3.21-.28.05-.57.09-.85.13-.02,0-.03.01-.05.01-.77.13-1.54.24-2.31.35-1.07.16-2.14.31-3.22.46-2.55.36-5.11.67-7.68.96-1.22.13-2.44.26-3.67.38-2.38.24-4.76.44-7.15.62-1,.08-1.99.15-2.99.21-.36.02-.72.05-1.07.07h-.08c-2.34.15-4.68.26-7.02.35-.93.04-1.86.07-2.79.09-.64.02-1.29.04-1.93.05h-.05c-.66.02-1.33.03-1.99.04-.34,0-.69.01-1.04.01-1.12.01-2.24.02-3.36.02h-.03c-.94,0-1.89-.01-2.84-.02-.52,0-1.05-.01-1.58-.02-.73-.01-1.47-.02-2.2-.04-.21,0-.42-.01-.63-.01-.98-.02-1.97-.05-2.95-.08-.57-.02-1.15-.04-1.72-.07-1.01-.04-2.03-.09-3.04-.14-1.01-.05-2.03-.11-3.05-.17-.8-.04-1.6-.1-2.41-.15-.27-.01-.54-.03-.81-.05-.16-.02-.33-.03-.51-.04-.03,0-.07-.01-.1-.01-1.03-.08-2.05-.15-3.08-.24-.09-.01-.19-.02-.29-.02-1.14-.1-2.28-.2-3.42-.31-1.2-.12-2.39-.24-3.58-.37-1.2-.13-2.39-.27-3.58-.41-.79-.1-1.59-.2-2.38-.3-.8-.1-1.59-.21-2.38-.32-1.08-.14-2.16-.3-3.24-.46-1.07-.16-2.15-.32-3.23-.49-1.02-.17-2.04-.33-3.06-.51-2.37-.4-4.75-.84-7.12-1.3-.57-.12-1.14-.23-1.71-.34-.21-.05-.43-.09-.65-.14h-.02c-1.57-.33-3.15-.66-4.72-1.01h-.01c-1.58-.35-3.15-.71-4.72-1.08-.01-.01-.02,0-.02,0-1.57-.38-3.14-.77-4.71-1.17h0c-1.18-.3-2.36-.62-3.53-.93-1.17-.32-2.35-.64-3.52-.97-.79-.22-1.57-.44-2.35-.67h-.01c-3.13-.91-6.25-1.87-9.36-2.89-1.55-.51-3.11-1.04-4.66-1.57-1.55-.53-3.09-1.08-4.64-1.64h-.01c-1.54-.57-3.08-1.14-4.62-1.73h-.01c-1.31-.51-2.61-1.02-3.92-1.54-.05-.02-.1-.04-.15-.06-1.33-.53-2.66-1.07-3.99-1.63-.67-.27-1.34-.55-2.01-.84-.67-.28-1.34-.57-2-.86-1.34-.58-2.67-1.17-4-1.77-1.51-.68-3.03-1.38-4.54-2.09-1.09-.51-2.17-1.03-3.25-1.55-.8-.4-1.6-.79-2.4-1.19-1.88-.93-3.76-1.88-5.63-2.87h-.01c-.93-.49-1.86-.98-2.78-1.48-.93-.5-1.86-1-2.79-1.51-.93-.51-1.86-1.03-2.78-1.55-.93-.52-1.85-1.05-2.77-1.58h-.01c-.64-.38-1.28-.75-1.91-1.12-.64-.38-1.27-.75-1.91-1.13-1.19-.71-2.38-1.43-3.56-2.16-.13-.08-.26-.16-.39-.24-.91-.56-1.81-1.13-2.71-1.69-.13-.08-.26-.16-.39-.24-.08-.06-.17-.11-.25-.16l-.33-.21s-.05-.03-.08-.05c-1.17-.75-2.34-1.51-3.5-2.27-1.17-.77-2.33-1.55-3.49-2.33-.96-.65-1.92-1.31-2.87-1.97-.97-.68-1.94-1.36-2.91-2.05-.79-.56-1.58-1.13-2.36-1.7-.89-.64-1.78-1.3-2.66-1.95-3.71-2.76-7.34-5.59-10.89-8.5h-.01c-2.66-2.18-5.28-4.39-7.85-6.66-.86-.75-1.71-1.51-2.56-2.27-1.7-1.52-3.37-3.05-5.02-4.62h-.01c-.62-.58-1.24-1.17-1.85-1.76-.62-.59-1.23-1.18-1.84-1.77-1.22-1.18-2.42-2.37-3.61-3.58-.4-.39-.8-.79-1.19-1.2-.4-.4-.79-.81-1.19-1.21t0-.01c-1.38-1.42-2.73-2.85-4.08-4.29-.67-.72-1.34-1.44-2-2.17-.66-.73-1.32-1.45-1.98-2.18-.66-.73-1.31-1.47-1.96-2.21-.65-.74-1.29-1.48-1.93-2.22s-1.28-1.49-1.91-2.24c-.64-.75-1.26-1.5-1.89-2.25t0-.01c-.62-.75-1.24-1.51-1.86-2.27s-1.23-1.52-1.84-2.29c-.61-.76-1.21-1.53-1.8-2.3-.6-.77-1.2-1.54-1.79-2.32-.59-.77-1.18-1.55-1.76-2.33-.59-.78-1.17-1.57-1.74-2.35-1.15-1.58-2.29-3.16-3.41-4.75h0c-1.29-1.83-2.54-3.66-3.77-5.5-1.23-1.85-2.45-3.7-3.64-5.57-1.19-1.87-2.36-3.75-3.51-5.64-1.15-1.9-2.27-3.8-3.38-5.71-1.1-1.92-2.19-3.84-3.25-5.78-1.06-1.94-2.1-3.89-3.12-5.84-.47-.91-.94-1.82-1.4-2.73-.16-.32-.32-.64-.48-.96-.51-1.04-1.03-2.07-1.54-3.11-.06-.11-.11-.23-.17-.34-.07-.16-.15-.32-.23-.48-.56-1.17-1.12-2.33-1.66-3.5-.15-.31-.3-.63-.44-.94-.14-.31-.28-.62-.43-.93-.29-.63-.57-1.26-.86-1.88-.9-2.01-1.79-4.03-2.65-6.05-.32-.76-.64-1.52-.96-2.29-.32-.76-.63-1.52-.94-2.28s-.62-1.53-.92-2.3c-.3-.76-.6-1.53-.9-2.3-.6-1.54-1.18-3.08-1.75-4.63-.57-1.55-1.13-3.09-1.67-4.65-.36-1.04-.72-2.08-1.07-3.12l341.06,196.91h.01s1.46.85,1.46.85l.17.1Z"/>
</svg>