<svg width="322" height="73" viewBox="0 0 322 73" fill="none" xmlns="http://www.w3.org/2000/svg">
<g filter="url(#filter0_i_184_107)">
<path d="M263.744 0.753491L57.445 0.75335C51.4946 -1.06351 45.146 0.51176 40.365 4.33997C37.3584 6.72047 35.2154 9.83098 33.2324 13.0367C32.2728 14.592 31.3453 16.1472 30.3857 17.7025C28.9784 16.6233 27.3151 15.8616 25.46 15.4807C22.0376 14.7507 18.9671 15.5759 16.2803 17.7343C14.5212 19.1308 13.2738 20.94 12.1223 22.8127C10.747 25.0345 9.43556 27.288 7.99624 29.4463C6.01317 32.3981 3.3904 34.7469 0.191902 36.3656C0.127932 36.3973 0.0959549 36.4291 0 36.4926C2.62277 37.7939 4.76575 39.5079 6.58889 41.6662C7.99623 43.3484 9.1477 45.1893 10.2992 47.062C11.4506 48.9346 12.5701 50.8391 13.8495 52.6482C15.5127 54.997 17.7197 56.7109 20.5983 57.441C22.9332 58.044 25.2361 57.8219 27.4431 56.9331C28.5626 56.4888 29.5861 55.9174 30.4817 55.2192C32.3048 58.2345 34.1279 61.2815 36.175 64.1698C40.9941 70.9181 49.3393 74.6322 57.5089 72.2001L263.68 72.2002C271.867 74.5562 280.199 70.988 285.014 64.17C287.061 61.2817 288.884 58.2346 290.707 55.2193C291.635 55.9176 292.626 56.4889 293.746 56.9333C295.953 57.822 298.256 58.0442 300.591 57.4411C303.469 56.7111 305.676 54.9971 307.34 52.6484C308.619 50.8392 309.738 48.9348 310.89 47.0621C312.009 45.1895 313.161 43.3486 314.6 41.6663C316.423 39.5398 318.598 37.7941 321.189 36.4927C321.093 36.4292 321.029 36.3975 320.997 36.3658C317.767 34.747 315.176 32.3983 313.193 29.4464C311.753 27.2881 310.41 25.0346 309.067 22.8128C307.915 20.9401 306.668 19.1309 304.909 17.7344C302.19 15.5761 299.151 14.7508 295.729 15.4808C293.874 15.8935 292.211 16.6235 290.803 17.7026C289.844 16.1474 288.916 14.5921 287.957 13.0369C285.974 9.83112 283.831 6.72061 280.824 4.34011C275.968 0.451402 269.766 -0.953995 263.744 0.753491Z" fill="#D65537"/>
</g>
<path d="M41.0869 5.24121C45.6083 1.62095 51.5665 0.165744 57.1074 1.85742L57.2725 1.9082H263.904L264.059 1.86426C269.702 0.264075 275.521 1.5729 280.103 5.24121L280.107 5.24512C282.947 7.49309 285.003 10.4556 286.975 13.6436C287.452 14.4167 287.921 15.1907 288.393 15.9688C288.864 16.7456 289.338 17.5268 289.82 18.3086L290.492 19.3965L291.506 18.6191C292.759 17.6585 294.258 16.9913 295.969 16.6094L295.97 16.6104C299.028 15.958 301.719 16.6771 304.19 18.6387C305.783 19.9031 306.944 21.5654 308.083 23.417C309.419 25.6263 310.777 27.9043 312.232 30.0869L312.234 30.0898C313.979 32.6866 316.179 34.8474 318.848 36.4873C316.898 37.7074 315.199 39.1941 313.724 40.915L313.723 40.916C312.219 42.6739 311.027 44.5826 309.906 46.457C308.738 48.3564 307.648 50.2119 306.396 51.9814C304.866 54.1429 302.878 55.6702 300.307 56.3223L300.302 56.3232C298.228 56.8587 296.177 56.6679 294.177 55.8623L294.172 55.8604L293.796 55.7031C292.93 55.3244 292.146 54.8572 291.401 54.2969L290.381 53.5283L289.72 54.6221C287.89 57.6479 286.09 60.6551 284.072 63.502L284.071 63.5039C279.501 69.9755 271.652 73.2932 263.999 71.0908L263.843 71.0459H57.3408L57.1797 71.0938C49.5647 73.3608 41.7014 69.9204 37.1162 63.502H37.1172C35.0995 60.6551 33.2993 57.648 31.4697 54.6221L30.7969 53.5098L29.7715 54.3086C28.9715 54.9323 28.0463 55.452 27.0176 55.8604L27.0117 55.8623C25.0112 56.6679 22.9603 56.8588 20.8867 56.3232L20.8818 56.3223L20.4072 56.1895C18.2205 55.524 16.474 54.2004 15.084 52.3789L14.792 51.9814C13.5407 50.212 12.4501 48.3563 11.2822 46.457C10.1336 44.589 8.94259 42.6806 7.47461 40.9258L7.4707 40.9209C5.99074 39.1689 4.30514 37.6919 2.34473 36.4775C4.99234 34.8407 7.21059 32.6851 8.9541 30.0898L8.95703 30.0869C10.4101 27.908 11.751 25.6048 13.1035 23.4199L13.1055 23.417C14.244 21.5653 15.4053 19.9032 16.998 18.6387L17.0029 18.6348C19.4364 16.6799 22.1572 15.9565 25.2188 16.6094L25.2275 16.6113C26.9166 16.9581 28.4187 17.6492 29.6836 18.6191L30.6973 19.3965L31.3682 18.3086C31.8505 17.5268 32.3246 16.7457 32.7959 15.9688C33.2677 15.1911 33.7371 14.4173 34.2139 13.6445C36.186 10.4564 38.2427 7.49323 41.082 5.24512L41.0869 5.24121Z" stroke="#FFA73C" stroke-width="2.30904"/>
<defs>
<filter id="filter0_i_184_107" x="0" y="0" width="321.189" height="72.948" filterUnits="userSpaceOnUse" color-interpolation-filters="sRGB">
<feFlood flood-opacity="0" result="BackgroundImageFix"/>
<feBlend mode="normal" in="SourceGraphic" in2="BackgroundImageFix" result="shape"/>
<feColorMatrix in="SourceAlpha" type="matrix" values="0 0 0 0 0 0 0 0 0 0 0 0 0 0 0 0 0 0 127 0" result="hardAlpha"/>
<feOffset/>
<feGaussianBlur stdDeviation="21.2432"/>
<feComposite in2="hardAlpha" operator="arithmetic" k2="-1" k3="1"/>
<feColorMatrix type="matrix" values="0 0 0 0 0.253846 0 0 0 0 0.0481986 0 0 0 0 0 0 0 0 1 0"/>
<feBlend mode="normal" in2="shape" result="effect1_innerShadow_184_107"/>
</filter>
</defs>
</svg>
