<svg xmlns="http://www.w3.org/2000/svg" width="322" height="330" fill="none" viewBox="0 0 322 330">
  <path fill="#FF3000" d="M160.892.845c82.079 0 148.618 66.538 148.618 148.618 0 42.541-17.876 80.906-46.524 107.998h1.056c6.022-1.707 12.223-.302 17.079 3.587 3.007 2.38 5.15 5.49 7.133 8.696.959 1.555 1.887 3.111 2.847 4.666 1.407-1.079 3.07-1.809 4.925-2.222 3.423-.73 6.461.095 9.18 2.253 1.759 1.397 3.007 3.207 4.158 5.08 1.343 2.221 2.687 4.474 4.126 6.632 1.983 2.952 4.574 5.302 7.805 6.92.032.032.096.064.191.127a21.076 21.076 0 0 0-6.589 5.174c-1.439 1.682-2.59 3.523-3.709 5.396-1.152 1.872-2.272 3.776-3.551 5.585-1.663 2.349-3.87 4.063-6.748 4.793-2.335.603-4.639.381-6.846-.507a12.946 12.946 0 0 1-3.038-1.714c-1.823 3.015-3.647 6.062-5.693 8.95-4.815 6.818-13.148 10.386-21.334 8.03H57.807c-8.17 2.432-16.515-1.282-21.334-8.03-2.047-2.888-3.87-5.935-5.694-8.95a12.343 12.343 0 0 1-3.039 1.714c-2.207.888-4.51 1.11-6.845.507-2.878-.73-5.085-2.444-6.748-4.793-1.28-1.809-2.399-3.713-3.55-5.585-1.152-1.873-2.303-3.715-3.71-5.397a20.248 20.248 0 0 0-6.59-5.173c.097-.063.128-.095.192-.127 3.199-1.618 5.822-3.968 7.805-6.92 1.44-2.158 2.75-4.412 4.126-6.633 1.151-1.873 2.4-3.682 4.158-5.079 2.687-2.158 5.758-2.983 9.18-2.253a12.008 12.008 0 0 1 4.926 2.222c.96-1.555 1.887-3.111 2.846-4.666 1.983-3.206 4.126-6.317 7.132-8.697 4.781-3.828 11.13-5.403 17.08-3.586h1.056c-28.648-27.092-46.523-65.457-46.524-107.998C12.274 67.383 78.812.845 160.892.845Z"/>
</svg>
